<?xml version="1.0" encoding="UTF-8" standalone="no"?>
<!-- Created with Inkscape (http://www.inkscape.org/) -->

<svg
   width="160mm"
   height="140mm"
   viewBox="0 0 160 140"
   version="1.1"
   id="svg825"
   xmlns="http://www.w3.org/2000/svg">
  <defs
     id="defs822" />
  <g
     id="layer1">
    <g
       id="g1318"
       transform="translate(-25.975951,-66.140917)">
      <path
         style="fill:#d8e6fa;stroke-width:0.162724"
         d="m 28.936095,203.60564 c -0.202408,-0.25809 -0.196652,-0.26384 0.06144,-0.0614 0.271057,0.21258 0.357256,0.34621 0.223329,0.34621 -0.03379,0 -0.161935,-0.12815 -0.284766,-0.28477 z m 37.101003,0 c -0.202407,-0.25809 -0.196651,-0.26384 0.06144,-0.0614 0.271057,0.21258 0.357257,0.34621 0.223329,0.34621 -0.03379,0 -0.161935,-0.12815 -0.284767,-0.28477 z m 4.114254,0.1096 c -3.023239,-0.39215 -5.173068,-2.58535 -6.288273,-6.41514 -0.317657,-1.09088 -2.588297,-16.55517 -8.900113,-60.61458 -7.617365,-53.172755 -8.475661,-59.372061 -8.493488,-61.34684 -0.01633,-1.80868 0.03604,-2.347378 0.296439,-3.04928 0.533438,-1.437896 1.324545,-2.321723 2.699048,-3.01538 1.914067,-0.965956 2.387801,-1.01449 9.839856,-1.008104 7.47777,0.0064 8.136013,0.07868 10.266337,1.127153 2.539065,1.249646 4.174196,3.614934 4.953908,7.166038 0.09825,0.447491 3.981483,27.431153 8.629396,59.963683 9.086729,63.60153 8.824062,61.55939 8.195891,63.72022 -0.591593,2.03501 -1.959157,3.1631 -4.219778,3.48085 -1.357365,0.19079 -15.497238,0.18361 -16.979223,-0.009 z m 19.989611,0.11373 c 0,-0.0338 0.128145,-0.16194 0.284767,-0.28477 0.258089,-0.2024 0.263845,-0.19665 0.06144,0.0614 -0.212578,0.27106 -0.346205,0.35726 -0.346205,0.22333 z m 12.997137,-0.22333 c -0.2024,-0.25809 -0.19665,-0.26384 0.0614,-0.0614 0.15662,0.12283 0.28477,0.25098 0.28477,0.28477 0,0.13393 -0.13363,0.0477 -0.34621,-0.22333 z m 4.11426,0.1096 c -3.02324,-0.39215 -5.17307,-2.58535 -6.28828,-6.41514 -0.31765,-1.09088 -2.588294,-16.55517 -8.90011,-60.61458 -7.617365,-53.172755 -8.475661,-59.372061 -8.493487,-61.34684 -0.01633,-1.80868 0.03604,-2.347378 0.296438,-3.04928 0.533438,-1.437896 1.324545,-2.321723 2.699048,-3.01538 1.914067,-0.965956 2.387801,-1.01449 9.839857,-1.008104 7.477764,0.0064 8.136014,0.07868 10.266334,1.127153 2.53907,1.249646 4.1742,3.614934 4.95391,7.166038 0.0983,0.447491 3.98148,27.431153 8.6294,59.963683 9.08672,63.60153 8.82406,61.55939 8.19589,63.72022 -0.5916,2.03501 -1.95916,3.1631 -4.21978,3.48085 -1.35737,0.19079 -15.49724,0.18361 -16.97922,-0.009 z m 19.98961,0.11373 c 0,-0.0338 0.12814,-0.16194 0.28476,-0.28477 0.25809,-0.2024 0.26385,-0.19665 0.0614,0.0614 -0.21258,0.27106 -0.3462,0.35726 -0.3462,0.22333 z m 12.99714,-0.22333 c -0.20241,-0.25809 -0.19666,-0.26384 0.0614,-0.0614 0.15663,0.12283 0.28477,0.25098 0.28477,0.28477 0,0.13393 -0.13363,0.0477 -0.3462,-0.22333 z m 24.10386,0.22333 c 0,-0.0338 0.12815,-0.16194 0.28477,-0.28477 0.25809,-0.2024 0.26384,-0.19665 0.0614,0.0614 -0.21258,0.27106 -0.34621,0.35726 -0.34621,0.22333 z M 157.34585,70.883702 c 0,-0.03379 0.12815,-0.161935 0.28477,-0.284766 0.25809,-0.202407 0.26384,-0.196652 0.0614,0.06144 -0.21258,0.271057 -0.34621,0.357257 -0.34621,0.223329 z m 24.87597,-1.036947 c -0.2024,-0.258089 -0.19666,-0.263845 0.0614,-0.06144 0.27105,0.212578 0.35726,0.346204 0.22332,0.346204 -0.0338,0 -0.16192,-0.128145 -0.28476,-0.284766 z m -5.55253,-1.612964 c 0.11187,-0.04514 0.29494,-0.04514 0.40681,0 0.11187,0.04514 0.0203,0.08208 -0.2034,0.08208 -0.22375,0 -0.31528,-0.03693 -0.20341,-0.08208 z"
         id="path1332" />
      <path
         style="fill:#a3a4a7;stroke-width:0.162724"
         d="m 32.506262,203.77925 c 0.117465,-0.047 0.257814,-0.0412 0.311887,0.0128 0.05407,0.0541 -0.04204,0.0925 -0.213575,0.0855 -0.189565,-0.008 -0.228122,-0.0464 -0.09831,-0.0983 z m 54.014099,0.003 c 0.111872,-0.0451 0.294936,-0.0451 0.406809,0 0.111873,0.0451 0.02034,0.0821 -0.203405,0.0821 -0.223745,0 -0.315277,-0.0369 -0.203404,-0.0821 z m 37.100999,0 c 0.11188,-0.0451 0.29494,-0.0451 0.40681,0 0.11188,0.0451 0.0203,0.0821 -0.2034,0.0821 -0.22375,0 -0.31528,-0.0369 -0.20341,-0.0821 z m -95.914215,-6.40117 c 0,-0.58174 0.02953,-0.81972 0.06563,-0.52885 0.0361,0.29087 0.0361,0.76683 0,1.0577 -0.0361,0.29087 -0.06563,0.0529 -0.06563,-0.52885 z m 63.950414,0 c 0,-0.58174 0.02953,-0.81972 0.06563,-0.52885 0.0361,0.29087 0.0361,0.76683 0,1.0577 -0.0361,0.29087 -0.06563,0.0529 -0.06563,-0.52885 z m 37.101001,0 c 0,-0.58174 0.0295,-0.81972 0.0656,-0.52885 0.0361,0.29087 0.0361,0.76683 0,1.0577 -0.0361,0.29087 -0.0656,0.0529 -0.0656,-0.52885 z m 56.6201,-123.019123 c 0,-0.402741 0.0317,-0.567499 0.0705,-0.366128 0.0388,0.201371 0.0388,0.530886 0,0.732257 -0.0388,0.20137 -0.0705,0.03661 -0.0705,-0.366129 z m -27.21919,-4.312178 c 0.2102,-0.223745 0.41879,-0.406809 0.46354,-0.406809 0.0447,0 -0.0906,0.183064 -0.30082,0.406809 -0.21019,0.223745 -0.41879,0.406809 -0.46354,0.406809 -0.0447,0 0.0906,-0.183064 0.30082,-0.406809 z M 53.24646,68.228794 c 0.158325,-0.04126 0.378002,-0.03854 0.488171,0.006 0.110169,0.04457 -0.01937,0.07833 -0.287863,0.07501 -0.268494,-0.0033 -0.358633,-0.03979 -0.200308,-0.08104 z m 11.306201,0.005 c 0.111872,-0.04514 0.294937,-0.04514 0.406809,0 0.111873,0.04514 0.02034,0.08208 -0.203404,0.08208 -0.223746,0 -0.315278,-0.03693 -0.203405,-0.08208 z m 25.794803,-0.005 c 0.158326,-0.04126 0.378003,-0.03854 0.488172,0.006 0.110168,0.04457 -0.01937,0.07833 -0.287864,0.07501 -0.268494,-0.0033 -0.358633,-0.03979 -0.200308,-0.08104 z m 11.306206,0.005 c 0.11187,-0.04514 0.29493,-0.04514 0.4068,0 0.11188,0.04514 0.0203,0.08208 -0.2034,0.08208 -0.22375,0 -0.31528,-0.03693 -0.2034,-0.08208 z m 63.95041,0 c 0.11187,-0.04514 0.29494,-0.04514 0.40681,0 0.11187,0.04514 0.0203,0.08208 -0.20341,0.08208 -0.22374,0 -0.31527,-0.03693 -0.2034,-0.08208 z m 11.71611,0 c 0.11187,-0.04514 0.29493,-0.04514 0.40681,0 0.11187,0.04514 0.0203,0.08208 -0.20341,0.08208 -0.22374,0 -0.31528,-0.03693 -0.2034,-0.08208 z M 52.521277,67.254059 c 0.117465,-0.04701 0.257815,-0.04122 0.311888,0.01285 0.05407,0.05407 -0.04204,0.09253 -0.213575,0.08547 -0.189565,-0.0078 -0.228122,-0.04637 -0.09831,-0.09831 z m 14.156962,0 c 0.117466,-0.04701 0.257816,-0.04122 0.311888,0.01285 0.05407,0.05407 -0.04204,0.09253 -0.213575,0.08547 -0.189565,-0.0078 -0.228122,-0.04637 -0.09831,-0.09831 z m 22.944042,0 c 0.117466,-0.04701 0.257817,-0.04122 0.311888,0.01285 0.05407,0.05407 -0.04204,0.09253 -0.213575,0.08547 -0.189565,-0.0078 -0.228122,-0.04637 -0.09831,-0.09831 z m 14.156959,0 c 0.11747,-0.04701 0.25782,-0.04122 0.31189,0.01285 0.0541,0.05407 -0.042,0.09253 -0.21357,0.08547 -0.18957,-0.0078 -0.22813,-0.04637 -0.0983,-0.09831 z m 22.94405,0 c 0.11746,-0.04701 0.25781,-0.04122 0.31188,0.01285 0.0541,0.05407 -0.042,0.09253 -0.21357,0.08547 -0.18957,-0.0078 -0.22812,-0.04637 -0.0983,-0.09831 z m 14.15696,0 c 0.11746,-0.04701 0.25781,-0.04122 0.31189,0.01285 0.0541,0.05407 -0.042,0.09253 -0.21358,0.08547 -0.18956,-0.0078 -0.22812,-0.04637 -0.0983,-0.09831 z m 37.101,0 c 0.11747,-0.04701 0.25782,-0.04122 0.31189,0.01285 0.0541,0.05407 -0.042,0.09253 -0.21358,0.08547 -0.18956,-0.0078 -0.22812,-0.04637 -0.0983,-0.09831 z"
         id="path1330" />
      <path
         style="fill:#7d8590;stroke-width:0.162724"
         d="m 45.172375,75.425254 c -0.05042,-0.131382 -0.02164,-0.282155 0.06395,-0.335052 0.08559,-0.0529 0.155618,0.0546 0.155618,0.238874 0,0.392907 -0.09049,0.432545 -0.21957,0.09618 z m 37.101005,0 c -0.05042,-0.131382 -0.02164,-0.282155 0.06395,-0.335052 0.08559,-0.0529 0.155617,0.0546 0.155617,0.238874 0,0.392907 -0.09049,0.432545 -0.219569,0.09618 z m 37.101,0 c -0.0504,-0.131382 -0.0216,-0.282155 0.064,-0.335052 0.0856,-0.0529 0.15561,0.0546 0.15561,0.238874 0,0.392907 -0.0905,0.432545 -0.21957,0.09618 z m 65.98564,-0.08657 c 0,-0.223745 0.0369,-0.315278 0.0821,-0.203405 0.0451,0.111873 0.0451,0.294937 0,0.406809 -0.0451,0.111873 -0.0821,0.02034 -0.0821,-0.203404 z"
         id="path1328" />
      <path
         style="fill:#637585;stroke-width:0.164889"
         d="m 145.23786,204.80505 c -1.16683,-0.13413 -2.36638,-0.45475 -3.11902,-0.83364 -1.8268,-0.91965 -3.37952,-3.31708 -4.14579,-6.40119 -0.23615,-0.95051 -4.00293,-26.79655 -9.00965,-61.82037 -7.88506,-55.159028 -8.59675,-60.317637 -8.51926,-61.75132 0.14083,-2.605744 1.01124,-4.205815 2.83469,-5.211021 1.89792,-1.046254 2.65651,-1.129473 10.23654,-1.122995 7.61752,0.0064 8.21158,0.07297 10.43184,1.167133 2.39303,1.179302 4.05028,3.422086 4.84144,6.551979 0.18111,0.71652 4.19274,28.329664 8.91473,61.362544 9.10877,63.72091 8.91464,62.22373 8.3452,64.3576 -0.12998,0.48703 -0.49633,1.2761 -0.81413,1.75347 -0.70356,1.05686 -1.78424,1.64057 -3.48605,1.88296 -1.04492,0.14882 -15.29316,0.20479 -16.51054,0.0649 z M 44.949319,74.890495 c 0.0079,-0.191832 0.04705,-0.230852 0.09975,-0.09949 0.0477,0.118871 0.04184,0.260899 -0.01303,0.315619 -0.05486,0.05472 -0.09388,-0.04255 -0.08672,-0.21613 z m 37.644049,0 c 0.0079,-0.191832 0.04705,-0.230852 0.09974,-0.09949 0.0477,0.118871 0.04184,0.260899 -0.01303,0.315619 -0.05486,0.05472 -0.09388,-0.04255 -0.08672,-0.21613 z"
         id="path1326" />
      <path
         style="fill:#5a5d60;stroke-width:0.162724"
         d="m 144.93817,203.78264 c 0.11187,-0.0451 0.29494,-0.0451 0.40681,0 0.11187,0.0451 0.0203,0.0821 -0.20341,0.0821 -0.22374,0 -0.31527,-0.0369 -0.2034,-0.0821 z m 15.7842,0 c 0.11187,-0.0451 0.29494,-0.0451 0.40681,0 0.11187,0.0451 0.0203,0.0821 -0.20341,0.0821 -0.22374,0 -0.31527,-0.0369 -0.2034,-0.0821 z m 5.1372,-6.40118 c 0,-0.58174 0.0295,-0.81972 0.0656,-0.52885 0.0361,0.29087 0.0361,0.76683 0,1.0577 -0.0361,0.29087 -0.0656,0.0529 -0.0656,-0.52885 z m -5.40912,-38.82316 c 0.008,-0.18957 0.0464,-0.22813 0.0983,-0.0983 0.047,0.11747 0.0412,0.25782 -0.0128,0.31189 -0.0541,0.0541 -0.0925,-0.042 -0.0855,-0.21357 z m -0.16272,-1.13907 c 0.008,-0.18957 0.0464,-0.22812 0.0983,-0.0983 0.047,0.11746 0.0412,0.25781 -0.0128,0.31188 -0.0541,0.0541 -0.0925,-0.042 -0.0855,-0.21357 z m -0.16273,-1.13907 c 0.008,-0.18956 0.0464,-0.22812 0.0983,-0.0983 0.047,0.11747 0.0412,0.25782 -0.0128,0.31189 -0.0541,0.0541 -0.0925,-0.042 -0.0855,-0.21358 z m -0.16272,-1.13906 c 0.008,-0.18957 0.0464,-0.22812 0.0983,-0.0983 0.047,0.11747 0.0412,0.25782 -0.0128,0.31189 -0.0541,0.0541 -0.0925,-0.042 -0.0855,-0.21357 z m -0.16273,-1.13907 c 0.008,-0.18956 0.0464,-0.22812 0.0983,-0.0983 0.047,0.11746 0.0412,0.25782 -0.0128,0.31189 -0.0541,0.0541 -0.0925,-0.042 -0.0855,-0.21358 z m -0.16272,-1.13906 c 0.008,-0.18957 0.0464,-0.22813 0.0983,-0.0983 0.047,0.11747 0.0412,0.25782 -0.0128,0.31189 -0.0541,0.0541 -0.0925,-0.042 -0.0855,-0.21357 z m -0.16272,-1.13907 c 0.008,-0.18957 0.0464,-0.22812 0.0983,-0.0983 0.047,0.11746 0.0412,0.25781 -0.0128,0.31188 -0.0541,0.0541 -0.0925,-0.042 -0.0855,-0.21357 z m -0.16273,-1.13907 c 0.008,-0.18956 0.0464,-0.22812 0.0983,-0.0983 0.047,0.11747 0.0412,0.25782 -0.0128,0.31189 -0.0541,0.0541 -0.0925,-0.042 -0.0855,-0.21358 z m -0.16272,-1.13906 c 0.008,-0.18957 0.0464,-0.22812 0.0983,-0.0983 0.047,0.11746 0.0412,0.25781 -0.0128,0.31188 -0.0541,0.0541 -0.0925,-0.042 -0.0855,-0.21357 z m -0.16272,-1.13907 c 0.008,-0.18956 0.0464,-0.22812 0.0983,-0.0983 0.047,0.11746 0.0412,0.25782 -0.0128,0.31189 -0.0541,0.0541 -0.0925,-0.042 -0.0855,-0.21358 z m -0.16273,-1.13906 c 0.008,-0.18957 0.0464,-0.22813 0.0983,-0.0983 0.047,0.11747 0.0412,0.25782 -0.0128,0.31189 -0.0541,0.0541 -0.0925,-0.042 -0.0855,-0.21357 z m -0.16272,-1.13907 c 0.008,-0.18956 0.0464,-0.22812 0.0983,-0.0983 0.047,0.11746 0.0412,0.25781 -0.0128,0.31189 -0.0541,0.0541 -0.0925,-0.042 -0.0855,-0.21358 z m -0.16272,-1.13907 c 0.008,-0.18956 0.0464,-0.22812 0.0983,-0.0983 0.047,0.11747 0.0412,0.25782 -0.0128,0.31189 -0.0541,0.0541 -0.0925,-0.042 -0.0855,-0.21358 z m -0.16273,-1.13906 c 0.008,-0.18957 0.0464,-0.22812 0.0983,-0.0983 0.047,0.11746 0.0412,0.25781 -0.0128,0.31188 -0.0541,0.0541 -0.0925,-0.042 -0.0855,-0.21357 z m -0.16272,-1.13907 c 0.008,-0.18956 0.0464,-0.22812 0.0983,-0.0983 0.047,0.11746 0.0412,0.25782 -0.0128,0.31189 -0.0541,0.0541 -0.0925,-0.042 -0.0855,-0.21358 z m -0.16273,-1.13906 c 0.008,-0.18957 0.0464,-0.22813 0.0983,-0.0983 0.047,0.11747 0.0412,0.25782 -0.0128,0.31189 -0.0541,0.0541 -0.0925,-0.042 -0.0855,-0.21357 z m -28.31392,-0.6509 c 0.008,-0.18956 0.0464,-0.22812 0.0983,-0.0983 0.047,0.11746 0.0412,0.25781 -0.0128,0.31189 -0.0541,0.0541 -0.0925,-0.042 -0.0855,-0.21358 z m 28.1512,-0.48817 c 0.008,-0.18956 0.0464,-0.22812 0.0983,-0.0983 0.047,0.11746 0.0412,0.25781 -0.0128,0.31189 -0.0541,0.0541 -0.0925,-0.042 -0.0855,-0.21358 z m -28.31392,-0.65089 c 0.008,-0.18957 0.0464,-0.22813 0.0983,-0.0983 0.047,0.11747 0.0412,0.25782 -0.0128,0.31189 -0.0541,0.0541 -0.0925,-0.042 -0.0855,-0.21357 z m 28.1512,-0.48818 c 0.008,-0.18956 0.0464,-0.22812 0.0983,-0.0983 0.047,0.11747 0.0412,0.25782 -0.0128,0.31189 -0.0541,0.0541 -0.0925,-0.042 -0.0855,-0.21358 z m -28.31393,-0.65089 c 0.008,-0.18957 0.0464,-0.22812 0.0983,-0.0983 0.047,0.11746 0.0412,0.25781 -0.0128,0.31188 -0.0541,0.0541 -0.0925,-0.042 -0.0855,-0.21357 z m 28.1512,-0.48817 c 0.008,-0.18957 0.0464,-0.22812 0.0983,-0.0983 0.047,0.11746 0.0412,0.25781 -0.0128,0.31188 -0.0541,0.0541 -0.0925,-0.042 -0.0855,-0.21357 z m -28.31392,-0.6509 c 0.008,-0.18956 0.0464,-0.22812 0.0983,-0.0983 0.047,0.11747 0.0412,0.25782 -0.0128,0.31189 -0.0541,0.0541 -0.0925,-0.042 -0.0855,-0.21358 z m 28.1512,-0.48817 c 0.008,-0.18956 0.0464,-0.22812 0.0983,-0.0983 0.047,0.11747 0.0412,0.25782 -0.0128,0.31189 -0.0541,0.0541 -0.0925,-0.042 -0.0855,-0.21358 z m -28.31392,-0.65089 c 0.008,-0.18957 0.0464,-0.22812 0.0983,-0.0983 0.047,0.11746 0.0412,0.25781 -0.0128,0.31188 -0.0541,0.0541 -0.0925,-0.042 -0.0855,-0.21357 z m 28.1512,-0.48817 c 0.008,-0.18957 0.0464,-0.22813 0.0983,-0.0983 0.047,0.11747 0.0412,0.25782 -0.0128,0.31189 -0.0541,0.0541 -0.0925,-0.042 -0.0855,-0.21357 z m -28.31393,-0.6509 c 0.008,-0.18956 0.0464,-0.22812 0.0983,-0.0983 0.047,0.11746 0.0412,0.25782 -0.0128,0.31189 -0.0541,0.0541 -0.0925,-0.042 -0.0855,-0.21358 z m 28.1512,-0.48817 c 0.008,-0.18956 0.0464,-0.22812 0.0983,-0.0983 0.047,0.11746 0.0412,0.25781 -0.0128,0.31189 -0.0541,0.0541 -0.0925,-0.042 -0.0855,-0.21358 z m -28.31392,-0.65089 c 0.008,-0.18957 0.0464,-0.22813 0.0983,-0.0983 0.047,0.11747 0.0412,0.25782 -0.0128,0.31189 -0.0541,0.0541 -0.0925,-0.042 -0.0855,-0.21357 z m 28.1512,-0.48818 c 0.008,-0.18956 0.0464,-0.22812 0.0983,-0.0983 0.047,0.11747 0.0412,0.25782 -0.0128,0.31189 -0.0541,0.0541 -0.0925,-0.042 -0.0855,-0.21358 z m -28.31393,-0.65089 c 0.008,-0.18957 0.0464,-0.22812 0.0983,-0.0983 0.047,0.11746 0.0412,0.25781 -0.0128,0.31188 -0.0541,0.0541 -0.0925,-0.042 -0.0855,-0.21357 z m 28.1512,-0.48817 c 0.008,-0.18957 0.0464,-0.22812 0.0983,-0.0983 0.047,0.11746 0.0412,0.25781 -0.0128,0.31188 -0.0541,0.0541 -0.0925,-0.042 -0.0855,-0.21357 z m -28.31392,-0.6509 c 0.008,-0.18956 0.0464,-0.22812 0.0983,-0.0983 0.047,0.11747 0.0412,0.25782 -0.0128,0.31189 -0.0541,0.0541 -0.0925,-0.042 -0.0855,-0.21358 z m 28.1512,-0.48817 c 0.008,-0.18956 0.0464,-0.22812 0.0983,-0.0983 0.047,0.11747 0.0412,0.25782 -0.0128,0.31189 -0.0541,0.0541 -0.0925,-0.042 -0.0855,-0.21358 z m -28.31392,-0.65089 c 0.008,-0.18957 0.0464,-0.22812 0.0983,-0.0983 0.047,0.11746 0.0412,0.25781 -0.0128,0.31188 -0.0541,0.0541 -0.0925,-0.042 -0.0855,-0.21357 z m -0.16273,-1.13907 c 0.008,-0.18956 0.0464,-0.22812 0.0983,-0.0983 0.047,0.11746 0.0412,0.25782 -0.0128,0.31189 -0.0541,0.0541 -0.0925,-0.042 -0.0855,-0.21358 z m -0.16272,-1.13906 c 0.008,-0.18957 0.0464,-0.22813 0.0983,-0.0983 0.047,0.11747 0.0412,0.25782 -0.0128,0.31189 -0.0541,0.0541 -0.0925,-0.042 -0.0855,-0.21357 z m -0.16272,-1.13907 c 0.008,-0.18956 0.0464,-0.22812 0.0983,-0.0983 0.047,0.11746 0.0412,0.25781 -0.0128,0.31189 -0.0541,0.0541 -0.0925,-0.042 -0.0855,-0.21358 z m -0.16273,-1.13907 c 0.008,-0.18956 0.0464,-0.22812 0.0983,-0.0983 0.047,0.11747 0.0412,0.25782 -0.0128,0.31189 -0.0541,0.0541 -0.0925,-0.042 -0.0855,-0.21358 z m -0.16272,-1.13906 c 0.008,-0.18957 0.0464,-0.22812 0.0983,-0.0983 0.047,0.11746 0.0412,0.25781 -0.0128,0.31188 -0.0541,0.0541 -0.0925,-0.042 -0.0855,-0.21357 z m -0.16273,-1.13907 c 0.008,-0.18956 0.0464,-0.22812 0.0983,-0.0983 0.047,0.11747 0.0412,0.25782 -0.0128,0.31189 -0.0541,0.0541 -0.0925,-0.042 -0.0855,-0.21358 z m -0.16272,-1.13906 c 0.008,-0.18957 0.0464,-0.22813 0.0983,-0.0983 0.047,0.11747 0.0412,0.25782 -0.0128,0.31189 -0.0541,0.0541 -0.0925,-0.042 -0.0855,-0.21357 z m -0.16272,-1.13907 c 0.008,-0.18956 0.0464,-0.22812 0.0983,-0.0983 0.047,0.11746 0.0412,0.25781 -0.0128,0.31189 -0.0541,0.0541 -0.0925,-0.042 -0.0855,-0.21358 z m -0.16273,-1.13907 c 0.008,-0.18956 0.0464,-0.22812 0.0983,-0.0983 0.047,0.11747 0.0412,0.25782 -0.0128,0.31189 -0.0541,0.0541 -0.0925,-0.042 -0.0855,-0.21358 z m -0.16272,-1.13906 c 0.008,-0.18957 0.0464,-0.22812 0.0983,-0.0983 0.047,0.11746 0.0412,0.25781 -0.0128,0.31188 -0.0541,0.0541 -0.0925,-0.042 -0.0855,-0.21357 z m -0.16272,-1.13907 c 0.008,-0.18956 0.0464,-0.22812 0.0983,-0.0983 0.047,0.11747 0.0412,0.25782 -0.0128,0.31189 -0.0541,0.0541 -0.0925,-0.042 -0.0855,-0.21358 z m -0.16273,-1.13906 c 0.008,-0.18957 0.0464,-0.22813 0.0983,-0.0983 0.047,0.11747 0.0412,0.25782 -0.0128,0.31189 -0.0541,0.0541 -0.0925,-0.042 -0.0855,-0.21357 z m -0.16272,-1.13907 c 0.008,-0.18956 0.0464,-0.22812 0.0983,-0.0983 0.047,0.11746 0.0412,0.25781 -0.0128,0.31189 -0.0541,0.0541 -0.0925,-0.042 -0.0855,-0.21358 z m -0.16273,-1.13907 c 0.008,-0.18956 0.0464,-0.22812 0.0983,-0.0983 0.047,0.11747 0.0412,0.25782 -0.0128,0.31189 -0.0541,0.0541 -0.0925,-0.042 -0.0855,-0.21358 z m -0.16272,-1.13906 c 0.008,-0.18957 0.0464,-0.22812 0.0983,-0.0983 0.047,0.11746 0.0412,0.25781 -0.0128,0.31188 -0.0541,0.0541 -0.0925,-0.042 -0.0855,-0.21357 z m -5.20716,-36.612835 c 0.008,-0.189565 0.0464,-0.228122 0.0983,-0.09831 0.047,0.117466 0.0412,0.257815 -0.0128,0.311888 -0.0541,0.05407 -0.0925,-0.04204 -0.0855,-0.213575 z m -74.339825,-2.18321 c 0,-0.313243 0.03349,-0.441388 0.07442,-0.284767 0.04093,0.156622 0.04093,0.412912 0,0.569533 -0.04093,0.156622 -0.07442,0.02848 -0.07442,-0.284766 z m 37.101005,0 c 0,-0.313243 0.03349,-0.441388 0.07442,-0.284767 0.04093,0.156622 0.04093,0.412912 0,0.569533 -0.04093,0.156622 -0.07442,0.02848 -0.07442,-0.284766 z m 101.05471,-0.08136 c 0.002,-0.357992 0.0351,-0.485283 0.074,-0.282869 0.0389,0.202414 0.0374,0.495316 -0.003,0.650895 -0.0407,0.155578 -0.0726,-0.01004 -0.0708,-0.368026 z m -39.11549,-4.271497 c -0.20241,-0.258089 -0.19665,-0.263845 0.0614,-0.06144 0.15662,0.122831 0.28477,0.250975 0.28477,0.284766 0,0.133927 -0.13363,0.04773 -0.34621,-0.223329 z M 46.856458,69.90736 c 0,-0.03379 0.128145,-0.161935 0.284767,-0.284766 0.258089,-0.202408 0.263845,-0.196652 0.06144,0.06144 -0.212578,0.271057 -0.346205,0.357256 -0.346205,0.223329 z m 25.364141,-0.223329 c -0.202407,-0.258089 -0.196652,-0.263845 0.06144,-0.06144 0.271057,0.212577 0.357256,0.346203 0.223328,0.346203 -0.03379,0 -0.161934,-0.128145 -0.284766,-0.284766 z m 11.736863,0.223329 c 0,-0.03379 0.128145,-0.161935 0.284767,-0.284766 0.258089,-0.202408 0.263845,-0.196652 0.06144,0.06144 -0.212577,0.271057 -0.346205,0.357256 -0.346205,0.223329 z M 109.3216,69.684031 c -0.2024,-0.258089 -0.19665,-0.263845 0.0614,-0.06144 0.15662,0.122831 0.28477,0.250976 0.28477,0.284766 0,0.133927 -0.13363,0.04773 -0.34621,-0.223329 z m 11.73687,0.223329 c 0,-0.03379 0.12814,-0.161935 0.28476,-0.284766 0.25809,-0.202408 0.26385,-0.196652 0.0614,0.06144 -0.21258,0.271057 -0.3462,0.357256 -0.3462,0.223329 z m 25.36414,-0.223329 c -0.20241,-0.258089 -0.19665,-0.263845 0.0614,-0.06144 0.27105,0.212577 0.35725,0.346203 0.22332,0.346203 -0.0338,0 -0.16193,-0.128145 -0.28476,-0.284766 z m 37.10099,0 c -0.20239,-0.258089 -0.19665,-0.263845 0.0615,-0.06144 0.27105,0.212577 0.35726,0.346203 0.22332,0.346203 -0.0338,0 -0.16192,-0.128145 -0.28477,-0.284766 z M 65.701897,68.230401 c 0.117465,-0.04701 0.257816,-0.04122 0.311888,0.01285 0.05407,0.05407 -0.04204,0.09253 -0.213575,0.08547 -0.189565,-0.0078 -0.228123,-0.04637 -0.09831,-0.09831 z m 37.101003,0 c 0.11747,-0.04701 0.25782,-0.04122 0.31189,0.01285 0.0541,0.05407 -0.042,0.09253 -0.21358,0.08547 -0.18956,-0.0078 -0.22812,-0.04637 -0.0983,-0.09831 z m 24.47975,-0.001 c 0.15662,-0.04093 0.41291,-0.04093 0.56953,0 0.15662,0.04093 0.0285,0.07442 -0.28477,0.07442 -0.31324,0 -0.44138,-0.03349 -0.28476,-0.07442 z m 11.55648,-6.03e-4 c 0.15832,-0.04126 0.378,-0.03854 0.48817,0.006 0.11017,0.04457 -0.0194,0.07833 -0.28786,0.07501 -0.2685,-0.0033 -0.35864,-0.03979 -0.20031,-0.08104 z m 25.9615,0.0016 c 0.11747,-0.04701 0.25782,-0.04122 0.31189,0.01285 0.0541,0.05407 -0.042,0.09253 -0.21358,0.08547 -0.18956,-0.0078 -0.22812,-0.04637 -0.0983,-0.09831 z m 0.31528,-0.972952 c 0.11187,-0.04514 0.29494,-0.04514 0.40681,0 0.11187,0.04514 0.0203,0.08208 -0.20341,0.08208 -0.22374,0 -0.31527,-0.03693 -0.2034,-0.08208 z m 12.05172,-0.0034 c 0.11747,-0.04701 0.25782,-0.04122 0.31189,0.01285 0.0541,0.05407 -0.042,0.09253 -0.21357,0.08546 -0.18957,-0.0078 -0.22813,-0.04637 -0.0983,-0.09831 z"
         id="path1324" />
      <path
         style="fill:#282a2b;stroke-width:0.162724"
         d="m 48.290461,204.75559 c 0.117465,-0.047 0.257814,-0.0412 0.311887,0.0128 0.05407,0.0541 -0.04204,0.0925 -0.213574,0.0855 -0.189565,-0.008 -0.228123,-0.0464 -0.09831,-0.0983 z m 95.996819,-0.97295 c 0.11187,-0.0451 0.29493,-0.0451 0.4068,0 0.11188,0.0451 0.0203,0.0821 -0.2034,0.0821 -0.22375,0 -0.31528,-0.0369 -0.2034,-0.0821 z m 17.09615,-0.003 c 0.11747,-0.047 0.25782,-0.0412 0.31189,0.0128 0.0541,0.0541 -0.042,0.0925 -0.21357,0.0855 -0.18957,-0.008 -0.22813,-0.0464 -0.0983,-0.0983 z M 52.877235,202.20173 c 0,-0.0338 0.128145,-0.16193 0.284767,-0.28476 0.258089,-0.20241 0.263845,-0.19666 0.06144,0.0614 -0.212578,0.27106 -0.346205,0.35726 -0.346205,0.22333 z m 86.710975,-1.19967 c -0.20241,-0.25809 -0.19665,-0.26384 0.0614,-0.0614 0.15662,0.12284 0.28477,0.25098 0.28477,0.28477 0,0.13393 -0.13363,0.0477 -0.34621,-0.22333 z m 26.251,-2.23745 c 0.003,-0.26849 0.0398,-0.35863 0.081,-0.20031 0.0413,0.15833 0.0385,0.378 -0.006,0.48817 -0.0446,0.11017 -0.0783,-0.0194 -0.075,-0.28786 z M 26.729142,197.46282 c 9.11e-4,-0.53699 0.03129,-0.73705 0.06751,-0.44457 0.03622,0.29247 0.03547,0.73182 -0.0017,0.97634 -0.03713,0.24451 -0.06676,0.005 -0.06585,-0.53177 z m 65.893712,-0.32545 c 0.0018,-0.35799 0.03513,-0.48528 0.07405,-0.28287 0.03892,0.20242 0.03744,0.49532 -0.0033,0.6509 -0.04073,0.15558 -0.07258,-0.01 -0.07077,-0.36803 z m 37.101006,0 c 0.002,-0.35799 0.0351,-0.48528 0.074,-0.28287 0.0389,0.20242 0.0375,0.49532 -0.003,0.6509 -0.0407,0.15558 -0.0726,-0.01 -0.0708,-0.36803 z m 37.101,0 c 0.002,-0.35799 0.0351,-0.48528 0.0741,-0.28287 0.0389,0.20242 0.0374,0.49532 -0.003,0.6509 -0.0407,0.15558 -0.0726,-0.01 -0.0708,-0.36803 z m -0.99168,-1.0577 c 0,-0.22375 0.0369,-0.31528 0.0821,-0.20341 0.0451,0.11188 0.0451,0.29494 0,0.40681 -0.0451,0.11188 -0.0821,0.0203 -0.0821,-0.2034 z m -0.17557,-1.39671 c 0.008,-0.18957 0.0464,-0.22812 0.0983,-0.0983 0.047,0.11746 0.0412,0.25781 -0.0128,0.31188 -0.0541,0.0541 -0.0925,-0.042 -0.0855,-0.21357 z m -0.16273,-1.13907 c 0.008,-0.18956 0.0464,-0.22812 0.0983,-0.0983 0.047,0.11746 0.0412,0.25782 -0.0128,0.31189 -0.0541,0.0541 -0.0925,-0.042 -0.0855,-0.21358 z m -0.16272,-1.13906 c 0.008,-0.18957 0.0464,-0.22813 0.0983,-0.0983 0.047,0.11747 0.0412,0.25782 -0.0128,0.31189 -0.0541,0.0541 -0.0925,-0.042 -0.0855,-0.21357 z m -0.16272,-1.13907 c 0.008,-0.18956 0.0464,-0.22812 0.0983,-0.0983 0.047,0.11746 0.0412,0.25781 -0.0128,0.31189 -0.0541,0.0541 -0.0925,-0.042 -0.0855,-0.21358 z m -0.16273,-1.13907 c 0.008,-0.18956 0.0464,-0.22812 0.0983,-0.0983 0.047,0.11747 0.0412,0.25782 -0.0128,0.31189 -0.0541,0.0541 -0.0925,-0.042 -0.0855,-0.21358 z m -0.16272,-1.13906 c 0.008,-0.18957 0.0464,-0.22812 0.0983,-0.0983 0.047,0.11746 0.0412,0.25781 -0.0128,0.31188 -0.0541,0.0541 -0.0925,-0.042 -0.0855,-0.21357 z m -0.16272,-1.13907 c 0.008,-0.18956 0.0464,-0.22812 0.0983,-0.0983 0.047,0.11747 0.0412,0.25782 -0.0128,0.31189 -0.0541,0.0541 -0.0925,-0.042 -0.0855,-0.21358 z m -0.16273,-1.13906 c 0.008,-0.18957 0.0464,-0.22813 0.0983,-0.0983 0.047,0.11747 0.0412,0.25782 -0.0128,0.31189 -0.0541,0.0541 -0.0925,-0.042 -0.0855,-0.21357 z m -0.16272,-1.13907 c 0.008,-0.18956 0.0464,-0.22812 0.0983,-0.0983 0.047,0.11746 0.0412,0.25781 -0.0128,0.31189 -0.0541,0.0541 -0.0925,-0.042 -0.0855,-0.21358 z m -0.16273,-1.13907 c 0.008,-0.18956 0.0464,-0.22812 0.0983,-0.0983 0.047,0.11747 0.0412,0.25782 -0.0128,0.31189 -0.0541,0.0541 -0.0925,-0.042 -0.0855,-0.21358 z m -0.16272,-1.13906 c 0.008,-0.18957 0.0464,-0.22812 0.0983,-0.0983 0.047,0.11746 0.0412,0.25781 -0.0128,0.31188 -0.0541,0.0541 -0.0925,-0.042 -0.0855,-0.21357 z m -0.16272,-1.13907 c 0.008,-0.18956 0.0464,-0.22812 0.0983,-0.0983 0.047,0.11747 0.0412,0.25782 -0.0128,0.31189 -0.0541,0.0541 -0.0925,-0.042 -0.0855,-0.21358 z m -0.16273,-1.13906 c 0.008,-0.18957 0.0464,-0.22813 0.0983,-0.0983 0.047,0.11747 0.0412,0.25782 -0.0128,0.31189 -0.0541,0.0541 -0.0925,-0.042 -0.0855,-0.21357 z m -0.16272,-1.13907 c 0.008,-0.18956 0.0464,-0.22812 0.0983,-0.0983 0.047,0.11746 0.0412,0.25781 -0.0128,0.31189 -0.0541,0.0541 -0.0925,-0.042 -0.0855,-0.21358 z m -0.16272,-1.13906 c 0.008,-0.18957 0.0464,-0.22813 0.0983,-0.0983 0.047,0.11747 0.0412,0.25782 -0.0128,0.31189 -0.0541,0.0541 -0.0925,-0.042 -0.0855,-0.21357 z m -0.16273,-1.13907 c 0.008,-0.18957 0.0464,-0.22812 0.0983,-0.0983 0.047,0.11746 0.0412,0.25781 -0.0128,0.31188 -0.0541,0.0541 -0.0925,-0.042 -0.0855,-0.21357 z m -0.16272,-1.13907 c 0.008,-0.18956 0.0464,-0.22812 0.0983,-0.0983 0.047,0.11747 0.0412,0.25782 -0.0128,0.31189 -0.0541,0.0541 -0.0925,-0.042 -0.0855,-0.21358 z m -0.16272,-1.13906 c 0.008,-0.18957 0.0464,-0.22813 0.0983,-0.0983 0.047,0.11747 0.0412,0.25782 -0.0128,0.31189 -0.0541,0.0541 -0.0925,-0.042 -0.0855,-0.21357 z m -0.16273,-1.13907 c 0.008,-0.18956 0.0464,-0.22812 0.0983,-0.0983 0.047,0.11746 0.0412,0.25781 -0.0128,0.31189 -0.0541,0.0541 -0.0925,-0.042 -0.0855,-0.21358 z m -0.16272,-1.13906 c 0.008,-0.18957 0.0464,-0.22813 0.0983,-0.0983 0.047,0.11747 0.0412,0.25782 -0.0128,0.31189 -0.0541,0.0541 -0.0925,-0.042 -0.0855,-0.21357 z m -0.16273,-1.13907 c 0.008,-0.18957 0.0464,-0.22812 0.0983,-0.0983 0.047,0.11746 0.0412,0.25781 -0.0128,0.31188 -0.0541,0.0541 -0.0925,-0.042 -0.0855,-0.21357 z m -0.16272,-1.13907 c 0.008,-0.18956 0.0464,-0.22812 0.0983,-0.0983 0.047,0.11747 0.0412,0.25782 -0.0128,0.31189 -0.0541,0.0541 -0.0925,-0.042 -0.0855,-0.21358 z m -0.16272,-1.13906 c 0.008,-0.18957 0.0464,-0.22812 0.0983,-0.0983 0.047,0.11747 0.0412,0.25782 -0.0128,0.31189 -0.0541,0.0541 -0.0925,-0.042 -0.0855,-0.21357 z m -0.16273,-1.13907 c 0.008,-0.18956 0.0464,-0.22812 0.0983,-0.0983 0.047,0.11746 0.0412,0.25781 -0.0128,0.31189 -0.0541,0.0541 -0.0925,-0.042 -0.0855,-0.21358 z m -0.16272,-1.13906 c 0.008,-0.18957 0.0464,-0.22813 0.0983,-0.0983 0.047,0.11747 0.0412,0.25782 -0.0128,0.31189 -0.0541,0.0541 -0.0925,-0.042 -0.0855,-0.21357 z m -0.16272,-1.13907 c 0.008,-0.18957 0.0464,-0.22812 0.0983,-0.0983 0.047,0.11746 0.0412,0.25781 -0.0128,0.31188 -0.0541,0.0541 -0.0925,-0.042 -0.0855,-0.21357 z m -0.16273,-1.13907 c 0.008,-0.18956 0.0464,-0.22812 0.0983,-0.0983 0.047,0.11747 0.0412,0.25782 -0.0128,0.31189 -0.0541,0.0541 -0.0925,-0.042 -0.0855,-0.21358 z m -0.16272,-1.13906 c 0.008,-0.18957 0.0464,-0.22812 0.0983,-0.0983 0.047,0.11746 0.0412,0.25781 -0.0128,0.31188 -0.0541,0.0541 -0.0925,-0.042 -0.0855,-0.21357 z m -0.16273,-1.13907 c 0.008,-0.18956 0.0464,-0.22812 0.0983,-0.0983 0.047,0.11746 0.0412,0.25782 -0.0128,0.31189 -0.0541,0.0541 -0.0925,-0.042 -0.0855,-0.21358 z m -0.16272,-1.13906 c 0.008,-0.18957 0.0464,-0.22813 0.0983,-0.0983 0.047,0.11747 0.0412,0.25782 -0.0128,0.31189 -0.0541,0.0541 -0.0925,-0.042 -0.0855,-0.21357 z m -0.16272,-1.13907 c 0.008,-0.18956 0.0464,-0.22812 0.0983,-0.0983 0.047,0.11746 0.0412,0.25781 -0.0128,0.31188 -0.0541,0.0541 -0.0925,-0.042 -0.0855,-0.21357 z m -0.16273,-1.13907 c 0.008,-0.18956 0.0464,-0.22812 0.0983,-0.0983 0.047,0.11747 0.0412,0.25782 -0.0128,0.31189 -0.0541,0.0541 -0.0925,-0.042 -0.0855,-0.21358 z m -34.98559,-46.7017 c 0.008,-0.18956 0.0464,-0.22812 0.0983,-0.0983 0.047,0.11746 0.0412,0.25781 -0.0128,0.31189 -0.0541,0.0541 -0.0925,-0.042 -0.0855,-0.21358 z m -0.16273,-1.13907 c 0.008,-0.18956 0.0464,-0.22812 0.0983,-0.0983 0.047,0.11747 0.0412,0.25782 -0.0128,0.31189 -0.0541,0.0541 -0.0925,-0.042 -0.0855,-0.21358 z m -0.16272,-1.13906 c 0.008,-0.18957 0.0464,-0.22812 0.0983,-0.0983 0.047,0.11746 0.0412,0.25781 -0.0128,0.31188 -0.0541,0.0541 -0.0925,-0.042 -0.0855,-0.21357 z m -0.16272,-1.13907 c 0.008,-0.18956 0.0464,-0.22812 0.0983,-0.0983 0.047,0.11747 0.0412,0.25782 -0.0128,0.31189 -0.0541,0.0541 -0.0925,-0.042 -0.0855,-0.21358 z m -0.16273,-1.13906 c 0.008,-0.18957 0.0464,-0.22813 0.0983,-0.0983 0.047,0.11747 0.0412,0.25782 -0.0128,0.31189 -0.0541,0.0541 -0.0925,-0.042 -0.0855,-0.21357 z m -0.16272,-1.13907 c 0.008,-0.18956 0.0464,-0.22812 0.0983,-0.0983 0.047,0.11746 0.0412,0.25781 -0.0128,0.31189 -0.0541,0.0541 -0.0925,-0.042 -0.0855,-0.21358 z m -0.16272,-1.13907 c 0.008,-0.18956 0.0464,-0.22812 0.0983,-0.0983 0.047,0.11747 0.0412,0.25782 -0.0128,0.31189 -0.0541,0.0541 -0.0925,-0.042 -0.0855,-0.21358 z m -0.16273,-1.13906 c 0.008,-0.18957 0.0464,-0.22812 0.0983,-0.0983 0.047,0.11746 0.0412,0.25781 -0.0128,0.31188 -0.0541,0.0541 -0.0925,-0.042 -0.0855,-0.21357 z m -0.16272,-1.13907 c 0.008,-0.18956 0.0464,-0.22812 0.0983,-0.0983 0.047,0.11747 0.0412,0.25782 -0.0128,0.31189 -0.0541,0.0541 -0.0925,-0.042 -0.0855,-0.21358 z m -0.16273,-1.13906 c 0.008,-0.18957 0.0464,-0.22813 0.0983,-0.0983 0.047,0.11747 0.0412,0.25782 -0.0128,0.31189 -0.0541,0.0541 -0.0925,-0.042 -0.0855,-0.21357 z m -0.16272,-1.13907 c 0.008,-0.18956 0.0464,-0.22812 0.0983,-0.0983 0.047,0.11746 0.0412,0.25781 -0.0128,0.31189 -0.0541,0.0541 -0.0925,-0.042 -0.0855,-0.21358 z m -0.16272,-1.13906 c 0.008,-0.18957 0.0464,-0.228127 0.0983,-0.0983 0.047,0.11747 0.0412,0.25782 -0.0128,0.31189 -0.0541,0.0541 -0.0925,-0.042 -0.0855,-0.21357 z m -0.16273,-1.139071 c 0.008,-0.189565 0.0464,-0.228122 0.0983,-0.09831 0.047,0.117466 0.0412,0.257817 -0.0128,0.311888 -0.0541,0.05407 -0.0925,-0.04204 -0.0855,-0.213575 z m -0.16272,-1.139066 c 0.008,-0.189565 0.0464,-0.228122 0.0983,-0.09831 0.047,0.117466 0.0412,0.257815 -0.0128,0.311888 -0.0541,0.05407 -0.0925,-0.04204 -0.0855,-0.213575 z m -0.16272,-1.139066 c 0.008,-0.189565 0.0464,-0.228122 0.0983,-0.09831 0.047,0.117466 0.0412,0.257815 -0.0128,0.311888 -0.0541,0.05407 -0.0925,-0.04204 -0.0855,-0.213575 z m -0.16273,-1.139066 c 0.008,-0.189565 0.0464,-0.228122 0.0983,-0.09831 0.047,0.117465 0.0412,0.257814 -0.0128,0.311887 -0.0541,0.05407 -0.0925,-0.04204 -0.0855,-0.213575 z M 123.024,94.445155 c 0.008,-0.189565 0.0464,-0.228122 0.0983,-0.09831 0.047,0.117465 0.0412,0.257814 -0.0128,0.311887 -0.0541,0.05407 -0.0925,-0.04204 -0.0855,-0.213575 z m -0.16273,-1.139066 c 0.008,-0.189565 0.0464,-0.228122 0.0983,-0.09831 0.047,0.117465 0.0412,0.257814 -0.0128,0.311887 -0.0541,0.05407 -0.0925,-0.04204 -0.0855,-0.213575 z m -0.16272,-1.139066 c 0.008,-0.189565 0.0464,-0.228122 0.0983,-0.09831 0.047,0.117465 0.0412,0.257814 -0.0128,0.311887 -0.0541,0.05407 -0.0925,-0.04204 -0.0855,-0.213575 z m -0.16272,-1.139065 c 0.008,-0.189565 0.0464,-0.228123 0.0983,-0.09831 0.047,0.117465 0.0412,0.257814 -0.0128,0.311887 -0.0541,0.05407 -0.0925,-0.04204 -0.0855,-0.213574 z m -0.16273,-1.139066 c 0.008,-0.189565 0.0464,-0.228123 0.0983,-0.09831 0.047,0.117465 0.0412,0.257814 -0.0128,0.311887 -0.0541,0.05407 -0.0925,-0.04204 -0.0855,-0.213574 z m -0.16272,-1.139066 c 0.008,-0.189565 0.0464,-0.228123 0.0983,-0.09831 0.047,0.117465 0.0412,0.257814 -0.0128,0.311888 -0.0541,0.05407 -0.0925,-0.04204 -0.0855,-0.213575 z m -0.16272,-1.139066 c 0.008,-0.189565 0.0464,-0.228123 0.0983,-0.09831 0.047,0.117465 0.0412,0.257814 -0.0128,0.311888 -0.0541,0.05407 -0.0925,-0.04204 -0.0855,-0.213575 z m -0.16273,-1.139066 c 0.008,-0.189565 0.0464,-0.228123 0.0983,-0.09831 0.047,0.117465 0.0412,0.257815 -0.0128,0.311888 -0.0541,0.05407 -0.0925,-0.04204 -0.0855,-0.213575 z m -0.16272,-1.139066 c 0.008,-0.189565 0.0464,-0.228123 0.0983,-0.09831 0.047,0.117465 0.0412,0.257815 -0.0128,0.311888 -0.0541,0.05407 -0.0925,-0.04204 -0.0855,-0.213575 z m -0.16273,-1.139066 c 0.008,-0.189565 0.0464,-0.228122 0.0983,-0.09831 0.047,0.117465 0.0412,0.257815 -0.0128,0.311888 -0.0541,0.05407 -0.0925,-0.04204 -0.0855,-0.213575 z m -0.16272,-1.139066 c 0.008,-0.189565 0.0464,-0.228122 0.0983,-0.09831 0.047,0.117466 0.0412,0.257815 -0.0128,0.311888 -0.0541,0.05407 -0.0925,-0.04204 -0.0855,-0.213575 z m -0.16272,-1.139066 c 0.008,-0.189565 0.0464,-0.228122 0.0983,-0.09831 0.047,0.117466 0.0412,0.257815 -0.0128,0.311888 -0.0541,0.05407 -0.0925,-0.04204 -0.0855,-0.213575 z m -0.16273,-1.139066 c 0.008,-0.189565 0.0464,-0.228122 0.0983,-0.09831 0.047,0.117466 0.0412,0.257815 -0.0128,0.311888 -0.0541,0.05407 -0.0925,-0.04204 -0.0855,-0.213575 z m -0.16272,-1.139066 c 0.008,-0.189565 0.0464,-0.228122 0.0983,-0.09831 0.047,0.117466 0.0412,0.257815 -0.0128,0.311888 -0.0541,0.05407 -0.0925,-0.04204 -0.0855,-0.213575 z m -0.16272,-1.139066 c 0.008,-0.189565 0.0464,-0.228122 0.0983,-0.09831 0.047,0.117466 0.0412,0.257815 -0.0128,0.311888 -0.0541,0.05407 -0.0925,-0.04204 -0.0855,-0.213575 z m -0.16273,-1.139066 c 0.008,-0.189565 0.0464,-0.228122 0.0983,-0.09831 0.047,0.117466 0.0412,0.257815 -0.0128,0.311888 -0.0541,0.05407 -0.0925,-0.04204 -0.0855,-0.213575 z M 46.21841,76.057377 c 0.0078,-0.189565 0.04637,-0.228123 0.09831,-0.09831 0.04701,0.117465 0.04123,0.257814 -0.01284,0.311887 -0.05407,0.05407 -0.09253,-0.04204 -0.08547,-0.213574 z m 37.101005,0 c 0.0078,-0.189565 0.04637,-0.228123 0.09831,-0.09831 0.04701,0.117465 0.04123,0.257814 -0.01284,0.311887 -0.05407,0.05407 -0.09253,-0.04204 -0.08547,-0.213574 z m 37.142865,-1.044145 c 0,-0.671235 0.0287,-0.945831 0.0638,-0.610214 0.0351,0.335618 0.0351,0.884811 0,1.220428 -0.0351,0.335618 -0.0638,0.06102 -0.0638,-0.610214 z m 25.63488,-4.027411 c -0.20241,-0.258089 -0.19665,-0.263845 0.0614,-0.06144 0.15662,0.122831 0.28476,0.250976 0.28476,0.284767 0,0.133927 -0.13362,0.04773 -0.3462,-0.223329 z m 11.6555,-0.366129 c 0.16199,-0.178996 0.33114,-0.325447 0.37589,-0.325447 0.0448,0 -0.0512,0.146451 -0.21316,0.325447 -0.16199,0.178996 -0.33114,0.325448 -0.37589,0.325448 -0.0447,0 0.0512,-0.146452 0.21316,-0.325448 z m -35.55513,-0.569533 c 0.2102,-0.223745 0.41879,-0.406809 0.46354,-0.406809 0.0448,0 -0.0906,0.183064 -0.30081,0.406809 -0.2102,0.223745 -0.41879,0.406809 -0.46354,0.406809 -0.0448,0 0.0906,-0.183064 0.30081,-0.406809 z M 48.23961,69.806074 c 0.16199,-0.178996 0.331139,-0.325448 0.375888,-0.325448 0.04475,0 -0.05118,0.146452 -0.213165,0.325448 -0.161989,0.178996 -0.331139,0.325447 -0.375888,0.325447 -0.04475,0 0.05118,-0.146451 0.213165,-0.325447 z m 37.101004,0 c 0.16199,-0.178996 0.331139,-0.325448 0.375888,-0.325448 0.04475,0 -0.05118,0.146452 -0.213164,0.325448 -0.16199,0.178996 -0.33114,0.325447 -0.375889,0.325447 -0.04475,0 0.05118,-0.146451 0.213165,-0.325447 z m 96.967866,-0.04068 -0.30999,-0.366129 0.36613,0.309987 c 0.34406,0.291311 0.4402,0.42227 0.30999,0.42227 -0.0309,0 -0.19564,-0.164758 -0.36613,-0.366128 z m -55.58519,-1.534992 c 0.11746,-0.04701 0.25781,-0.04122 0.31188,0.01285 0.0541,0.05407 -0.042,0.09253 -0.21357,0.08547 -0.18957,-0.0078 -0.22812,-0.04637 -0.0983,-0.09831 z m 12.92636,-0.001 c 0.15662,-0.04093 0.41291,-0.04093 0.56953,0 0.15662,0.04093 0.0285,0.07442 -0.28476,0.07442 -0.31325,0 -0.44139,-0.03349 -0.28477,-0.07442 z M 53.324725,67.257451 c 0.111873,-0.04514 0.294937,-0.04514 0.40681,0 0.111872,0.04514 0.02034,0.08208 -0.203405,0.08208 -0.223745,0 -0.315277,-0.03693 -0.203405,-0.08208 z m 12.367002,0 c 0.111872,-0.04514 0.294937,-0.04514 0.406809,0 0.111873,0.04514 0.02034,0.08208 -0.203405,0.08208 -0.223745,0 -0.315277,-0.03693 -0.203404,-0.08208 z m 24.734003,0 c 0.111872,-0.04514 0.294936,-0.04514 0.406809,0 0.111872,0.04514 0.02034,0.08208 -0.203405,0.08208 -0.223745,0 -0.315277,-0.03693 -0.203404,-0.08208 z m 12.367,0 c 0.11187,-0.04514 0.29494,-0.04514 0.40681,0 0.11187,0.04514 0.0203,0.08208 -0.2034,0.08208 -0.22375,0 -0.31528,-0.03693 -0.20341,-0.08208 z m 24.734,0 c 0.11188,-0.04514 0.29494,-0.04514 0.40681,0 0.11188,0.04514 0.0203,0.08208 -0.2034,0.08208 -0.22375,0 -0.31528,-0.03693 -0.20341,-0.08208 z m 12.36701,0 c 0.11187,-0.04514 0.29493,-0.04514 0.4068,0 0.11188,0.04514 0.0203,0.08208 -0.2034,0.08208 -0.22375,0 -0.31528,-0.03693 -0.2034,-0.08208 z m 25.87306,0 c 0.11188,-0.04514 0.29494,-0.04514 0.40681,0 0.11188,0.04514 0.0203,0.08208 -0.2034,0.08208 -0.22375,0 -0.31528,-0.03693 -0.20341,-0.08208 z m 10.91266,-0.0034 c 0.11747,-0.04701 0.25782,-0.04123 0.31189,0.01285 0.0541,0.05407 -0.042,0.09253 -0.21357,0.08546 -0.18957,-0.0078 -0.22813,-0.04637 -0.0983,-0.09831 z"
         id="path1322" />
      <path
         style="fill:#000000;stroke-width:0.162724"
         d="m 32.174846,204.70295 c -2.691655,-0.32949 -4.393617,-1.8291 -5.083963,-4.47951 -0.599135,-2.30024 -0.863175,-0.24975 8.223363,-63.86122 4.660043,-32.62322 8.573995,-59.796792 8.697673,-60.38572 0.310835,-1.480127 0.775621,-2.661001 1.568593,-3.985305 1.869893,-3.122809 3.638009,-4.242721 7.29011,-4.617497 2.159038,-0.221559 11.52298,-0.221559 13.682017,0 3.652101,0.374776 5.420218,1.494688 7.29011,4.617497 1.390414,2.32206 1.480128,2.734965 3.140354,14.453378 0.65618,4.631523 1.231742,8.420951 1.27903,8.420951 0.04729,0 0.622849,-3.789428 1.279029,-8.420951 1.660226,-11.718413 1.749941,-12.131318 3.140355,-14.453378 1.869892,-3.122809 3.638009,-4.242721 7.290109,-4.617497 2.159038,-0.221559 11.522984,-0.221559 13.682014,0 3.6521,0.374776 5.42022,1.494688 7.29011,4.617497 1.39042,2.32206 1.48013,2.734965 3.14036,14.453378 0.65618,4.631523 1.23174,8.420951 1.27903,8.420951 0.0473,0 0.62285,-3.789428 1.27903,-8.420951 1.66022,-11.718413 1.74994,-12.131318 3.14035,-14.453378 1.86989,-3.122809 3.63801,-4.242721 7.29011,-4.617497 2.15904,-0.221559 11.52298,-0.221559 13.68202,0 3.6521,0.374776 5.42022,1.494688 7.29011,4.617497 1.39041,2.32206 1.48013,2.734965 3.14035,14.453378 0.65618,4.631523 1.2309,8.420951 1.27716,8.420951 0.0463,0 0.68552,-4.192169 1.42058,-9.315932 0.73506,-5.123762 1.44954,-9.755286 1.58774,-10.292274 0.13819,-0.536988 0.54009,-1.562148 0.8931,-2.278132 1.72118,-3.490951 4.45129,-5.223919 8.84207,-5.612605 2.35655,-0.20861 10.08121,-0.208043 12.44178,9.11e-4 5.4621,0.483499 7.95014,3.257684 7.63516,8.513247 -0.13872,2.314517 -16.94337,119.663941 -17.36223,121.243031 -0.56543,2.13168 -1.96161,5.02789 -2.89376,6.00277 -0.6897,0.7213 -2.24054,1.3966 -3.61277,1.57314 -0.67123,0.0864 -4.69864,0.15702 -8.9498,0.15702 -4.25116,0 -8.27857,-0.0707 -8.9498,-0.15702 -1.51081,-0.19437 -3.04003,-0.91333 -3.7765,-1.77551 -0.70064,-0.82024 -2.12481,-3.69071 -2.55221,-5.14406 -0.44713,-1.52046 -0.753,-3.39721 -2.07387,-12.72497 -0.61149,-4.31828 -1.15065,-7.85142 -1.19812,-7.85142 -0.0475,0 -0.58663,3.53314 -1.19812,7.85142 -1.32087,9.32776 -1.62674,11.20451 -2.07387,12.72497 -0.4274,1.45335 -1.85157,4.32382 -2.55221,5.14406 -0.73647,0.86218 -2.26569,1.58114 -3.7765,1.77552 -0.67123,0.0864 -4.69865,0.15701 -8.9498,0.15701 -4.25116,0 -8.27857,-0.0707 -8.94981,-0.15701 -1.5108,-0.19438 -3.04003,-0.91334 -3.77649,-1.77552 -0.70064,-0.82024 -2.12482,-3.69071 -2.55222,-5.14406 -0.447126,-1.52046 -0.752993,-3.39721 -2.073862,-12.72497 -0.611494,-4.31828 -1.15065,-7.85142 -1.198123,-7.85142 -0.04747,0 -0.586629,3.53314 -1.198123,7.85142 -1.320869,9.32776 -1.626736,11.20451 -2.073867,12.72497 -0.427397,1.45335 -1.851574,4.32382 -2.552212,5.14406 -0.736465,0.86218 -2.26569,1.58114 -3.776497,1.77552 -1.587405,0.20423 -16.312201,0.20423 -17.899607,0 -1.510806,-0.19438 -3.040032,-0.91334 -3.776496,-1.77552 -0.700638,-0.82024 -2.124816,-3.69071 -2.552213,-5.14406 -0.44713,-1.52046 -0.752997,-3.39721 -2.073866,-12.72497 -0.611495,-4.31828 -1.149732,-7.85142 -1.196083,-7.85142 -0.04635,0 -0.68548,4.19217 -1.42029,9.31593 -0.734808,5.12376 -1.489374,9.89562 -1.676812,10.60412 -0.894481,3.38104 -2.288997,5.47084 -4.402314,6.59723 -1.946488,1.03746 -1.87101,1.02996 -10.809041,1.07494 -4.474902,0.0225 -8.628567,-0.0193 -9.230368,-0.093 z m 18.017448,-1.03374 c 1.266428,-0.33829 2.10543,-0.83843 3.078567,-1.83515 1.056475,-1.08208 2.039956,-2.96401 2.519866,-4.82186 0.179614,-0.69534 1.038445,-6.26049 1.908514,-12.36701 L 59.281184,173.54244 52.40545,125.45758 C 48.623797,99.010911 45.487006,76.718541 45.434806,75.918982 c -0.104558,-1.601511 -0.204827,-1.536576 -0.611545,0.39604 -0.122425,0.581737 -4.042102,27.785068 -8.710391,60.451858 -8.140153,56.96146 -8.484825,59.4708 -8.415193,61.26547 0.08734,2.25094 0.446414,3.33929 1.444384,4.37788 0.659783,0.68664 1.353007,1.0797 2.337007,1.32511 0.268494,0.067 4.405745,0.12838 9.19389,0.13648 6.785493,0.0115 8.885177,-0.0332 9.519336,-0.20261 z m 38.66784,-0.21206 c 1.023244,-0.47804 2.024296,-1.56353 2.445327,-2.65157 0.266283,-0.68813 0.364666,-1.36473 0.415081,-2.85459 0.06373,-1.88335 -0.237336,-4.07302 -8.47956,-61.67228 -4.7001,-32.84578 -8.660323,-60.158957 -8.800498,-60.695945 -0.84123,-3.222632 -2.837339,-5.582029 -5.658156,-6.687923 -1.707368,-0.669371 -2.850852,-0.745164 -10.291125,-0.682123 -7.614569,0.06452 -7.440727,0.04476 -9.461208,1.075529 -1.899373,0.968988 -2.999597,3.597455 -2.766134,6.608374 0.179181,2.310859 17.01466,119.724068 17.360964,121.078028 0.696908,2.72473 2.39265,5.24866 4.122192,6.13545 1.459236,0.7482 1.631142,0.75933 11.247372,0.72833 8.969103,-0.0289 9.124382,-0.0349 9.865745,-0.38128 z m 37.101006,0 c 1.02324,-0.47804 2.02429,-1.56353 2.44533,-2.65157 0.26628,-0.68813 0.36466,-1.36473 0.41508,-2.85459 0.0637,-1.88335 -0.23734,-4.07302 -8.47956,-61.67228 -4.7001,-32.84578 -8.66033,-60.158957 -8.8005,-60.695945 -0.84123,-3.222632 -2.83734,-5.582029 -5.65816,-6.687923 -1.70737,-0.669371 -2.85085,-0.745164 -10.291123,-0.682123 -7.614569,0.06452 -7.440727,0.04476 -9.461208,1.075529 -1.899373,0.968988 -2.999597,3.597455 -2.766134,6.608374 0.179182,2.310859 17.014665,119.724068 17.360965,121.078028 0.69691,2.72473 2.39265,5.24866 4.12219,6.13545 1.45924,0.7482 1.63114,0.75933 11.24737,0.72833 8.96911,-0.0289 9.12439,-0.0349 9.86575,-0.38128 z m 36.61541,0.11333 c 2.24901,-0.69576 3.39385,-2.74523 3.39353,-6.07499 -1.6e-4,-1.60492 -16.89022,-120.078308 -17.39896,-122.042982 -0.91242,-3.523619 -3.2964,-5.986568 -6.68402,-6.90542 -0.93768,-0.254336 -1.89783,-0.28689 -8.46163,-0.28689 -7.18453,0 -7.43768,0.01065 -8.543,0.359366 -1.65029,0.520653 -2.57637,1.170272 -3.32955,2.335599 -0.85321,1.32008 -1.22772,2.965012 -1.08721,4.775274 0.17966,2.314549 17.01368,119.723413 17.37227,121.162853 0.8966,3.59914 2.97339,6.12186 5.55991,6.75378 0.62814,0.15346 3.09619,0.21203 9.4966,0.22534 8.16777,0.017 8.70531,1.7e-4 9.68206,-0.30193 z m -69.124021,-9.57227 c 0.217202,-1.40589 0.96485,-6.58358 1.661441,-11.50597 l 1.266528,-8.9498 -6.874888,-48.08486 C 85.724421,99.010911 82.587869,76.716341 82.535493,75.914092 c -0.09349,-1.43199 -0.09901,-1.447714 -0.302202,-0.8608 -0.304674,0.880027 -0.698013,3.383091 -2.192808,13.954179 l -1.346073,9.519337 6.943705,48.576002 c 3.819036,26.7168 6.948864,49.05063 6.955169,49.63073 l 0.01147,1.05473 0.226433,-0.61695 c 0.124538,-0.33932 0.404143,-1.76722 0.621346,-3.17311 z m 37.101001,0 c 0.2172,-1.40589 0.96485,-6.58358 1.66144,-11.50597 l 1.26653,-8.9498 -6.87489,-48.08486 c -3.78119,-26.446669 -6.91774,-48.741239 -6.97011,-49.543488 -0.0935,-1.43199 -0.099,-1.447714 -0.3022,-0.8608 -0.30468,0.880027 -0.69802,3.383091 -2.19281,13.954179 l -1.34608,9.519337 6.94371,48.576002 c 3.81904,26.7168 6.94886,49.05063 6.95517,49.63073 l 0.0115,1.05473 0.22643,-0.61695 c 0.12454,-0.33932 0.40415,-1.76722 0.62135,-3.17311 z m 36.63217,2.63878 c 0.28999,-1.13197 17.12528,-118.787313 17.27671,-120.740368 0.23347,-3.010919 -0.86675,-5.639386 -2.76613,-6.608374 -2.02049,-1.030773 -1.84663,-1.011011 -9.46121,-1.075529 -7.44027,-0.06304 -8.58376,0.01275 -10.29112,0.682123 -2.82116,1.106027 -4.81973,3.468674 -5.65733,6.687923 -0.13971,0.536988 -0.96004,5.919075 -1.82295,11.960193 l -1.56891,10.98385 6.94453,48.576002 c 3.8195,26.7168 6.94454,49.04452 6.94454,49.61717 0,0.57264 0.0344,1.00672 0.0765,0.96462 0.0421,-0.0421 0.1885,-0.51352 0.32533,-1.04761 z"
         id="path1320" />
      <path
         style="fill:#ffffff;fill-opacity:1;stroke:#ffffff;stroke-width:0.771491;stroke-linecap:round;stroke-linejoin:round;stroke-opacity:1;paint-order:markers stroke fill"
         d="m 119.51875,769.55421 c -4.03047,-0.68177 -6.28878,-1.95903 -9.36564,-5.29703 -5.70452,-6.18867 -6.16857,-14.08922 -2.45167,-41.74032 7.47708,-55.62422 61.5109,-432.95114 62.43658,-436.00475 0.65334,-2.15521 1.31062,-0.18734 2.11529,6.33309 1.43457,11.62473 6.23986,45.6782 28.99914,205.50705 l 22.48914,157.93176 -5.18663,35.9054 c -6.53482,45.23853 -7.85161,52.92214 -9.94525,58.03195 -4.4782,10.92967 -11.53668,17.69107 -20.17945,19.33013 -4.03049,0.76437 -64.39471,0.76674 -68.91151,0.003 z"
         id="path2246"
         transform="scale(0.26458333)" />
      <path
         style="fill:#ffffff;fill-opacity:1;stroke:#ffffff;stroke-width:0.771491;stroke-linecap:round;stroke-linejoin:round;stroke-opacity:1;paint-order:markers stroke fill"
         d="m 350.21472,742.56027 c -0.22988,-1.2376 -0.73269,-4.70931 -1.11737,-7.71491 -1.98523,-15.51122 -11.76977,-84.89164 -30.54264,-216.57235 l -20.83905,-146.17379 5.45058,-38.01974 c 2.99782,-20.91085 5.87997,-40.29384 6.40478,-43.0733 0.5248,-2.77947 0.95418,-5.18334 0.95418,-5.34195 0,-0.15861 0.25121,-0.13312 0.55824,0.0566 0.30703,0.18975 0.76044,2.15966 1.00756,4.37758 0.79961,7.17639 10.90596,78.75206 31.61532,223.90755 l 20.27101,142.08297 -5.85809,40.82474 c -3.22195,22.45361 -6.22449,42.41594 -6.67232,44.36074 l -0.81424,3.536 z"
         id="path2285"
         transform="scale(0.26458333)" />
      <path
         style="fill:#ffffff;fill-opacity:1;stroke:#ffffff;stroke-width:0.771491;stroke-linecap:round;stroke-linejoin:round;stroke-opacity:1;paint-order:markers stroke fill"
         d="m 490.29917,741.59591 c -0.22617,-1.4144 -1.14452,-8.06852 -2.04078,-14.78692 -2.58628,-19.38697 -13.08491,-93.67443 -32.39115,-229.19717 l -17.90531,-125.68878 5.64478,-39.21746 c 3.10462,-21.56961 5.96606,-40.93414 6.35875,-43.03228 0.39269,-2.09814 0.71398,-3.9234 0.71398,-4.05612 0,-0.13273 0.25549,-0.0834 0.56777,0.10958 0.31227,0.19299 0.76741,2.01825 1.01142,4.05612 1.08724,9.08011 12.22993,87.84101 31.31263,221.33003 l 20.63291,144.33315 -4.58676,32.46692 c -5.29583,37.48598 -7.64523,52.85531 -8.38375,54.84488 -0.45349,1.22169 -0.57811,1.06673 -0.93449,-1.16195 z"
         id="path2324"
         transform="scale(0.26458333)" />
      <path
         style="fill:#ffffff;fill-opacity:1;stroke:#ffffff;stroke-width:0.771491;stroke-linecap:round;stroke-linejoin:round;stroke-opacity:1;paint-order:markers stroke fill"
         d="m 630.43897,741.27445 c -0.22643,-1.5912 -1.71682,-12.44029 -3.31198,-24.1091 -4.13413,-30.24172 -28.8169,-204.3287 -39.7433,-280.30846 l -9.24546,-64.29094 2.16072,-15.10837 c 6.31076,-44.12666 9.4769,-65.18494 10.56355,-70.25915 2.96603,-13.85006 12.6052,-24.43372 25.25381,-27.72826 5.17064,-1.34678 23.84025,-1.84023 45.12101,-1.19258 l 18.00655,0.548 4.17382,1.9785 c 5.65963,2.68281 9.75248,6.77275 11.55109,11.54288 2.23034,5.91513 2.31316,11.70047 0.3717,25.96296 -2.6309,19.3272 -28.62671,202.00326 -41.21605,289.63065 -18.45047,128.42357 -22.14099,153.58985 -22.72144,154.94114 -0.45029,1.04829 -0.62837,0.75138 -0.96402,-1.60727 z"
         id="path2363"
         transform="scale(0.26458333)" />
    </g>
  </g>
</svg>
