<?xml version="1.0" encoding="UTF-8" standalone="no"?>
<!-- Created with Inkscape (http://www.inkscape.org/) -->

<svg
   width="128mm"
   height="128mm"
   viewBox="0 0 128 128.00002"
   version="1.1"
   id="svg1"
   xml:space="preserve"
   inkscape:version="1.3 (0e150ed6c4, 2023-07-21)"
   sodipodi:docname="homebudget-logo.svg"
   xmlns:inkscape="http://www.inkscape.org/namespaces/inkscape"
   xmlns:sodipodi="http://sodipodi.sourceforge.net/DTD/sodipodi-0.dtd"
   xmlns="http://www.w3.org/2000/svg"
   xmlns:svg="http://www.w3.org/2000/svg"><sodipodi:namedview
     id="namedview1"
     pagecolor="#ffffff"
     bordercolor="#000000"
     borderopacity="0.25"
     inkscape:showpageshadow="2"
     inkscape:pageopacity="0.0"
     inkscape:pagecheckerboard="0"
     inkscape:deskcolor="#d1d1d1"
     inkscape:document-units="mm"
     inkscape:zoom="1"
     inkscape:cx="227.5"
     inkscape:cy="30.5"
     inkscape:window-width="2560"
     inkscape:window-height="1371"
     inkscape:window-x="0"
     inkscape:window-y="0"
     inkscape:window-maximized="1"
     inkscape:current-layer="layer3" /><defs
     id="defs1"><inkscape:path-effect
       effect="fillet_chamfer"
       id="path-effect119074"
       is_visible="true"
       lpeversion="1"
       nodesatellites_param="F,0,0,1,0,0,0,1 @ F,0,0,1,0,0,0,1 @ F,0,0,1,0,0,0,1 @ F,0,0,1,0,0,0,1 @ F,0,0,1,0,0,0,1 @ F,0,0,1,0,0,0,1 @ F,0,0,1,0,0,0,1 @ F,0,0,1,0,0,0,1 @ F,0,0,1,0,0,0,1 @ F,0,0,1,0,0,0,1 @ F,0,0,1,0,0,0,1 @ F,0,0,1,0,0,0,1 @ F,0,0,1,0,0,0,1 @ F,0,0,1,0,0,0,1 @ F,0,0,1,0,0,0,1 @ F,0,0,1,0,0,0,1 @ F,0,0,1,0,0,0,1 @ F,0,0,1,0,0,0,1 @ F,0,0,1,0,0,0,1 @ F,0,0,1,0,0,0,1 @ F,0,0,1,0,0,0,1 @ F,0,0,1,0,0,0,1 @ F,0,0,1,0,0,0,1 @ F,0,0,1,0,0,0,1 @ F,0,0,1,0,0,0,1 @ F,0,0,1,0,0,0,1 @ F,0,0,1,0,0,0,1 @ F,0,0,1,0,0,0,1 @ F,0,0,1,0,0,0,1 @ F,0,0,1,0,0,0,1 @ F,0,0,1,0,0,0,1 @ F,0,0,1,0,0,0,1 @ F,0,0,1,0,0,0,1 @ F,0,0,1,0,0,0,1 @ F,0,0,1,0,0,0,1 @ F,0,0,1,0,0,0,1 | F,0,0,1,0,0,0,1 @ F,0,0,1,0,0,0,1 @ F,0,0,1,0,0,0,1 @ F,0,0,1,0,0,0,1 @ F,0,0,1,0,0,0,1 @ F,0,0,1,0,0,0,1 @ F,0,0,1,0,0,0,1 @ F,0,0,1,0,0,0,1 @ F,0,0,1,0,0,0,1 @ F,0,0,1,0,0,0,1 @ F,0,0,1,0,0,0,1 @ F,0,1,1,0,0,0,1 @ F,0,0,1,0,0,0,1 @ F,0,0,1,0,0,0,1 @ F,0,0,1,0,0,0,1 @ F,0,0,1,0,0,0,1 @ F,0,0,1,0,0,0,1 @ F,0,0,1,0,0,0,1 @ F,0,0,1,0,0,0,1 @ F,0,0,1,0,0,0,1 @ F,0,0,1,0,0,0,1 @ F,0,0,1,0,0,0,1 @ F,0,0,1,0,0,0,1 @ F,0,0,1,0,0,0,1 | F,0,0,1,0,0,0,1 @ F,0,0,1,0,0,0,1 @ F,0,0,1,0,0,0,1 @ F,0,0,1,0,0,0,1 @ F,0,0,1,0,0,0,1 @ F,0,0,1,0,0,0,1 @ F,0,0,1,0,0,0,1 @ F,0,0,1,0,0,0,1 @ F,0,0,1,0,0,0,1 @ F,0,0,1,0,0,0,1 @ F,0,0,1,0,0,0,1 @ F,0,0,1,0,0,0,1 @ F,0,0,1,0,0,0,1 | F,0,0,1,0,0,0,1 @ F,0,0,1,0,0,0,1 @ F,0,0,1,0,0,0,1 @ F,0,0,1,0,0,0,1 @ F,0,0,1,0,0,0,1 @ F,0,0,1,0,0,0,1 @ F,0,0,1,0,0.1879424,0,1 @ F,0,0,1,0,0.33595441,0,1 @ F,0,0,1,0,0.33595441,0,1 @ F,0,0,1,0,0,0,1 @ F,0,0,1,0,0,0,1 @ F,0,0,1,0,0,0,1 @ F,0,0,1,0,0,0,1 @ F,0,0,1,0,0,0,1 @ F,0,0,1,0,0,0,1 @ F,0,0,1,0,0,0,1 @ F,0,0,1,0,0,0,1 @ F,0,0,1,0,0,0,1 @ F,0,0,1,0,0,0,1 @ F,0,0,1,0,0,0,1 @ F,0,0,1,0,0,0,1 @ F,0,0,1,0,0,0,1 @ F,0,0,1,0,0,0,1 @ F,0,0,1,0,0,0,1 | F,0,0,1,0,0,0,1 @ F,0,0,1,0,0,0,1 @ F,0,0,1,0,0,0,1 @ F,0,0,1,0,0.075742253,0,1 @ F,0,0,1,0,0.075742253,0,1 @ F,0,0,1,0,0,0,1 @ F,0,0,1,0,0,0,1 @ F,0,0,1,0,0,0,1 @ F,0,0,1,0,0,0,1 @ F,0,0,1,0,0,0,1 @ F,0,0,1,0,0,0,1 @ F,0,0,1,0,0,0,1 | F,0,0,1,0,0,0,1 @ F,0,0,1,0,0,0,1 @ F,0,0,1,0,0,0,1 @ F,0,0,1,0,0,0,1 @ F,0,0,1,0,0,0,1 @ F,0,0,1,0,0,0,1 @ F,0,0,1,0,0,0,1 @ F,0,0,1,0,0,0,1 @ F,0,0,1,0,0,0,1 @ F,0,0,1,0,0,0,1 @ F,0,0,1,0,0,0,1 @ F,0,0,1,0,0,0,1 @ F,0,0,1,0,0,0,1 @ F,0,0,1,0,0,0,1 @ F,0,0,1,0,0,0,1 @ F,0,0,1,0,0,0,1 @ F,0,0,1,0,0,0,1 @ F,0,0,1,0,0,0,1 @ F,0,0,1,0,0,0,1 @ F,0,0,1,0,0,0,1 @ F,0,0,1,0,0,0,1 @ F,0,0,1,0,0,0,1 @ F,0,0,1,0,0,0,1 @ F,0,0,1,0,0,0,1 @ F,0,0,1,0,0,0,1 @ F,0,0,1,0,0,0,1 @ F,0,0,1,0,0,0,1 @ F,0,0,1,0,0,0,1 @ F,0,0,1,0,0,0,1 @ F,0,0,1,0,0,0,1 @ F,0,0,1,0,0,0,1 @ F,0,0,1,0,0,0,1 @ F,0,0,1,0,0,0,1 @ F,0,0,1,0,0,0,1 @ F,0,0,1,0,0,0,1 @ F,0,0,1,0,0,0,1 @ F,0,0,1,0,0,0,1 @ F,0,0,1,0,0,0,1 @ F,0,0,1,0,0,0,1 @ F,0,0,1,0,0,0,1 @ F,0,0,1,0,0,0,1 @ F,0,0,1,0,0,0,1 @ F,0,0,1,0,0,0,1 @ F,0,0,1,0,0,0,1 @ F,0,0,1,0,0,0,1 @ F,0,0,1,0,0,0,1 @ F,0,0,1,0,0,0,1 @ F,0,0,1,0,0,0,1 @ F,0,0,1,0,0,0,1 @ F,0,0,1,0,0,0,1 @ F,0,0,1,0,0,0,1 @ F,0,0,1,0,0,0,1 @ F,0,0,1,0,0,0,1 @ F,0,0,1,0,0,0,1 @ F,0,0,1,0,0,0,1 @ F,0,0,1,0,0,0,1 @ F,0,0,1,0,0,0,1 @ F,0,0,1,0,0,0,1 @ F,0,0,1,0,0,0,1 @ F,0,0,1,0,0,0,1 @ F,0,0,1,0,0,0,1 @ F,0,0,1,0,0,0,1 @ F,0,0,1,0,0,0,1 @ F,0,0,1,0,0,0,1 @ F,0,0,1,0,0,0,1 @ F,0,0,1,0,0,0,1 @ F,0,0,1,0,0,0,1 @ F,0,0,1,0,0,0,1 @ F,0,0,1,0,0,0,1 @ F,0,0,1,0,0,0,1 @ F,0,0,1,0,0,0,1 @ F,0,0,1,0,0,0,1 @ F,0,0,1,0,0,0,1 @ F,0,0,1,0,0,0,1 @ F,0,0,1,0,0,0,1 @ F,0,0,1,0,0,0,1 @ F,0,0,1,0,0,0,1 @ F,0,0,1,0,0,0,1 @ F,0,0,1,0,0,0,1 @ F,0,0,1,0,0,0,1 @ F,0,0,1,0,0,0,1 @ F,0,0,1,0,0,0,1 @ F,0,0,1,0,0,0,1 @ F,0,0,1,0,0,0,1 @ F,0,0,1,0,0,0,1 @ F,0,0,1,0,0,0,1 @ F,0,0,1,0,0,0,1 @ F,0,0,1,0,0,0,1 @ F,0,0,1,0,0,0,1 @ F,0,0,1,0,0,0,1 @ F,0,0,1,0,0,0,1 @ F,0,0,1,0,0,0,1 @ F,0,0,1,0,0,0,1 @ F,0,0,1,0,0,0,1 @ F,0,0,1,0,0,0,1 @ F,0,0,1,0,0,0,1 | F,0,0,1,0,0,0,1 @ F,0,0,1,0,0,0,1 @ F,0,0,1,0,0,0,1 @ F,0,0,1,0,0,0,1 @ F,0,0,1,0,0,0,1 @ F,0,0,1,0,0,0,1 @ F,0,0,1,0,0,0,1 @ F,0,0,1,0,0,0,1 @ F,0,0,1,0,0,0,1 @ F,0,0,1,0,0,0,1 @ F,0,0,1,0,0,0,1 @ F,0,0,1,0,0,0,1 @ F,0,0,1,0,0,0,1 @ F,0,0,1,0,0,0,1 @ F,0,0,1,0,0,0,1 @ F,0,0,1,0,0,0,1 @ F,0,0,1,0,0,0,1 | F,0,0,1,0,0,0,1 @ F,0,0,1,0,0,0,1 @ F,0,0,1,0,0,0,1 @ F,0,0,1,0,0,0,1 @ F,0,0,1,0,0,0,1 @ F,0,0,1,0,0,0,1 @ F,0,0,1,0,0,0,1 @ F,0,0,1,0,0,0,1 @ F,0,0,1,0,0,0,1 @ F,0,0,1,0,0,0,1 @ F,0,0,1,0,0,0,1 @ F,0,0,1,0,0,0,1 @ F,0,0,1,0,0,0,1 @ F,0,0,1,0,0,0,1 @ F,0,0,1,0,0,0,1 | F,0,0,1,0,0,0,1 @ F,0,0,1,0,0,0,1 @ F,0,0,1,0,0,0,1 @ F,0,0,1,0,0,0,1 @ F,0,0,1,0,0,0,1 @ F,0,0,1,0,0,0,1 @ F,0,0,1,0,0,0,1 @ F,0,0,1,0,0,0,1 @ F,0,0,1,0,0,0,1 @ F,0,0,1,0,0,0,1 @ F,0,0,1,0,0,0,1 @ F,0,0,1,0,0,0,1 @ F,0,0,1,0,0,0,1 @ F,0,0,1,0,0,0,1 @ F,0,0,1,0,0,0,1 @ F,0,0,1,0,0,0,1 | F,0,0,1,0,0,0,1 @ F,0,0,1,0,0,0,1 @ F,0,0,1,0,0,0,1 @ F,0,0,1,0,0,0,1 @ F,0,0,1,0,0,0,1 @ F,0,0,1,0,0,0,1 @ F,0,0,1,0,0,0,1 @ F,0,0,1,0,0,0,1 @ F,0,0,1,0,0,0,1 @ F,0,0,1,0,0,0,1 @ F,0,0,1,0,0,0,1 @ F,0,0,1,0,0,0,1 @ F,0,0,1,0,0,0,1 @ F,0,0,1,0,0,0,1 @ F,0,0,1,0,0,0,1 | F,0,0,1,0,0,0,1 @ F,0,0,1,0,0,0,1 @ F,0,0,1,0,0,0,1 @ F,0,0,1,0,0,0,1 @ F,0,0,1,0,0,0,1 @ F,0,0,1,0,0,0,1 @ F,0,0,1,0,0,0,1 @ F,0,0,1,0,0,0,1 @ F,0,0,1,0,0,0,1 @ F,0,0,1,0,0,0,1 @ F,0,0,1,0,0,0,1 @ F,0,0,1,0,0,0,1 @ F,0,0,1,0,0,0,1 @ F,0,0,1,0,0,0,1 @ F,0,0,1,0,0,0,1 @ F,0,0,1,0,0,0,1 @ F,0,0,1,0,0,0,1 @ F,0,0,1,0,0,0,1 | F,0,0,1,0,0,0,1 @ F,0,0,1,0,0,0,1 @ F,0,0,1,0,0,0,1 @ F,0,0,1,0,0,0,1 @ F,0,0,1,0,0,0,1 @ F,0,0,1,0,0,0,1 @ F,0,0,1,0,0,0,1 @ F,0,0,1,0,0,0,1 @ F,0,0,1,0,0,0,1 @ F,0,0,1,0,0,0,1 @ F,0,0,1,0,0,0,1 @ F,0,0,1,0,0,0,1 | F,0,0,1,0,0,0,1 @ F,0,0,1,0,0,0,1 @ F,0,0,1,0,0,0,1 @ F,0,0,1,0,0,0,1 @ F,0,0,1,0,0,0,1 @ F,0,0,1,0,0,0,1 @ F,0,0,1,0,0,0,1 @ F,0,0,1,0,0,0,1 @ F,0,0,1,0,0,0,1 @ F,0,0,1,0,0,0,1 @ F,0,0,1,0,0,0,1 @ F,0,0,1,0,0,0,1 @ F,0,0,1,0,0,0,1 @ F,0,0,1,0,0,0,1 @ F,0,0,1,0,0,0,1 @ F,0,0,1,0,0,0,1 @ F,0,0,1,0,0,0,1 | F,0,0,1,0,0,0,1 @ F,0,0,1,0,0,0,1 @ F,0,0,1,0,0,0,1 @ F,0,0,1,0,0,0,1 @ F,0,0,1,0,0,0,1 @ F,0,0,1,0,0,0,1 @ F,0,0,1,0,0,0,1 @ F,0,0,1,0,0,0,1 @ F,0,0,1,0,0,0,1 @ F,0,0,1,0,0,0,1 @ F,0,0,1,0,0,0,1 @ F,0,0,1,0,0,0,1 @ F,0,0,1,0,0,0,1 @ F,0,0,1,0,0,0,1 @ F,0,0,1,0,0,0,1 @ F,0,0,1,0,0,0,1 @ F,0,0,1,0,0,0,1 | F,0,0,1,0,0,0,1 @ F,0,0,1,0,0,0,1 @ F,0,0,1,0,0,0,1 @ F,0,0,1,0,0,0,1 @ F,0,0,1,0,0,0,1 @ F,0,0,1,0,0,0,1 @ F,0,0,1,0,0,0,1 @ F,0,0,1,0,0,0,1 @ F,0,0,1,0,0,0,1 @ F,0,0,1,0,0,0,1 @ F,0,0,1,0,0,0,1 @ F,0,0,1,0,0,0,1 | F,0,0,1,0,0,0,1 @ F,0,0,1,0,0,0,1 @ F,0,0,1,0,0,0,1 @ F,0,0,1,0,0,0,1 @ F,0,0,1,0,0,0,1 @ F,0,0,1,0,0,0,1 @ F,0,0,1,0,0,0,1 @ F,0,0,1,0,0,0,1 @ F,0,0,1,0,0,0,1 | F,0,0,1,0,0,0,1 @ F,0,0,1,0,0,0,1 @ F,0,0,1,0,0,0,1 @ F,0,0,1,0,0,0,1 @ F,0,0,1,0,0,0,1 @ F,0,0,1,0,0,0,1 @ F,0,0,1,0,0,0,1 @ F,0,0,1,0,0,0,1 @ F,0,0,1,0,0,0,1 @ F,0,0,1,0,0,0,1 @ F,0,0,1,0,0,0,1 @ F,0,0,1,0,0,0,1 @ F,0,0,1,0,0,0,1 @ F,0,0,1,0,0,0,1 @ F,0,0,1,0,0,0,1 | F,0,0,1,0,0,0,1 @ F,0,0,1,0,0,0,1 @ F,0,0,1,0,0,0,1 @ F,0,0,1,0,0,0,1 @ F,0,0,1,0,0,0,1 @ F,0,0,1,0,0,0,1 @ F,0,0,1,0,0,0,1 @ F,0,0,1,0,0,0,1 @ F,0,0,1,0,0,0,1 @ F,0,0,1,0,0,0,1 @ F,0,0,1,0,0,0,1 @ F,0,0,1,0,0,0,1 @ F,0,0,1,0,0,0,1 @ F,0,0,1,0,0,0,1 @ F,0,0,1,0,0,0,1 @ F,0,0,1,0,0,0,1 | F,0,0,1,0,0,0,1 @ F,0,0,1,0,0,0,1 @ F,0,0,1,0,0,0,1 @ F,0,0,1,0,0,0,1 @ F,0,0,1,0,0,0,1 @ F,0,0,1,0,0,0,1 @ F,0,0,1,0,0,0,1 @ F,0,0,1,0,0,0,1 @ F,0,0,1,0,0,0,1 @ F,0,0,1,0,0,0,1 @ F,0,0,1,0,0,0,1 @ F,0,0,1,0,0,0,1 | F,0,0,1,0,0,0,1 @ F,0,0,1,0,0,0,1 @ F,0,0,1,0,0,0,1 @ F,0,0,1,0,0,0,1 @ F,0,0,1,0,0,0,1 @ F,0,0,1,0,0,0,1 @ F,0,0,1,0,0,0,1 @ F,0,0,1,0,0,0,1 @ F,0,0,1,0,0,0,1 @ F,0,0,1,0,0,0,1 @ F,0,0,1,0,0,0,1 @ F,0,0,1,0,0,0,1 @ F,0,0,1,0,0,0,1 @ F,0,0,1,0,0,0,1 | F,0,0,1,0,0,0,1 @ F,0,0,1,0,0,0,1 @ F,0,0,1,0,0,0,1 @ F,0,0,1,0,0,0,1 @ F,0,0,1,0,0,0,1 @ F,0,0,1,0,0,0,1 @ F,0,0,1,0,0,0,1 @ F,0,0,1,0,0,0,1 @ F,0,0,1,0,0,0,1 @ F,0,0,1,0,0,0,1 @ F,0,0,1,0,0,0,1 @ F,0,0,1,0,0,0,1 @ F,0,0,1,0,0,0,1 @ F,0,0,1,0,0,0,1 | F,0,0,1,0,0,0,1 @ F,0,0,1,0,0,0,1 @ F,0,0,1,0,0,0,1 @ F,0,0,1,0,0,0,1 @ F,0,0,1,0,0,0,1 @ F,0,0,1,0,0,0,1 @ F,0,0,1,0,0,0,1 @ F,0,0,1,0,0,0,1 @ F,0,0,1,0,0,0,1 | F,0,0,1,0,0,0,1 @ F,0,0,1,0,0,0,1 @ F,0,0,1,0,0,0,1 @ F,0,0,1,0,0,0,1 @ F,0,0,1,0,0,0,1 @ F,0,0,1,0,0,0,1 @ F,0,0,1,0,0,0,1 @ F,0,0,1,0,0,0,1 @ F,0,0,1,0,0,0,1 @ F,0,0,1,0,0,0,1 @ F,0,0,1,0,0,0,1 @ F,0,0,1,0,0,0,1 @ F,0,0,1,0,0,0,1 @ F,0,0,1,0,0,0,1 @ F,0,0,1,0,0,0,1 @ F,0,0,1,0,0,0,1 @ F,0,0,1,0,0,0,1 @ F,0,0,1,0,0,0,1 | F,0,0,1,0,0,0,1 @ F,0,0,1,0,0,0,1 @ F,0,0,1,0,0,0,1 @ F,0,0,1,0,0,0,1 @ F,0,0,1,0,0,0,1 @ F,0,0,1,0,0,0,1 @ F,0,0,1,0,0,0,1 @ F,0,0,1,0,0,0,1 @ F,0,0,1,0,0,0,1 @ F,0,0,1,0,0,0,1 @ F,0,0,1,0,0,0,1 @ F,0,0,1,0,0,0,1 @ F,0,0,1,0,0,0,1 @ F,0,0,1,0,0,0,1 @ F,0,0,1,0,0,0,1 | F,0,0,1,0,0,0,1 @ F,0,0,1,0,0,0,1 @ F,0,0,1,0,0,0,1 @ F,0,0,1,0,0,0,1 @ F,0,0,1,0,0,0,1 @ F,0,0,1,0,0,0,1 @ F,0,0,1,0,0,0,1 @ F,0,0,1,0,0,0,1 @ F,0,0,1,0,0,0,1 @ F,0,0,1,0,0,0,1 @ F,0,0,1,0,0,0,1 @ F,0,0,1,0,0,0,1 @ F,0,0,1,0,0,0,1 @ F,0,0,1,0,0,0,1 @ F,0,0,1,0,0,0,1 @ F,0,0,1,0,0,0,1 | F,0,0,1,0,0,0,1 @ F,0,0,1,0,0,0,1 @ F,0,0,1,0,0,0,1 @ F,0,0,1,0,0,0,1 @ F,0,0,1,0,0,0,1 @ F,0,0,1,0,0,0,1 @ F,0,0,1,0,0,0,1 @ F,0,0,1,0,0,0,1 @ F,0,0,1,0,0,0,1 @ F,0,0,1,0,0,0,1 @ F,0,0,1,0,0,0,1 @ F,0,0,1,0,0,0,1 @ F,0,0,1,0,0,0,1 @ F,0,0,1,0,0,0,1 @ F,0,0,1,0,0,0,1 @ F,0,0,1,0,0,0,1 @ F,0,0,1,0,0,0,1 | F,0,0,1,0,0,0,1 @ F,0,0,1,0,0,0,1 @ F,0,0,1,0,0,0,1 @ F,0,0,1,0,0,0,1 @ F,0,0,1,0,0,0,1 @ F,0,0,1,0,0,0,1 @ F,0,0,1,0,0,0,1 @ F,0,0,1,0,0,0,1 | F,0,0,1,0,0,0,1 @ F,0,0,1,0,0,0,1 @ F,0,0,1,0,0,0,1 @ F,0,0,1,0,0,0,1 @ F,0,0,1,0,0,0,1 @ F,0,0,1,0,0,0,1 | F,0,0,1,0,0,0,1 @ F,0,0,1,0,0,0,1 @ F,0,0,1,0,0,0,1 @ F,0,0,1,0,0,0,1 @ F,0,0,1,0,0,0,1 @ F,0,0,1,0,0,0,1 @ F,0,0,1,0,0,0,1 @ F,0,0,1,0,0,0,1 @ F,0,0,1,0,0,0,1 @ F,0,0,1,0,0,0,1 @ F,0,0,1,0,0,0,1 @ F,0,0,1,0,0,0,1 @ F,0,0,1,0,0,0,1 @ F,0,0,1,0,0,0,1 @ F,0,0,1,0,0,0,1 @ F,0,0,1,0,0,0,1 @ F,0,0,1,0,0,0,1 | F,0,0,1,0,0,0,1 @ F,0,0,1,0,0,0,1 @ F,0,0,1,0,0,0,1 @ F,0,0,1,0,0,0,1 @ F,0,0,1,0,0,0,1 @ F,0,0,1,0,0,0,1 @ F,0,0,1,0,0,0,1 | F,0,0,1,0,0,0,1 @ F,0,0,1,0,0,0,1 @ F,0,0,1,0,0,0,1 @ F,0,0,1,0,0,0,1 @ F,0,0,1,0,0,0,1 @ F,0,0,1,0,0,0,1 @ F,0,0,1,0,0,0,1 | F,0,0,1,0,0,0,1 @ F,0,0,1,0,0,0,1 @ F,0,0,1,0,0,0,1 @ F,0,0,1,0,0,0,1 @ F,0,0,1,0,0,0,1 @ F,0,0,1,0,0,0,1 @ F,0,0,1,0,0,0,1 @ F,0,0,1,0,0,0,1 @ F,0,0,1,0,0,0,1 @ F,0,0,1,0,0,0,1 @ F,0,0,1,0,0,0,1 @ F,0,0,1,0,0,0,1 @ F,0,0,1,0,0,0,1 | F,0,0,1,0,0,0,1 @ F,0,0,1,0,0,0,1 @ F,0,0,1,0,0,0,1 @ F,0,0,1,0,0,0,1 @ F,0,0,1,0,0,0,1 @ F,0,0,1,0,0,0,1 @ F,0,0,1,0,0,0,1 @ F,0,0,1,0,0,0,1 @ F,0,0,1,0,0,0,1 @ F,0,0,1,0,0,0,1 @ F,0,0,1,0,0,0,1 @ F,0,0,1,0,0,0,1 @ F,0,0,1,0,0,0,1 @ F,0,0,1,0,0,0,1 @ F,0,0,1,0,0,0,1 @ F,0,0,1,0,0,0,1 | F,0,0,1,0,0,0,1 @ F,0,0,1,0,0,0,1 @ F,0,0,1,0,0,0,1 @ F,0,0,1,0,0,0,1 @ F,0,0,1,0,0,0,1 @ F,0,0,1,0,0,0,1 @ F,0,0,1,0,0,0,1 @ F,0,0,1,0,0,0,1 @ F,0,0,1,0,0,0,1 @ F,0,0,1,0,0,0,1 @ F,0,0,1,0,0,0,1 @ F,0,0,1,0,0,0,1 @ F,0,0,1,0,0,0,1 @ F,0,0,1,0,0,0,1 @ F,0,0,1,0,0,0,1 @ F,0,0,1,0,0,0,1 | F,0,0,1,0,0,0,1 @ F,0,0,1,0,0,0,1 @ F,0,0,1,0,0,0,1 @ F,0,0,1,0,0,0,1 @ F,0,0,1,0,0,0,1 @ F,0,0,1,0,0,0,1 @ F,0,0,1,0,0,0,1 @ F,0,0,1,0,0,0,1 @ F,0,0,1,0,0,0,1 @ F,0,0,1,0,0,0,1 @ F,0,0,1,0,0,0,1 @ F,0,0,1,0,0,0,1 @ F,0,0,1,0,0,0,1 @ F,0,0,1,0,0,0,1 @ F,0,0,1,0,0,0,1 @ F,0,0,1,0,0,0,1 @ F,0,0,1,0,0,0,1 | F,0,0,1,0,0,0,1 @ F,0,0,1,0,0,0,1 @ F,0,0,1,0,0,0,1 @ F,0,0,1,0,0,0,1 @ F,0,0,1,0,0,0,1 @ F,0,0,1,0,0,0,1 @ F,0,0,1,0,0,0,1 @ F,0,0,1,0,0,0,1 @ F,0,0,1,0,0,0,1 @ F,0,0,1,0,0,0,1 @ F,0,0,1,0,0,0,1 @ F,0,0,1,0,0,0,1 @ F,0,0,1,0,0,0,1 @ F,0,0,1,0,0,0,1 @ F,0,0,1,0,0,0,1 @ F,0,0,1,0,0,0,1 | F,0,0,1,0,0,0,1 @ F,0,0,1,0,0,0,1 @ F,0,0,1,0,0,0,1 @ F,0,0,1,0,0,0,1 @ F,0,0,1,0,0,0,1 @ F,0,0,1,0,0,0,1 @ F,0,0,1,0,0,0,1 @ F,0,0,1,0,0,0,1 @ F,0,0,1,0,0,0,1 | F,0,0,1,0,0,0,1 @ F,0,0,1,0,0,0,1 @ F,0,0,1,0,0,0,1 @ F,0,0,1,0,0,0,1 @ F,0,0,1,0,0,0,1 @ F,0,0,1,0,0,0,1 @ F,0,0,1,0,0,0,1 @ F,0,0,1,0,0,0,1 @ F,0,0,1,0,0,0,1 @ F,0,0,1,0,0,0,1 @ F,0,0,1,0,0,0,1 @ F,0,0,1,0,0,0,1 @ F,0,0,1,0,0,0,1 @ F,0,0,1,0,0,0,1 @ F,0,0,1,0,0,0,1 @ F,0,0,1,0,0,0,1 @ F,0,0,1,0,0,0,1 | F,0,0,1,0,0,0,1 @ F,0,0,1,0,0,0,1 @ F,0,0,1,0,0,0,1 @ F,0,0,1,0,0,0,1 @ F,0,0,1,0,0,0,1 @ F,0,0,1,0,0,0,1 @ F,0,0,1,0,0,0,1 @ F,0,0,1,0,0,0,1 @ F,0,0,1,0,0,0,1 @ F,0,0,1,0,0,0,1 @ F,0,0,1,0,0,0,1 | F,0,0,1,0,0,0,1 @ F,0,0,1,0,0,0,1 @ F,0,0,1,0,0,0,1 @ F,0,0,1,0,0,0,1 @ F,0,0,1,0,0,0,1 @ F,0,0,1,0,0,0,1 @ F,0,0,1,0,0,0,1 @ F,0,0,1,0,0,0,1 @ F,0,0,1,0,0,0,1 @ F,0,0,1,0,0,0,1 @ F,0,0,1,0,0,0,1 @ F,0,0,1,0,0,0,1 @ F,0,0,1,0,0,0,1 @ F,0,0,1,0,0,0,1 | F,0,0,1,0,0,0,1 @ F,0,0,1,0,0,0,1 @ F,0,0,1,0,0,0,1 @ F,0,0,1,0,0,0,1 @ F,0,0,1,0,0,0,1 @ F,0,0,1,0,0,0,1 @ F,0,0,1,0,0,0,1 @ F,0,0,1,0,0,0,1 @ F,0,0,1,0,0,0,1 @ F,0,0,1,0,0,0,1 @ F,0,0,1,0,0,0,1 @ F,0,0,1,0,0,0,1 @ F,0,0,1,0,0,0,1 @ F,0,0,1,0,0,0,1 @ F,0,0,1,0,0,0,1 | F,0,0,1,0,0,0,1 @ F,0,0,1,0,0,0,1 @ F,0,0,1,0,0,0,1 @ F,0,0,1,0,0,0,1 @ F,0,0,1,0,0,0,1 @ F,0,0,1,0,0,0,1 @ F,0,0,1,0,0,0,1 @ F,0,0,1,0,0,0,1 @ F,0,0,1,0,0,0,1 @ F,0,0,1,0,0,0,1 @ F,0,0,1,0,0,0,1 @ F,0,0,1,0,0,0,1 @ F,0,0,1,0,0,0,1 @ F,0,0,1,0,0,0,1 @ F,0,0,1,0,0,0,1 @ F,0,0,1,0,0,0,1 @ F,0,0,1,0,0,0,1 | F,0,0,1,0,0,0,1 @ F,0,0,1,0,0,0,1 @ F,0,0,1,0,0,0,1 @ F,0,0,1,0,0,0,1 @ F,0,0,1,0,0,0,1 @ F,0,0,1,0,0,0,1 @ F,0,0,1,0,0,0,1 @ F,0,0,1,0,0,0,1 @ F,0,0,1,0,0,0,1 @ F,0,0,1,0,0,0,1 @ F,0,0,1,0,0,0,1"
       radius="0"
       unit="px"
       method="auto"
       mode="F"
       chamfer_steps="1"
       flexible="false"
       use_knot_distance="true"
       apply_no_radius="true"
       apply_with_radius="true"
       only_selected="false"
       hide_knots="false" /></defs><g
     inkscape:groupmode="layer"
     id="layer3"
     inkscape:label="Layer 1"
     transform="translate(-59.489139,-83.26473)"><g
       id="g119074"
       transform="translate(10.89416,5.2134771)"><path
         style="fill:#aa8800;stroke-width:0.176777"
         d="m 430.81033,537.42774 c -2.2108,4.08603 -5.8088,7.21557 -9.33188,10.1284 -6.98093,5.36864 -15.2467,8.80808 -23.63588,11.32838 -9.2105,2.65112 -18.7621,4.12966 -28.30194,4.7659 -8.85431,0.28004 -17.76788,0.34414 -26.55075,-0.97984 -12.22414,-1.71699 -24.5036,-4.75032 -35.32696,-10.85419 -5.41998,-3.20523 -10.71347,-7.00438 -14.44873,-12.17135 -0.56801,-0.74725 -1.10611,-2.27728 -1.7807,-2.91211 -0.76353,0.50916 -0.0163,2.4729 -0.2512,3.32194 -0.14751,5.15393 -0.41135,10.38106 0.51376,15.47936 1.13808,4.31052 3.89557,7.9502 7.04206,11.01781 5.70623,5.98001 13.34782,9.57444 20.98762,12.40556 9.51883,3.51296 19.55171,5.42047 29.63425,6.35584 5.84439,0.62725 11.73481,0.2007 17.59782,0.18093 7.06795,-0.0677 14.11578,-0.85381 21.02411,-2.34897 10.32226,-2.16775 20.59517,-5.48402 29.50518,-11.24787 4.53461,-3.10548 8.65185,-6.98794 11.53648,-11.69495 1.93747,-3.21696 2.60202,-6.99759 2.55337,-10.70969 0.0354,-4.02368 0.33577,-8.49681 -0.0543,-12.48199 -0.0858,-0.20464 -0.61187,0.28313 -0.71228,0.41688 z"
         id="path119032"
         transform="scale(0.26458333)"
         sodipodi:nodetypes="sccccccccccccccccccss" /><path
         style="fill:#aa8800;stroke-width:0.176777"
         d="m 279.49362,556.357 c -0.20721,3.48068 -0.23915,7.00868 -0.2461,10.50115 0.16683,3.2721 -0.14444,6.70104 1.26106,9.76305 1.99555,5.09537 6.09798,8.98776 10.21597,12.42158 5.81918,4.53165 12.71679,7.44166 19.64492,9.82625 9.23443,3.11738 18.8968,4.76318 28.59251,5.55887 6.12491,0.56941 12.28637,0.10953 18.42215,-0.0198 6.53008,-0.0932 13.01989,-0.97573 19.39433,-2.36646 10.15254,-2.2604 20.27498,-5.53152 29.03469,-11.26616 3.94808,-2.7787 7.50387,-6.17576 10.3629,-10.07015 1.42465,-2.16174 2.91623,-5.07316 3.54388,-7.58344 -0.3504,-0.76339 -1.48576,0.74516 -1.96967,0.89443 -7.76272,4.79872 -16.47149,7.86617 -25.28111,10.09018 -10.93479,2.51813 -22.1674,3.66866 -33.38352,3.6233 -15.98179,-0.42686 -32.06063,-3.25068 -46.7913,-9.65314 -6.29288,-2.47363 -12.64684,-4.86671 -18.4193,-8.43354 -5.49514,-3.34316 -10.82119,-7.49899 -13.92635,-13.21746 -0.14491,-0.16067 -0.42585,-0.55933 -0.43773,-0.35984 z"
         id="path119033"
         transform="scale(0.26458333)"
         sodipodi:nodetypes="sccccccccccccccccss" /><path
         style="fill:#aa8800;stroke-width:0.176777"
         d="m 452.23829,577.83053 c -3.07923,5.29712 -7.89091,9.34457 -12.96823,12.67648 -10.75322,6.73497 -23.18926,10.20832 -35.61429,12.19449 -7.85872,1.23502 -15.79144,1.71408 -23.74401,1.72184 -5.17123,0.0676 -10.28788,0.81251 -15.40339,1.41974 -9.26878,0.96489 -18.63248,1.28031 -27.89777,0.16674 -6.4456,-0.62656 -12.87171,-1.50904 -19.19078,-2.96927 -0.77156,-0.17966 -0.59595,0.79568 -0.16677,1.08862 2.99648,3.23899 6.40236,6.11631 10.02489,8.63241 8.61465,5.37755 18.42335,8.54086 28.28487,10.72291 6.98409,1.49283 14.11275,2.21728 21.23188,2.66236 6.75122,-0.11504 13.51334,-0.18197 20.2497,-0.66634 9.51856,-1.01184 18.96477,-3.04129 27.96888,-6.31152 6.00693,-2.33307 11.99226,-5.07458 16.9961,-9.20153 2.90323,-2.71211 5.9702,-5.39298 8.07998,-8.80033 1.65048,-2.63041 2.66114,-5.63993 2.7535,-8.75424 0.31212,-4.85335 0.42562,-10.3305 0.0479,-15.1532 -0.0796,-0.20003 -0.55349,0.43946 -0.65245,0.57086 z"
         id="path119034"
         transform="scale(0.26458333)"
         sodipodi:nodetypes="sccccccccccccccccss" /><path
         style="fill:#aa8800;stroke-width:0.176777"
         d="m 296.11029,609.91585 c -0.0868,4.76965 -0.35543,9.5975 -0.13224,14.38175 -0.0161,4.99217 2.63014,9.53101 5.93099,13.1015 5.79499,6.57905 13.71892,10.81581 21.84097,13.82455 10.68991,4.03467 22.06679,5.9535 33.42046,6.84379 7.47922,0.0844 14.97209,0.0469 22.43918,-0.4281 10.2198,-0.99135 20.37566,-3.15694 29.97212,-6.84707 8.09463,-3.13017 15.88758,-7.62444 21.5301,-14.34202 2.92916,-3.32263 5.0415,-7.52001 5.1243,-12.01641 0.0701,-2.5626 0.39274,-5.40368 0.0959,-7.9468 -0.67266,-0.39547 -1.51775,0.69763 -2.2073,0.83988 -4.11542,2.0186 -8.54718,3.40184 -12.40743,5.92951 -8.18344,4.75192 -17.17563,7.97579 -26.40168,9.97459 -10.51233,2.2967 -21.2856,3.36329 -32.04812,3.10596 -10.77024,-0.13107 -21.54512,-1.64829 -31.94874,-4.45382 -11.0281,-3.0485 -21.93591,-7.88891 -30.19865,-16.01801 -1.80145,-1.76186 -3.23041,-3.74693 -4.55269,-5.89475 -0.14976,-0.15647 -0.44672,-0.6288 -0.45035,-0.42909 z"
         id="path119035"
         transform="scale(0.26458333)"
         sodipodi:nodetypes="sccccccccccccccccss" /><path
         style="fill:#aa8800;stroke-width:0.176777"
         d="m 559.39051,574.56811 c -8.41816,7.81308 -19.11933,12.68214 -30.11625,15.69031 -10.76545,2.8983 -21.90462,4.34816 -33.04723,4.52369 -8.23827,0.0681 -16.48272,-0.11381 -24.64969,-1.21871 -5.35404,-0.61736 -10.64418,-1.63275 -15.85911,-2.98216 -0.7666,0.20271 -0.49002,1.38071 -0.74752,1.97606 -0.44416,4.15788 -1.89049,8.12229 -4.3569,11.51283 -1.22069,1.87567 -2.92871,3.42194 -4.19707,5.21699 0.92703,0.71325 2.32031,0.79499 3.42478,1.26652 8.57865,2.83933 17.47571,4.64416 26.46895,5.49297 8.12275,0.99008 16.31981,0.41915 24.46725,0.13459 9.04432,-0.49255 17.99063,-2.3226 26.64487,-4.95299 9.62774,-3.06667 19.23022,-7.50979 26.13333,-15.10731 3.04401,-3.13524 5.62465,-6.9874 6.0936,-11.43453 0.41325,-3.32765 0.34378,-6.73772 0.16002,-10.05463 -0.0272,-0.15148 -0.3329,-0.15608 -0.41903,-0.0636 z"
         id="path119036"
         transform="scale(0.26458333)" /><path
         style="fill:#aa8800;stroke-width:0.176777"
         d="m 563.9729,544.53678 c -3.79168,6.50673 -10.12072,11.10866 -16.56211,14.79953 -9.81329,5.34784 -20.76124,8.18583 -31.71493,10.02224 -12.10177,1.99977 -24.48307,2.23531 -36.66644,0.77494 -7.47156,-0.92604 -14.94095,-1.94915 -22.43281,-2.75389 -1.01953,-0.37607 -1.89743,-0.0824 -1.51988,1.17637 -0.003,6.12637 -0.0226,12.25511 0.23098,18.37753 0.70323,0.70439 2.01192,0.62902 2.94622,1.03257 8.52545,2.49951 17.35121,3.78595 26.17222,4.66468 7.59381,0.0847 15.19939,0.10418 22.78486,-0.29112 9.75547,-0.85748 19.42787,-2.8998 28.67062,-6.14293 7.60079,-2.85953 15.21141,-6.42501 20.96343,-12.31172 3.91572,-3.80237 7.49265,-8.62983 7.6825,-14.29615 0.30001,-5.01059 0.31272,-10.08655 -0.078,-15.06728 -0.0835,-0.20494 -0.3751,-0.11731 -0.47663,0.0152 z"
         id="path119037"
         transform="scale(0.26458333)" /><path
         style="fill:#aa8800;stroke-width:0.176777"
         d="m 545.15999,522.37479 c -3.85487,1.89987 -7.2641,4.52338 -10.67652,7.10142 -9.21113,6.43659 -20.04267,10.10681 -30.93644,12.45519 -22.92982,4.8245 -47.10139,3.77874 -69.41212,-3.4979 -0.74006,0.18399 -0.32471,1.2528 -0.44643,1.81749 -0.18713,1.71552 1.68475,2.40594 2.86154,3.14823 6.58231,3.76873 12.76472,8.81437 16.21204,15.71094 1.05469,1.91734 1.4538,4.1131 2.38683,6.06841 2.02657,0.61536 4.23553,0.58141 6.33582,0.88636 7.30375,0.78648 14.67037,0.52518 21.99951,0.3558 11.33896,-0.36157 22.58676,-2.65465 33.28966,-6.37441 6.38463,-2.34516 12.76984,-5.15824 17.99599,-9.59857 2.80328,-2.66611 5.8183,-5.22946 7.95219,-8.49115 1.9942,-3.06291 2.8968,-6.69743 2.98001,-10.32591 0.12939,-3.06812 0.26393,-6.22136 -0.22271,-9.2345 -0.10277,0.0336 -0.22113,-0.1052 -0.31937,-0.0214 z"
         id="path119038"
         transform="scale(0.26458333)" /><path
         style="fill:#aa8800;stroke-width:0.176777"
         d="m 419.67927,484.8926 c -0.56276,2.55222 -0.18903,5.24618 -0.25624,7.8551 0.18511,3.68112 -0.13316,7.44788 0.76033,11.05414 1.10632,3.29459 4.06523,5.45609 6.25859,7.9928 2.11975,2.02061 3.54995,4.599 5.67142,6.6189 3.36311,2.86895 7.49398,4.62434 11.46369,6.4784 11.69861,5.02754 24.37709,7.4051 37.02457,8.34978 7.37965,0.10552 14.77259,0.0746 22.14181,-0.36625 8.71728,-0.77191 17.36154,-2.51345 25.69917,-5.17364 6.89098,-2.31493 13.68682,-5.27104 19.51991,-9.66981 3.55088,-2.91176 7.03545,-6.09823 9.4203,-10.06742 1.98657,-3.20834 2.59605,-7.01734 2.57551,-10.73558 -0.0344,-1.97901 0.15012,-4.01874 -0.091,-5.95761 -0.92116,0.0499 -1.53969,1.1998 -2.33487,1.69306 -6.3571,5.60688 -14.14578,9.34841 -22.08384,12.18445 -15.01953,5.07503 -31.00833,6.75383 -46.81284,6.50338 -17.07578,-0.41692 -34.50483,-3.08748 -49.94312,-10.73005 -5.06233,-2.49824 -9.80979,-5.70756 -13.74012,-9.76999 -1.95104,-1.78622 -3.56342,-3.86172 -4.8189,-6.18577 -0.143,-0.16257 -0.27208,-0.15553 -0.45437,-0.0739 z"
         id="path119039"
         transform="scale(0.26458333)" /><path
         style="fill:#aa8800;stroke-width:0.176777"
         d="m 563.95771,461.31916 c -3.34833,6.06805 -9.08567,10.29918 -14.8918,13.85638 -9.80709,5.82489 -21.01274,8.77291 -32.14485,10.78872 -7.42287,1.30196 -14.92556,1.94897 -22.46042,1.80718 -8.26378,0.0832 -16.48382,-0.80091 -24.65137,-2.035 -12.57097,-1.47271 -25.29693,-2.85934 -37.21246,-7.36691 -2.75763,-0.99758 -5.40603,-2.24126 -8.10003,-3.3892 -0.82591,0.0649 -0.25361,1.2245 -0.27539,1.73215 0.59982,4.68045 2.95713,8.96884 6.19805,12.34531 7.40221,7.93467 17.59399,12.56212 27.82408,15.66143 9.53204,2.87152 19.44696,4.26469 29.3601,4.90306 7.59236,-0.024 15.19694,-0.17982 22.76744,-0.77536 10.32702,-1.32804 20.61307,-3.62815 30.22588,-7.69846 8.35908,-3.5012 16.25916,-8.8519 21.27176,-16.54226 2.33671,-3.56369 2.92089,-7.90822 2.85377,-12.08417 0.0182,-3.73583 0.0826,-7.52281 -0.28893,-11.22062 -0.0834,-0.20307 -0.3762,-0.11499 -0.47583,0.0178 z"
         id="path119040"
         transform="scale(0.26458333)" /><path
         style="fill:#aa8800;stroke-width:0.176777"
         d="m 405.32686,434.85893 c -0.23322,2.82629 -0.0394,5.74577 -0.0985,8.60854 0.13689,4.04576 -0.37305,8.29697 1.34526,12.09954 2.00822,4.97815 6.08768,8.68693 10.02448,12.16134 6.81863,5.24363 14.96056,8.43975 23.11765,10.95381 7.78198,2.38083 15.84548,3.67045 23.93844,4.39141 5.92017,0.73757 11.89908,0.27469 17.84331,0.19844 8.78154,-0.0772 17.50242,-1.44469 26.00626,-3.58377 9.13978,-2.2884 18.16125,-5.72704 25.82393,-11.30492 5.01272,-3.78903 9.74426,-8.55541 11.6942,-14.67661 0.27181,-1.13486 0.67729,-2.27658 0.71677,-3.44577 -0.52931,-0.54259 -1.30571,0.37148 -1.90612,0.48444 -8.23943,4.04574 -17.06871,6.83584 -26.08295,8.5146 -11.90369,2.32891 -24.05425,2.52433 -36.14564,2.39724 -7.86788,-0.0557 -15.76728,-0.009 -23.56995,-1.12015 -13.78777,-1.79445 -27.6376,-5.35977 -39.48893,-12.87426 -4.99684,-3.3713 -9.78956,-7.42755 -12.7628,-12.73517 -0.14492,-0.16091 -0.274,-0.15239 -0.45541,-0.0687 z"
         id="path119041"
         transform="scale(0.26458333)" /><path
         style="fill:#aa8800;stroke-width:0.176777"
         d="m 561.719,411.23438 c -1.54136,2.71441 -3.40285,5.16385 -5.73075,7.23576 -6.95491,6.28478 -15.57436,10.51111 -24.41486,13.45678 -10.7159,3.35324 -21.91204,5.25688 -33.10989,5.95441 -4.1053,0.21662 -8.28269,-0.0548 -12.30369,1.02321 -10.08158,2.34063 -20.40875,3.50561 -30.73367,3.82268 -8.03881,0.14773 -16.01936,-0.82069 -23.98926,-1.7932 -0.43555,-0.15152 -1.41139,-0.004 -0.98908,0.63828 2.47351,2.46446 5.45022,4.39893 8.45628,6.15749 10.57144,5.85446 22.41713,9.11795 34.33385,10.79359 5.12573,0.672 10.27894,1.27114 15.4588,1.06564 8.4252,-0.11468 16.92464,0.078 25.23574,-1.54131 12.06256,-2.0961 24.18867,-5.51539 34.51308,-12.29802 4.72802,-3.353 9.19941,-7.42433 11.90889,-12.624 1.77808,-3.13869 1.89634,-6.80938 1.90135,-10.32171 -0.0151,-3.85151 0.11013,-7.74665 -0.0575,-11.57021 -0.0781,-0.21124 -0.37169,-0.12863 -0.47925,6.1e-4 z"
         id="path119042"
         transform="scale(0.26458333)" /><path
         style="fill:#aa8800;stroke-width:0.176777"
         d="m 383.93792,392.07414 c -0.23658,2.82654 -0.0378,5.74771 -0.10118,8.6113 0.0866,4.29537 -0.32604,8.83724 1.64694,12.81493 2.16635,4.66589 6.0289,8.2668 9.88292,11.55194 5.14894,4.02289 11.21728,6.66301 17.27352,9.00219 11.00677,4.04855 22.71705,5.81109 34.37313,6.61132 6.7276,0.0803 13.46156,-0.14654 20.17856,-0.5206 8.92728,-0.78993 17.76953,-2.63735 26.28772,-5.41988 6.82178,-2.34451 13.59662,-5.25279 19.29763,-9.74836 4.50122,-3.84627 9.18383,-8.19629 10.80413,-14.10101 0.63188,-2.2142 0.937,-4.59873 0.63239,-6.88149 -0.60138,-0.4964 -1.49299,0.23605 -2.17587,0.27518 -5.61165,1.83145 -11.27134,3.51642 -17.02615,4.88207 -7.78689,2.24746 -15.31855,5.39144 -23.30378,6.93339 -20.14374,4.04631 -41.21899,3.78128 -61.15405,-1.36872 -11.28829,-2.99035 -22.47508,-7.75839 -31.02977,-15.89652 -2.04385,-1.95759 -3.76757,-4.20318 -5.13108,-6.67496 -0.14416,-0.16169 -0.27326,-0.15369 -0.45506,-0.0708 z"
         id="path119043"
         transform="scale(0.26458333)" /><path
         style="fill:#aa8800;stroke-width:0.176777"
         d="m 547.35796,361.43307 c -2.57491,4.62335 -6.67584,8.14921 -10.87331,11.30502 -8.60141,6.05572 -18.72943,9.64176 -28.95282,11.97916 -21.06185,4.60894 -43.25889,4.43124 -64.10376,-1.16834 -11.18984,-3.01629 -22.24668,-7.896 -30.60511,-16.1189 -1.77847,-1.76381 -3.43039,-4.09279 -4.61709,-6.30155 -1.05902,-0.30519 -0.30458,2.08085 -0.54966,2.76214 -0.11495,4.72024 -0.34747,9.48059 0.24305,14.17737 0.54199,3.55721 2.30479,6.87595 4.59984,9.61403 3.94752,4.70753 8.83583,8.61176 14.36034,11.31405 13.66562,6.89022 28.97104,9.95308 44.16979,10.73743 6.96143,0.10011 13.93243,-0.10633 20.87909,-0.5647 10.91076,-1.13408 21.74327,-3.60223 31.88966,-7.81663 6.82185,-2.82739 13.29644,-6.77884 18.20044,-12.37477 3.24332,-3.48615 5.82691,-7.92495 5.9319,-12.79644 0.33715,-4.86035 0.19258,-10.07711 0.0853,-14.94098 -0.0385,-0.28484 -0.48624,-0.0372 -0.65762,0.19311 z"
         id="path119044"
         transform="scale(0.26458333)"
         sodipodi:nodetypes="scccccccccccccccss" /><path
         style="fill:#aa8800;stroke-width:0.176777"
         d="m 227.19327,413.69234 c -0.36173,3.77544 -0.32139,7.64181 -0.30629,11.45523 -0.0449,3.87978 0.43656,7.894 2.48976,11.273 4.07544,6.68101 10.40858,11.77219 17.39945,15.1631 11.40425,5.66818 23.9714,8.66571 36.60236,9.89266 7.19445,0.95009 14.47218,0.5174 21.70023,0.32566 10.33863,-0.27904 20.60229,-2.2121 30.45145,-5.32692 7.53577,-2.51119 15.03812,-5.6983 21.21066,-10.79996 4.03406,-3.61904 8.19576,-7.62851 9.80559,-12.96996 1.36901,-4.92085 0.79378,-10.10195 0.78967,-15.14116 -0.10269,-1.28521 0.17408,-2.93697 -0.1072,-4.17791 -0.82209,-0.0184 -1.08219,1.55805 -1.61538,2.10683 -4.20235,5.9185 -10.23164,10.3541 -16.61909,13.7064 -12.8797,6.59098 -27.29584,9.51848 -41.61101,10.68987 -16.25634,1.26031 -32.76158,-0.36321 -48.37773,-5.13666 -9.77127,-3.06187 -19.31484,-7.63957 -26.71253,-14.87265 -1.84011,-1.81851 -3.40256,-3.85158 -4.64522,-6.11434 -0.14334,-0.1623 -0.39734,-0.67206 -0.4164,-0.47319 z"
         id="path119045"
         transform="scale(0.26458333)"
         sodipodi:nodetypes="sccccccccccccccccss" /><path
         style="fill:#aa8800;stroke-width:0.176777"
         d="m 376.19013,444.64449 c -2.79795,4.95208 -7.21567,8.73201 -11.79229,11.97328 -12.43874,8.16253 -27.25632,11.86403 -41.89264,13.61694 -8.14784,1.06071 -16.39317,1.04335 -24.59573,0.71498 -14.78662,-1.11601 -29.68599,-4.00636 -42.99057,-10.80237 -4.88862,-2.39163 -9.19304,-5.78408 -13.46601,-9.12933 -1.57117,-1.0901 -3.08136,-2.41375 -4.85075,-3.11625 -0.46524,0.90137 -0.0924,2.13793 -0.22979,3.1685 0.0777,4.44701 -0.34197,9.06798 1.12127,13.34803 1.1888,3.43646 3.50108,6.30897 6.09313,8.79757 3.00349,3.16784 6.40456,5.97172 10.28217,8.00589 12.03506,6.51566 25.56275,9.83328 39.11245,11.20067 5.69729,0.70394 11.43929,0.52585 17.16197,0.38327 6.50299,-0.0447 13.02163,-0.39584 19.41574,-1.64951 11.96863,-2.16536 23.97938,-5.71069 34.14977,-12.57558 3.86665,-2.88444 7.48819,-6.2453 10.14624,-10.29842 1.65742,-2.67635 2.86868,-5.69653 2.89457,-8.88401 0.30609,-4.86313 0.0902,-9.73753 -0.004,-14.60382 -0.0383,-0.28595 -0.38396,-0.38045 -0.55588,-0.14984 z"
         id="path119046"
         transform="scale(0.26458333)" /><path
         style="fill:#aa8800;stroke-width:0.176777"
         d="m 374.00424,485.21612 c -1.03627,1.01451 -1.75884,2.38661 -2.68904,3.52083 -0.36282,0.64771 -1.05519,1.19962 -1.17588,1.94509 0.62913,0.58601 1.7064,0.38316 2.50975,0.61285 0.60209,0.0693 1.74848,0.41756 1.73669,-0.56762 0.0796,-1.76778 0.24095,-3.58323 0.0121,-5.33437 -0.0704,-0.13967 -0.2406,-0.22203 -0.39361,-0.17678 z"
         id="path119047"
         transform="scale(0.26458333)" /><path
         style="fill:#aa8800;stroke-width:0.176777"
         d="m 234.20564,484.86809 c -0.24627,2.97156 -0.0966,6.03373 -0.14968,9.04151 0.12929,4.00722 -0.36436,8.2538 1.47585,11.97247 2.75932,5.79049 7.68876,10.23467 12.88197,13.83926 10.12525,6.7587 22.15934,9.72315 33.9245,12.17696 1.89791,-1.21087 3.49105,-2.96127 5.17603,-4.48559 1.32686,-1.07055 1.83158,-2.72896 2.09401,-4.34623 1.00686,-4.17538 3.37769,-7.8464 6.00064,-11.18366 0.0206,-0.91062 -1.50037,-0.42185 -2.13997,-0.67016 -15.05317,-1.35806 -30.28492,-4.57855 -43.56371,-12.11196 -6.04244,-3.5014 -11.68671,-8.05521 -15.24389,-14.16665 -0.146,-0.15961 -0.27483,-0.1509 -0.45575,-0.0659 z"
         id="path119048"
         transform="scale(0.26458333)" /><path
         style="fill:#aa8800;stroke-width:0.176777"
         d="m 248.48174,522.54708 c -0.52624,0.7255 -0.1126,1.81432 -0.21636,2.66881 0.1,3.11297 0.16946,6.32867 1.5598,9.18973 1.88452,4.58696 5.73372,7.91281 9.27215,11.21788 4.43021,3.77737 9.80576,6.19425 15.03602,8.64015 0.83536,0.26162 1.68542,0.82641 2.5536,0.78617 0.49341,-0.90222 0.20461,-2.09382 0.37988,-3.09671 0.41465,-4.70671 -0.11971,-9.72062 2.07393,-14.07445 0.35042,-0.99895 1.5299,-2.02903 1.45306,-3.11121 -2.45175,-1.15027 -5.4199,-1.79389 -7.96814,-2.74758 -7.30765,-2.48113 -14.68651,-4.86071 -21.56941,-8.404 -0.85829,-0.30362 -1.66858,-0.98924 -2.57453,-1.06879 z"
         id="path119049"
         transform="scale(0.26458333)"
         sodipodi:nodetypes="cccccccccccc" /><path
         style="fill:#aa8800;stroke-width:0.176777"
         d="m 241.26497,533.46338 c -0.21969,2.77231 0.0148,5.63961 -0.0307,8.44834 0.15158,3.44001 -0.22156,6.96163 0.57902,10.34006 1.66954,5.68355 5.96947,10.10546 10.39641,13.81777 6.78124,5.35741 14.96959,8.52482 23.08378,11.26 0.98708,0.1929 2.00928,0.89402 3.02523,0.63806 0.6216,-0.70952 -0.31238,-1.64475 -0.38567,-2.41791 -0.74837,-3.86444 -0.52147,-7.86755 -0.72557,-11.80038 -0.1274,-2.12401 0.0284,-4.31902 -0.27743,-6.3983 -7.76987,-3.07427 -15.28637,-6.79338 -22.45996,-11.08928 -4.20313,-2.66743 -8.01471,-6.05819 -11.03912,-10.00307 -0.71932,-0.90346 -1.13792,-2.04708 -1.9222,-2.86641 l -0.1697,0.0495 z"
         id="path119050"
         transform="scale(0.26458333)" /><path
         style="fill:#ffd42a;stroke-width:0.176777"
         d="m 360.40107,492.96149 c -7.14753,0.009 -14.33154,0.19248 -21.36926,1.56061 -12.02948,2.14667 -24.13284,5.61347 -34.35959,12.51213 -5.24489,3.65589 -10.10904,8.36588 -12.51213,14.40454 -2.46614,6.25786 -0.39267,13.54197 3.93535,18.4597 3.81361,4.47078 8.40089,8.31937 13.69279,10.9215 12.95317,6.75146 27.51947,9.83963 42.00395,10.88073 5.81445,0.39481 11.64196,-0.0113 17.46188,-0.0549 8.92332,-0.15306 17.75838,-1.81675 26.36493,-4.09245 8.00614,-2.24376 15.8662,-5.37638 22.77173,-10.06126 3.58271,-2.67449 6.83746,-5.82895 9.58082,-9.3607 3.64302,-5.01056 4.72915,-11.93681 2.14756,-17.65971 -3.27851,-7.46928 -10.05738,-12.70996 -17.08517,-16.45106 -11.74213,-6.1365 -24.85736,-9.20803 -37.95489,-10.67204 -4.88171,-0.36809 -9.78486,-0.38236 -14.67797,-0.38709 z"
         id="path119051"
         transform="scale(0.26458333)" /><path
         style="fill:#ffd42a;stroke-width:0.176777"
         d="m 288.24545,529.3371 c -3.41198,3.50886 -6.84915,7.29574 -8.26584,12.09854 -1.7785,5.42405 -0.30597,11.47866 3.03677,15.98478 3.8409,5.36136 10.43925,10.25441 16.20131,13.35758 0.78774,0.10808 -0.73615,-1.72175 -1.18432,-1.96515 -3.66945,-3.53627 -6.91055,-7.73997 -8.30643,-12.70203 -0.71088,-5.14199 -0.51245,-10.3536 -0.66898,-15.53172 -0.11363,-3.73017 2.5e-4,-7.51428 -0.37627,-11.20717 -0.0341,-0.15583 -0.36043,-0.14649 -0.43629,-0.0348 z"
         id="path119052"
         transform="scale(0.26458333)"
         sodipodi:nodetypes="scccccccss" /><path
         style="fill:#ffd42a;stroke-width:0.176777"
         d="m 434.21017,544.27473 c -0.65067,0.61125 -0.32695,1.75781 -0.52291,2.57066 -0.29575,5.03962 -0.32948,10.41273 -3.1044,14.84005 -2.2704,3.80961 -5.80892,6.59442 -8.52574,10.04768 -1.14489,2.86916 -1.54697,6.04497 -3.25658,8.68514 -4.7549,7.89701 -12.85014,13.05863 -21.0288,16.87964 -3.77518,1.84132 -8.35321,2.89647 -12.20381,4.54181 -0.29343,0.82725 1.41248,0.58508 1.85318,0.601 16.48461,-0.89365 33.30756,-3.73696 47.91671,-11.8094 5.79272,-3.19485 11.00612,-7.6287 14.68368,-13.15712 2.97385,-4.54672 3.90772,-10.49443 1.84321,-15.5981 -2.52144,-6.7109 -8.1183,-11.66702 -13.98631,-15.48487 -1.16864,-0.72157 -2.26284,-1.63672 -3.55015,-2.12927 z"
         id="path119053"
         transform="scale(0.26458333)"
         sodipodi:nodetypes="cccccccccccccc" /><path
         style="fill:#ffd42a;stroke-width:0.176777"
         d="m 296.63751,595.53203 c -0.80208,0.48194 -0.56204,1.7126 -0.73197,2.52252 -0.51142,5.19009 1.47169,10.39813 4.90392,14.2603 3.98029,4.65251 8.77829,8.6557 14.32081,11.31305 11.89518,6.05964 25.11555,9.13947 38.35783,10.31566 6.41902,0.84576 12.9056,0.37033 19.35351,0.26238 10.564,-0.15735 21.03755,-2.15314 31.13393,-5.18756 3.06021,-1.02834 7.52886,-2.38897 10.38282,-3.90715 0.42189,-0.7019 -2.03369,-0.24012 -2.39063,-0.0357 -8.10887,1.54794 -16.33318,2.50126 -24.57135,2.95827 -11.86696,0.35116 -23.76419,-0.7821 -35.33938,-3.41679 -11.35316,-2.7809 -22.69283,-6.99915 -31.70897,-14.65106 -2.7865,-2.35327 -5.09977,-5.12351 -7.19019,-8.09478 -4.39089,-1.51777 -8.80973,-3.06536 -13.0639,-4.97537 -1.14589,-0.44298 -2.26246,-1.0892 -3.45643,-1.36373 z"
         id="path119054"
         transform="scale(0.26458333)"
         sodipodi:nodetypes="ccccccccccccccc" /><path
         style="fill:#ffd42a;stroke-width:0.176777"
         d="m 242.15093,518.17013 c -0.5884,0.77668 -0.49643,1.94567 -0.75579,2.88195 -0.92964,5.24435 1.01525,10.59924 4.27969,14.67952 1.37533,1.7055 3.62417,4.74653 5.34514,6.10071 0.85638,-0.17254 -0.86932,-2.42093 -1.04104,-2.86405 -1.86888,-2.8783 -3.20289,-6.1215 -3.39434,-9.56507 -0.32736,-2.91917 -0.21784,-5.92469 -0.51614,-8.83036 -1.20836,-0.84475 -2.44184,-1.79956 -3.79772,-2.41928 z"
         id="path119055"
         transform="scale(0.26458333)"
         sodipodi:nodetypes="ccccccccc" /><path
         style="fill:#ffd42a;stroke-width:0.176777"
         d="m 235.98239,467.55778 c -0.90625,0.37937 -0.83001,1.67932 -1.19101,2.47074 -1.596,5.44767 -0.43101,11.55778 3.03112,16.05226 2.60442,3.22883 5.55472,6.22281 8.86004,8.73718 7.8655,5.45517 16.98438,8.84115 26.20505,11.21104 8.00255,2.04668 16.23977,3.00273 24.45703,3.61959 1.75468,-0.59601 3.05628,-2.08058 4.58775,-3.07687 9.44691,-6.88282 20.81363,-10.52638 32.14037,-13.00325 10.39207,-2.29959 21.03062,-2.79694 31.64684,-2.83482 1.20195,0.3402 1.83894,-0.64748 2.49032,-1.45946 3.58249,-3.90109 6.3077,-8.89091 6.35725,-14.29586 -0.10394,-0.76603 0.27181,-1.79913 -0.28359,-2.40934 -0.91375,-0.0257 -1.47825,1.03194 -2.18383,1.49372 -4.15826,4.05184 -8.8742,7.50838 -14.08625,10.07489 -12.62199,6.31187 -26.72094,9.18881 -40.68291,10.37976 -17.63736,1.3585 -35.67962,-0.48717 -52.43498,-6.28103 -8.87755,-3.16699 -17.46592,-7.78943 -24.0225,-14.67124 -1.70926,-1.76068 -2.89469,-3.93814 -4.4239,-5.83087 -0.12891,-0.10897 -0.29354,-0.19353 -0.4668,-0.17644 z"
         id="path119056"
         transform="scale(0.26458333)" /><path
         style="fill:#ffd42a;stroke-width:0.176777"
         d="m 369.59104,419.83705 c -0.24583,4.12271 -0.19761,8.32149 -0.83762,12.42582 -1.4791,5.95897 -5.7071,10.79117 -10.35125,14.58694 -8.87698,7.01743 -19.71378,11.12994 -30.62702,13.76625 -14.76487,3.44693 -30.10462,4.06538 -45.16847,2.68622 -8.98436,-0.81146 -17.74513,-2.95449 -26.3601,-5.53773 -0.41268,-0.0744 -1.44841,-0.60041 -1.34494,0.21794 2.28737,1.40738 4.84271,2.40261 7.31068,3.47615 9.83308,3.85782 20.23245,6.14034 30.73171,7.17873 6.47142,0.86597 13.01595,0.38521 19.52032,0.36735 10.65595,-0.0961 21.25617,-1.95357 31.44401,-5.02632 9.51666,-3.01151 19.05119,-7.24485 26.01552,-14.6148 3.49845,-3.67092 6.61152,-8.17173 6.91811,-13.39671 0.55725,-6.04048 -2.70636,-11.70887 -6.66841,-16.00865 -0.1258,-0.20504 -0.39352,-0.31224 -0.58254,-0.12119 z"
         id="path119057"
         transform="scale(0.26458333)" /><path
         style="fill:#ffd42a;stroke-width:0.176777"
         d="m 296.81981,369.28755 c -7.64676,0.0555 -15.3305,0.29229 -22.85673,1.76618 -11.13917,2.05205 -22.28935,5.28291 -31.95578,11.34154 -5.8348,3.81434 -11.34708,8.78085 -14.01267,15.37163 -2.60191,6.51907 -0.25713,14.15005 4.43823,19.09764 3.24535,3.58847 6.8483,6.91875 11.13263,9.23186 10.54834,5.93353 22.4021,9.24991 34.32957,10.96891 5.14124,0.70139 10.31231,1.32203 15.51212,1.13048 8.55965,-0.0857 17.18908,0.0729 25.63643,-1.54113 10.96347,-1.89478 21.88219,-4.98401 31.61485,-10.48635 5.13775,-2.93443 9.53332,-7.06602 13.17897,-11.69761 3.52424,-4.92801 4.66675,-11.68884 2.20586,-17.32835 -2.94766,-7.05994 -9.17379,-12.1063 -15.62403,-15.87059 -10.47993,-5.99485 -22.36757,-9.02995 -34.21814,-10.86281 -6.41502,-0.92405 -12.9064,-1.17536 -19.38131,-1.1214 z"
         id="path119058"
         transform="scale(0.26458333)" /><path
         style="fill:#ffd42a;stroke-width:0.176777"
         d="m 376.86926,484.34597 c -0.70915,0.40983 -0.12389,1.79179 -0.27516,2.4663 0.0544,1.56317 -0.14574,3.18798 0.1015,4.7105 2.54629,0.45491 5.13962,0.85343 7.71119,1.15768 0.75546,-0.50432 -0.32145,-1.34091 -0.62689,-1.81918 -2.0299,-2.25103 -4.13865,-4.52639 -6.6396,-6.24626 l -0.0152,-0.002 z"
         id="path119059"
         transform="scale(0.26458333)"
         sodipodi:nodetypes="cccccccc" /><path
         style="fill:#ffd42a;stroke-width:0.176777"
         d="m 433.1906,521.83617 c -0.69306,0.26631 0.007,1.20285 -0.11107,1.74167 0.43055,4.1849 0.50555,8.43923 0.68212,12.61894 6.89078,2.65831 14.26976,4.15671 21.58762,5.29326 6.35882,0.9943 12.7889,1.60439 19.23087,1.37193 7.83799,-0.17545 15.73105,-0.20754 23.45402,-1.72986 11.05892,-1.97342 22.69196,-5.26863 32.3352,-11.19503 0.58748,-0.2314 -0.31827,-0.78321 -0.88173,-0.46775 -9.12462,2.71259 -18.51018,4.51856 -27.97284,5.41971 -6.98726,0.57335 -14.05866,0.71627 -21.04506,0.17604 -11.18952,-0.93563 -22.4317,-2.6242 -32.98319,-6.64939 -4.85568,-1.78178 -9.65957,-3.80982 -14.06427,-6.5405 -0.0739,-0.0269 -0.15251,-0.0451 -0.23167,-0.039 z"
         id="path119060"
         transform="scale(0.26458333)"
         sodipodi:nodetypes="scccccccccccss" /><path
         style="fill:#ffd42a;stroke-width:0.176777"
         d="m 553.64078,516.17034 c -1.84315,1.59891 -4.01786,2.83759 -5.68205,4.62692 -0.48845,2.36665 -0.13086,4.83735 -0.31109,7.24198 -0.1803,3.14731 -0.0489,6.34543 -0.7223,9.42441 -1.98524,6.66236 -7.12826,11.82771 -12.64756,15.82674 -10.00294,7.00239 -21.85941,10.81362 -33.77141,13.06177 -4.31802,0.87786 -9.22667,1.16488 -13.57246,1.87158 -0.71925,0.37742 0.74569,0.93804 1.19972,0.7759 7.88121,0.13365 15.80258,0.0843 23.63421,-0.89873 13.18607,-1.88261 26.52778,-5.13728 37.92082,-12.29709 5.58068,-3.66667 10.79434,-8.4147 13.6163,-14.57622 2.23961,-4.9112 1.69253,-10.792 -0.98235,-15.42038 -2.10972,-3.75794 -4.99968,-7.14926 -8.47049,-9.6783 l -0.0746,-0.0204 z"
         id="path119061"
         transform="scale(0.26458333)"
         sodipodi:nodetypes="ccccccccccccccc" /><path
         style="fill:#ffd42a;stroke-width:0.176777"
         d="m 559.56764,438.75216 c -2.73813,2.50368 -5.27443,5.21997 -8.31254,7.38897 -1.09883,0.89451 -2.44772,1.51716 -3.45278,2.48359 -0.30112,4.57912 -1.74145,9.0779 -4.52127,12.77903 -5.91313,7.94854 -14.85988,12.96596 -23.92907,16.5262 -9.79454,3.80646 -20.18992,5.7828 -30.59135,6.93331 -0.56235,0.0261 -2.72097,0.35262 -1.55585,0.90864 4.04618,0.41536 8.34687,0.0192 12.40517,-0.0333 5.98856,-0.15089 11.97777,-0.59035 17.86436,-1.74593 11.27443,-1.97984 22.47905,-5.36395 32.28914,-11.38276 4.81125,-3.1378 9.10023,-7.1897 12.26806,-11.99514 3.03914,-5.05457 3.52961,-11.6174 0.89799,-16.94833 -0.91479,-1.69127 -1.79166,-3.48532 -3.09048,-4.90762 -0.0853,-0.0518 -0.17919,-0.0203 -0.27138,-0.007 z"
         id="path119062"
         transform="scale(0.26458333)"
         sodipodi:nodetypes="ccccccccccccccc" /><path
         style="fill:#ffd42a;stroke-width:0.176777"
         d="m 420.06355,472.61974 c -0.97468,0.26455 -0.59204,1.62698 -0.69399,2.36854 -0.0335,5.54861 2.99722,10.58496 6.78514,14.42993 2.33334,2.32784 4.74327,4.66067 7.50823,6.4601 0.87251,-0.20625 -0.10034,-1.0044 -0.45369,-1.26541 -4.86828,-4.17969 -9.19527,-9.45672 -10.62889,-15.85603 -0.48204,-1.65123 -0.15145,-3.4907 -0.85538,-5.06852 -0.42018,-0.478 -1.00967,-0.98826 -1.66142,-1.06861 z"
         id="path119063"
         transform="scale(0.26458333)" /><path
         style="fill:#ffd42a;stroke-width:0.176777"
         d="m 416.71826,489.10348 c -2.97215,3.01098 -6.26422,5.81108 -8.62201,9.3557 -0.5555,0.9282 0.94338,1.17686 1.45921,1.58817 2.69976,1.40923 5.63105,3.18097 8.33218,4.5655 0.72296,-0.33739 -0.17963,-1.70017 -0.079,-2.33709 -0.34553,-4.35689 -0.35413,-8.78846 -0.66047,-13.12462 -0.0309,-0.15419 -0.34952,-0.1522 -0.42988,-0.0477 z"
         id="path119064"
         transform="scale(0.26458333)"
         sodipodi:nodetypes="scccccss" /><path
         style="fill:#ffd42a;stroke-width:0.0078125"
         d="m 433.97444,495.22287 c -0.14703,0.0213 -0.25962,0.159 -0.25786,0.30643 -0.008,0.0383 -0.0718,0.0432 -0.0973,0.0747 -0.12285,0.10007 -0.14226,0.29868 -0.0382,0.41905 0.0984,0.10188 0.22502,0.17221 0.33767,0.25748 0.5448,0.37982 1.09063,0.76377 1.68277,1.06742 0.19018,0.0901 0.38899,0.18958 0.60422,0.18909 0.1705,0.001 0.3256,-0.14845 0.31939,-0.32085 0.002,-0.17197 -0.13971,-0.29119 -0.25247,-0.40096 -0.31832,-0.28863 -0.68258,-0.51974 -1.03001,-0.77074 -0.35902,-0.25051 -0.70627,-0.51731 -1.05937,-0.77587 -0.0625,-0.0389 -0.13585,-0.0542 -0.2089,-0.0457 z"
         id="path119065"
         transform="scale(0.26458333)" /><path
         style="fill:#ffd42a;stroke-width:0.176777"
         d="m 408.35486,434.66558 c -0.68577,0.46304 0.36011,1.19759 0.60057,1.6567 4.55734,5.67743 10.41193,10.28087 17.02281,13.33655 10.25004,4.98659 21.46705,7.7199 32.72922,9.18141 0.77118,-0.0302 2.04949,0.34888 2.73801,-0.074 0.13999,-0.79614 -1.50655,-0.63634 -1.98612,-0.94437 -8.72909,-2.37804 -17.25078,-5.67345 -24.89154,-10.58192 -3.24599,-1.99382 -5.93149,-4.72232 -8.96963,-6.98727 -2.311,-1.2751 -5.0081,-1.61893 -7.48125,-2.46141 -3.28806,-0.92839 -6.49811,-2.15772 -9.76207,-3.1257 z"
         id="path119066"
         transform="scale(0.26458333)"
         sodipodi:nodetypes="sccccccccss" /><path
         style="fill:#ffd42a;stroke-width:0.176777"
         d="m 404.82105,357.60648 c -6.73657,3.36688 -13.08629,7.9279 -17.46499,14.13937 -1.99795,3.06685 -3.58689,6.57305 -3.48823,10.30933 -0.24348,5.44123 2.64735,10.49441 6.26356,14.35521 6.70038,7.51183 16.15038,11.76799 25.52382,14.90404 9.19917,3.04421 18.82301,4.5104 28.44462,5.40478 5.17581,0.23599 10.37001,-0.003 15.55159,-0.0376 8.51688,0.0459 16.95724,-1.3934 25.25534,-3.19164 1.90334,-0.4881 4.87516,-0.95027 6.62429,-1.81265 -0.34963,-0.9106 -2.89513,-0.0228 -3.72537,-0.22791 -6.99178,0.18671 -14.01886,0.24485 -21.00154,-0.11026 -15.0483,-1.34997 -30.25193,-4.53596 -43.46332,-12.17051 -7.12493,-4.13111 -13.87239,-9.86908 -16.78481,-17.79161 -1.02971,-3.0382 -0.61804,-6.36959 -0.84709,-9.53971 -0.13856,-4.662 -0.12843,-9.33154 -0.448,-13.98609 -0.0369,-0.21578 -0.25279,-0.3146 -0.43987,-0.24479 z"
         id="path119067"
         transform="scale(0.26458333)"
         sodipodi:nodetypes="sccccccccccccccss" /><path
         style="fill:#ffd42a;stroke-width:0.176777"
         d="m 549.54419,381.58113 c -0.88027,0.36962 -1.00409,1.5862 -1.53016,2.29893 -4.24672,8.16188 -11.94443,13.83231 -20.07724,17.73361 -0.6396,0.35789 -1.67903,0.5648 -1.48784,1.52521 -0.27663,4.24271 -0.48411,8.6405 -2.60056,12.44207 -2.42075,4.63936 -6.41551,8.19623 -10.49163,11.36791 -4.69613,3.52209 -10.10251,5.88287 -15.35817,8.4183 -0.47512,0.72051 0.7197,0.61571 1.13248,0.54967 10.27791,-0.77497 20.58022,-2.13218 30.42907,-5.28155 6.99771,-2.26818 13.89471,-5.16135 19.93813,-9.4068 3.55454,-2.73083 6.89628,-5.8475 9.47724,-9.53109 1.78773,-2.83515 3.349,-6.0318 3.19403,-9.47167 0.0936,-2.33455 -0.0247,-4.71579 -0.99906,-6.87869 -2.1838,-5.68715 -6.63289,-10.19797 -11.45573,-13.7476 -0.0551,-0.0163 -0.1132,-0.023 -0.17056,-0.0183 z"
         id="path119068"
         transform="scale(0.26458333)" /><path
         style="fill:#ffd42a;stroke-width:0.176777"
         d="m 478.64673,316.98098 c -8.30501,0.0963 -16.67449,0.2064 -24.83656,1.9219 -11.90914,2.24688 -23.86438,5.93675 -33.8157,13.0611 -5.35404,3.94946 -10.36308,9.15671 -12.0094,15.791 -1.40153,5.84328 0.89856,12.05051 4.79764,16.43928 4.131,4.96762 9.43011,8.86633 15.266,11.60385 12.59382,6.19823 26.5808,9.02171 40.50263,10.02525 7.2983,0.0869 14.60714,0.0685 21.89834,-0.29618 8.23003,-0.66539 16.37387,-2.32939 24.28675,-4.66796 7.43677,-2.30611 14.77373,-5.34641 21.08202,-9.97688 3.63679,-2.94015 7.13204,-6.2169 9.62639,-10.20764 3.03626,-5.05184 3.48354,-11.61431 0.81059,-16.91677 -2.49548,-5.08948 -6.70086,-9.16775 -11.30326,-12.37897 -10.36019,-6.93509 -22.5512,-10.56207 -34.72246,-12.73172 -7.12068,-1.26323 -14.35812,-1.7066 -21.58298,-1.66626 z"
         id="path119069"
         transform="scale(0.26458333)" /><path
         style="fill:#55d400;stroke-width:0.5"
         d="m 550.23535,622.55761 c -30.52519,0.2473 -60.78109,8.01533 -88.14746,21.41114 -19.73415,9.49357 -39.64889,19.17503 -61.18648,23.80844 -13.70187,3.33389 -27.69518,5.20324 -41.80548,5.06379 -15.058,0.47235 -30.09332,-0.69554 -44.85615,-3.72902 -8.37428,-1.40237 -16.47872,-4.03449 -24.73197,-5.88442 -0.60418,3.02742 0.41062,6.54889 0.39837,9.7357 1.56948,17.71347 2.69809,35.49928 4.88483,53.1393 1.63734,2.61211 5.49814,2.3098 8.07269,3.44824 14.52561,3.85421 29.41294,6.64632 44.40189,7.75793 17.02559,0.0195 34.23238,0.46184 50.96195,-3.26281 20.44354,-3.84493 40.0629,-11.21489 58.56429,-20.63456 20.4467,-10.09048 41.71695,-19.05597 64.29981,-22.96058 17.65761,-3.75988 35.83481,-2.95006 53.78064,-2.67305 16.10843,1.41933 32.08043,4.67018 47.63846,9.11487 2.03727,0.545 0.64207,-2.53593 0.90918,-3.53809 -1.63879,-19.54756 -2.99979,-39.13886 -5.41602,-58.60742 0.047,-2.77587 -3.66951,-2.26874 -5.41507,-3.23297 -20.25469,-5.73962 -41.26569,-9.14517 -62.35348,-8.95649 z"
         id="path119070"
         transform="scale(0.26458333)" /><path
         style="fill:#44aa00;stroke-width:0.5"
         d="m 277.74609,671.53125 c -0.96699,1.77281 0.22321,4.45272 0.0278,6.49738 1.69965,18.43139 2.6079,36.89065 4.87402,55.25974 0.30729,3.6411 0.94541,2.69433 7.39468,4.50999 19.89619,5.26666 40.67618,8.91925 61.34118,7.96336 29.2057,0.053 69.11322,-9.02003 90.42005,-22.44628 -1.16349,-3.85081 -4.09037,-0.35328 -12.37787,4.7254 -32.67253,9.08473 -67.66929,14.53129 -101.01302,9.19397 -11.65722,-1.95197 -23.3547,-4.41746 -34.53795,-8.30414 -2.29182,-1.13101 -1.02927,-4.48471 -1.77532,-6.47291 -1.76491,-16.0668 -2.74568,-32.29206 -4.61238,-48.29662 -3.17112,-1.08095 -6.45682,-1.97132 -9.74121,-2.62988 z"
         id="path119071"
         sodipodi:nodetypes="sccccccccccss"
         transform="scale(0.26458333)" /><path
         style="fill:#44aa00;stroke-width:0.5"
         d="m 557.92871,689.52929 c -23.59,-0.21839 -47.7907,3.74444 -69.86743,12.08049 -3.8022,1.54702 -19.73841,8.2995 -23.27025,10.35007 0.3831,1.50956 12.41684,-4.33788 16.35618,-5.44728 22.2835,-7.24214 45.60972,-11.87704 69.09693,-10.80847 18.4206,-0.16627 36.62736,3.27423 54.38258,7.89475 2.29756,0.39172 4.80476,1.85095 7.06273,1.52615 -0.13624,-2.81979 0.45105,-6.22483 -1.25781,-8.64063 -4.52988,-2.39461 -9.96451,-2.42641 -14.88086,-3.70801 -12.38869,-2.44814 -25.00105,-3.44374 -37.62207,-3.24707 z"
         id="path119072"
         transform="scale(0.26458333)"
         sodipodi:nodetypes="cccccccccc" /><path
         style="fill:#338000;stroke-width:0.5"
         d="m 544.26172,697.72851 c -28.83045,0.0946 -58.16374,6.76589 -84.23206,19.03577 -22.53635,10.57658 -44.37036,22.19114 -69.04277,26.85735 -16.86164,3.87356 -34.20392,4.81633 -51.46648,4.05926 -19.66786,-0.43873 -38.1571,-4.06704 -56.85214,-10.08957 0.008,-0.005 -1.71548,-0.63201 -1.7608,-1.95378 l -2.32259,-21.63428 c 0,0 -0.19432,0.019 -1.06751,0.0172 0.47703,5.4815 0.81936,10.73786 1.27971,15.97793 0.46036,5.24008 1.03874,10.46387 1.98789,15.88022 5.88793,2.87597 12.81008,3.82755 19.13326,5.49771 11.46565,2.3275 23.0602,4.5194 34.76726,5.03015 16.52469,-0.11447 33.2329,0.21286 49.46913,-3.34982 21.32427,-3.9963 41.624,-12.07066 60.92521,-21.81875 17.58546,-8.79465 35.89718,-16.2885 55.18823,-20.39849 14.79265,-3.56365 30.0372,-4.52801 45.23193,-4.35623 12.13833,-0.21734 24.24894,0.73884 36.14051,3.24566 9.23275,1.7412 18.42746,3.78694 27.42786,6.46648 0.52686,-2.59762 0.16311,-6.03654 -0.64649,-8.83008 -2.32871,-1.71795 -5.76962,-1.65325 -8.50045,-2.64764 -18.14879,-4.85991 -36.86708,-7.24375 -55.6597,-6.98908 z"
         id="path119073"
         sodipodi:nodetypes="ccccccccsccccccccccccc"
         transform="scale(0.26458333)" /><path
         style="fill:#338000;stroke-width:0.0441942"
         d="m 275.17399,681.77135 c -0.43558,0.0185 -0.4814,0.5383 -0.46905,0.87136 0.024,1.78464 0.22492,3.56189 0.3496,5.34134 0.58769,7.12433 1.47151,14.57489 2.10915,21.69484 0.15163,1.27275 0.26338,2.88644 0.40455,4.44288 0.0895,0.34396 1.04444,0.18701 1.00378,-0.16128 -0.42807,-5.36927 -0.70716,-10.80604 -1.20024,-16.16971 -0.46353,-4.80017 -0.89059,-9.60545 -1.49446,-14.39056 -0.0943,-0.47229 -0.0789,-0.98953 -0.30015,-1.42474 -0.0946,-0.12249 -0.24455,-0.21308 -0.40318,-0.20414 z"
         id="path119074"
         sodipodi:nodetypes="sccccccccss"
         transform="scale(0.26458333)" /><path
         style="display:inline;fill:#000000"
         d="m 89.122979,200.74606 c -3.914034,-0.18552 -7.643018,-0.75737 -11.655629,-1.78744 -1.770085,-0.4544 -3.678542,-1.02063 -3.794445,-1.1258 -0.07528,-0.0683 -1.689435,-18.15147 -1.62592,-18.21498 0.01955,-0.0196 0.194405,0.01 0.388564,0.0657 0.194159,0.0557 0.375948,0.0783 0.403975,0.0503 0.02803,-0.028 -0.006,-0.69378 -0.07551,-1.47946 -0.06956,-0.78567 -0.10905,-1.44591 -0.08776,-1.4672 0.02129,-0.0213 0.648058,0.14294 1.392818,0.36495 2.098189,0.62547 1.930669,0.61327 1.930669,0.14056 0,-0.22171 -0.05107,-0.91058 -0.113497,-1.53083 -0.06242,-0.62024 -0.09343,-1.14778 -0.06891,-1.1723 0.02452,-0.0245 0.582707,0.11823 1.240411,0.31723 5.998506,1.81491 11.066322,2.58658 16.972619,2.58438 5.95004,-0.002 11.336136,-0.89992 17.012276,-2.83548 2.98442,-1.01768 5.04924,-1.91337 9.21356,-3.99672 5.00447,-2.50366 8.31283,-3.77265 12.80883,-4.91309 8.78633,-2.22871 17.78085,-2.17612 27.03432,0.15805 1.34553,0.33941 3.88009,1.0943 3.97771,1.18472 0.0754,0.0698 1.68543,18.15684 1.62193,18.22034 -0.0195,0.0195 -0.73248,-0.17687 -1.58441,-0.43635 -0.85194,-0.25947 -1.60423,-0.47177 -1.67177,-0.47177 -0.0933,0 -0.0902,0.36951 0.0125,1.53651 0.0744,0.84508 0.11993,1.55187 0.10116,1.57064 -0.0188,0.0188 -0.193,-0.0114 -0.38715,-0.0671 -0.19416,-0.0557 -0.3754,-0.0789 -0.40276,-0.0515 -0.0274,0.0274 0.005,0.69524 0.0708,1.48417 0.0663,0.78894 0.10472,1.45024 0.0854,1.46957 -0.0193,0.0193 -0.50246,-0.10957 -1.07362,-0.28644 -4.28158,-1.32586 -8.75663,-2.18711 -13.04142,-2.5099 -2.23641,-0.16848 -6.48279,-0.14261 -8.55676,0.0521 -5.74811,0.53974 -10.90258,1.84212 -16.44501,4.15516 -0.69187,0.28874 -3.02694,1.39029 -5.18904,2.44789 -2.1621,1.0576 -4.76471,2.2541 -5.78357,2.65889 -5.75297,2.28565 -11.56336,3.57471 -17.540923,3.89153 -2.171634,0.1151 -2.61909,0.11455 -5.169456,-0.006 z m 7.451912,-0.77464 c 4.616799,-0.4501 8.873429,-1.4166 13.275829,-3.01438 2.42334,-0.87951 4.31911,-1.71955 7.93021,-3.51397 1.72596,-0.85766 3.84572,-1.85755 4.71056,-2.22197 5.37916,-2.26662 10.4622,-3.58652 16.24852,-4.21922 1.67527,-0.18318 8.70416,-0.1841 10.22085,-0.001 4.5594,0.5494 8.4672,1.33718 11.78051,2.37485 l 0.3888,0.11386 -0.0728,-1.08966 c -0.0878,-1.31496 -0.065,-1.29716 -0.35651,-1.36189 -0.12786,-0.0284 -0.82099,-0.23912 -1.59935,-0.45082 -4.93226,-1.34155 -9.52899,-1.95608 -14.78026,-1.9552 -5.44793,9e-4 -10.45458,0.77243 -15.80913,2.44608 -3.20599,1.00209 -5.31866,1.87403 -10.26625,4.29397 -2.1621,1.05751 -4.7647,2.25395 -5.78357,2.65874 -11.94486,4.74569 -24.162113,5.2115 -36.867724,1.40568 -0.712901,-0.21354 -1.314344,-0.43698 -1.33654,-0.49653 -0.02219,-0.0596 -0.320675,-3.31095 -0.663287,-7.22533 -0.349328,-3.99112 -0.671643,-7.16578 -0.733837,-7.22798 -0.07799,-0.078 -0.110905,-0.022 -0.110905,0.18854 0,0.55622 1.419994,16.01447 1.5008,16.37885 0.07788,0.35117 0.107792,0.3695 1.075981,0.65944 3.91959,1.17377 8.179973,1.95908 12.353002,2.30319 2.132498,0.17585 6.543636,0.11037 8.89667,-0.11904 z m 0.664899,-2.88856 c 4.61899,-0.45032 8.83724,-1.35833 13.24545,-2.95822 1.85822,-0.67442 4.59359,-1.83254 5.61167,-2.37591 0.76672,-0.40922 0.69648,-0.38875 -1.15312,0.33602 -9.6573,3.78421 -20.115418,4.67021 -30.474766,2.58178 -2.807298,-0.56594 -6.983027,-1.70549 -7.066082,-1.92832 -0.0222,-0.0596 -0.320524,-3.30923 -0.662951,-7.22151 -0.342428,-3.91228 -0.667044,-7.14088 -0.684985,-7.15176 -0.01794,-0.0109 -0.609448,-0.16357 -1.330149,-0.36803 -1.201593,-0.3409 -1.250398,-0.35056 -1.280344,-0.17954 -0.04273,0.24404 1.269897,15.9608 1.374381,16.43173 0.07791,0.35116 0.107849,0.36951 1.076018,0.65944 3.91959,1.17377 8.292536,1.99398 12.465565,2.33809 2.132498,0.17584 6.526279,0.0656 8.879313,-0.16377 z m 16.38478,-5.15762 c 2.42334,-0.87951 4.31911,-1.71955 7.93021,-3.51397 1.72597,-0.85766 3.83984,-1.85506 4.6975,-2.21644 5.40445,-2.27719 10.45845,-3.59021 16.26158,-4.22475 1.67527,-0.18318 8.70417,-0.1841 10.22085,-0.001 4.5523,0.54855 8.4893,1.12371 11.72166,2.32498 l 0.54335,0.20193 -0.0335,-0.33428 c -0.0538,-0.53655 -1.40402,-15.87754 -1.48241,-16.22986 -0.0574,-0.25825 -0.21666,-0.46306 -0.40464,-0.51752 -3.78526,-1.09672 -6.42782,-1.72342 -9.41535,-2.1401 -9.01425,-1.25726 -17.40204,-0.34999 -26.08809,2.82183 -2.29278,0.83724 -4.19919,1.68368 -7.4132,3.29142 -1.60186,0.8013 -3.62007,1.76301 -4.48491,2.13714 -5.75518,2.48967 -11.56517,3.95833 -17.716133,4.47831 -1.618983,0.13686 -6.195867,0.13839 -8.019433,0.003 -4.162686,-0.3098 -8.786385,-1.26937 -12.920198,-2.41625 l -0.429768,-0.11924 -0.01825,0.38605 c -0.02543,0.53791 1.358584,15.81589 1.437022,16.16959 0.07788,0.35117 0.172698,0.34618 1.140883,0.63612 3.91959,1.17377 7.928157,1.9377 12.101186,2.28181 2.132498,0.17585 6.538873,0.19093 8.891911,-0.0387 0.17992,-0.007 5.9421,-0.24437 13.47973,-2.98003 z m 10.90353,-4.1109 c 4.9322,-1.99664 10.44851,-3.278 16.09884,-3.73952 1.95772,-0.1599 7.71185,-0.0608 9.53945,0.16432 4.13653,0.5095 8.02071,1.30886 11.20295,2.30556 l 0.47117,0.0193 -0.009,-0.24398 -0.0277,-0.74112 c -0.0405,-1.08447 -0.21513,-1.11979 -0.26385,-1.21172 -0.13907,-0.26239 -4.2336,-1.20126 -7.23267,-1.58076 -3.35049,-0.42396 -8.10161,-0.45183 -11.27762,-0.15526 -6.29291,0.5876 -12.26119,2.13887 -18.19107,4.86387 -2.23801,1.02844 -2.35211,1.14584 -0.31036,0.3193 z M 93.66346,174.59778 c -8.180313,-0.74672 -14.346314,-3.88775 -15.739545,-8.01789 -0.175909,-0.52148 -0.194492,-0.95716 -0.194492,-4.56007 0,-2.19093 0.03374,-4.1722 0.07498,-4.40283 l 0.07498,-0.41931 -0.756374,-0.49605 c -1.034843,-0.67868 -1.958922,-1.52707 -2.594959,-2.38241 -0.437489,-0.58833 -0.600651,-0.72994 -0.907345,-0.78747 -0.205665,-0.0386 -0.995008,-0.27556 -1.754096,-0.5266 -4.443898,-1.46971 -7.49709,-3.84878 -8.40913,-6.55247 -0.17668,-0.52375 -0.194377,-0.96058 -0.193238,-4.76972 0.0011,-3.60531 0.02487,-4.25202 0.169713,-4.61294 l 0.16846,-0.41977 -0.517556,-0.57611 c -0.63469,-0.70649 -1.16885,-1.56877 -1.472511,-2.37703 -0.217702,-0.57946 -0.231023,-0.80374 -0.264864,-4.45945 -0.0381,-4.11561 6.43e-4,-4.59475 0.458201,-5.66672 0.15316,-0.35883 0.271266,-0.74675 0.262459,-0.86207 -0.0088,-0.11531 -0.04265,-1.22128 -0.0752,-2.45771 l -0.05919,-2.24805 -0.630103,-0.68717 c -0.71818,-0.78321 -1.336245,-1.78527 -1.620019,-2.6265 -0.176423,-0.523 -0.194492,-0.96125 -0.194492,-4.71731 0,-4.05472 0.005,-4.15533 0.242335,-4.84211 0.511533,-1.48045 1.790129,-2.96206 3.602174,-4.17412 6.93849,-4.641079 20.324946,-5.175294 28.569366,-1.140119 2.543161,1.244729 4.302388,2.763559 5.217015,4.504099 0.544773,1.0367 0.680221,1.82292 0.682359,3.9608 l 0.0018,1.82034 0.738571,0.84913 c 0.893663,1.02743 1.498691,2.1847 1.668491,3.19138 0.0841,0.49861 0.11103,1.92451 0.0849,4.49168 -0.0365,3.57525 -0.0499,3.79199 -0.27071,4.38454 -0.127786,0.34286 -0.306505,0.73656 -0.397152,0.87491 -0.138987,0.21212 -0.146974,0.35396 -0.05097,0.90524 0.06261,0.35954 0.113838,1.10178 0.113838,1.64943 v 0.99573 l 0.495964,0.35617 c 0.6187,0.44432 1.60717,1.44221 2.13106,2.15138 0.39782,0.5385 0.39838,0.53881 1.42759,0.77399 0.56628,0.1294 1.59568,0.42346 2.28755,0.65348 l 1.25795,0.4182 0.20966,-0.28939 c 0.61368,-0.84708 1.27182,-1.54865 2.0081,-2.14062 l 0.82229,-0.66112 0.0579,-2.00226 0.0579,-2.00226 -0.25679,-0.20966 c -1.21987,-0.99595 -1.58796,-1.33733 -2.06322,-1.91352 -0.30033,-0.36409 -0.69295,-0.9552 -0.87251,-1.31357 -0.57163,-1.14088 -0.64472,-1.638 -0.64472,-4.38504 v -2.48387 l -0.60276,-0.33962 c -2.50759,-1.41282 -4.18227,-3.16255 -4.8111,-5.02669 -0.17643,-0.52299 -0.1945,-0.96124 -0.1945,-4.71731 0,-4.05472 0.005,-4.15532 0.24234,-4.842106 0.64288,-1.860598 2.37429,-3.59593 5.01013,-5.021482 l 0.95448,-0.516211 0.0607,-1.021229 c 0.10537,-1.772634 0.70121,-3.001765 2.13026,-4.394443 5.91798,-5.767348 21.10812,-7.039246 30.30571,-2.537551 2.54316,1.244733 4.30239,2.763556 5.21701,4.504095 0.63901,1.216032 0.68781,1.651154 0.67314,6.002029 l -0.013,3.861558 0.71963,0.56946 c 1.57951,1.24992 2.72139,2.94976 2.96945,4.42041 0.0841,0.49861 0.11104,1.9245 0.0848,4.49168 -0.0363,3.55788 -0.0507,3.79433 -0.26726,4.37454 -0.1259,0.33735 -0.32618,0.77076 -0.44508,0.96314 l -0.21617,0.34978 0.3655,0.50875 c 0.54615,0.7602 0.97615,1.74405 1.11058,2.54103 0.0799,0.47383 0.10701,1.96139 0.0814,4.47124 -0.0428,4.19219 -0.0514,4.24864 -0.8535,5.57685 l -0.35956,0.59539 -0.0475,1.93934 c -0.0397,1.62084 -0.0833,2.0375 -0.26514,2.53704 -0.25463,0.69943 -0.62677,1.35783 -1.11916,1.98006 l -0.3525,0.44545 0.77939,0.77939 c 0.88943,0.88943 1.28135,1.42412 1.71326,2.3374 0.49136,1.03898 0.547,1.68086 0.50475,5.82321 -0.0428,4.19218 -0.0514,4.24864 -0.8535,5.57685 l -0.35956,0.59539 -0.0475,1.93934 c -0.0401,1.63374 -0.0825,2.03549 -0.26942,2.54949 -1.28166,3.52438 -6.17312,6.3924 -12.8076,7.5095 -3.04302,0.51237 -6.13439,0.6392 -9.12014,0.37417 -2.97357,-0.26395 -5.23326,-0.71442 -7.6725,-1.52951 l -1.22551,-0.40952 -0.76625,0.52745 -0.76624,0.52746 -0.0655,1.69868 c -0.0517,1.34061 -0.11182,1.8273 -0.28518,2.30883 -1.26577,3.51589 -6.17087,6.3924 -12.80538,7.5095 -2.992008,0.50379 -6.346161,0.63755 -9.277382,0.36998 z m 7.1808,-0.67844 c 3.5113,-0.42763 6.47221,-1.21727 8.85807,-2.36235 1.65769,-0.79561 2.69869,-1.51385 3.77505,-2.60461 1.50394,-1.52406 1.93814,-2.56322 1.93814,-4.63853 v -1.1737 l -1.23162,0.56675 c -0.67739,0.31171 -1.28285,0.56675 -1.34547,0.56675 -0.0626,0 -0.51082,0.24288 -0.99601,0.53973 -3.1187,1.90817 -7.0726,3.06664 -11.941623,3.49884 -5.651951,0.5017 -11.754462,-0.4311 -16.085947,-2.45883 -2.227534,-1.04279 -4.377163,-2.73102 -5.148502,-4.04342 l -0.30795,-0.52396 -0.02856,2.04245 c -0.0326,2.33168 0.04132,2.82935 0.580442,3.90793 0.475753,0.95179 1.908668,2.4321 3.117136,3.22023 2.712784,1.7692 6.842512,3.06691 11.007065,3.45882 0.634216,0.0597 1.318227,0.12759 1.520023,0.15091 0.651159,0.0752 5.370589,-0.0351 6.289756,-0.14701 z m 0,-6.28976 c 2.44316,-0.29753 4.62751,-0.77312 6.57366,-1.43123 1.07513,-0.36357 2.44013,-0.95625 1.9175,-0.83257 -1.9604,0.46391 -5.86492,0.89857 -8.07184,0.89857 -1.626868,0 -4.34937,-0.2363 -6.080097,-0.52771 -5.425646,-0.91356 -9.843229,-3.05825 -11.845468,-5.75085 l -0.52906,-0.71148 -1.03094,-0.33765 c -0.567017,-0.18571 -1.541197,-0.57008 -2.164844,-0.85415 -0.623647,-0.28408 -1.151582,-0.49882 -1.173189,-0.47722 -0.02161,0.0216 -0.0664,0.36329 -0.09954,0.7593 -0.07321,0.87486 0.13434,1.77716 0.621034,2.69993 0.442723,0.8394 1.977773,2.39268 3.065941,3.10235 2.712784,1.76919 6.842512,3.06691 11.007065,3.45882 0.634216,0.0597 1.318227,0.12759 1.520023,0.15091 0.651159,0.0752 5.370589,-0.0351 6.289755,-0.14702 z m 4.40283,-2.20141 c 4.49484,-0.5474 8.18594,-1.72541 10.84982,-3.46272 1.20846,-0.78812 2.64138,-2.26843 3.11713,-3.22023 0.53913,-1.07857 0.61305,-1.57624 0.58044,-3.90792 l -0.0285,-2.04245 -0.30795,0.52396 c -0.46453,0.79037 -1.7956,2.05546 -2.9773,2.82973 -3.71527,2.43428 -9.37451,3.81988 -15.63642,3.82841 -1.035711,0.001 -2.108212,0.0654 -2.673145,0.15945 -1.4222,0.23681 -4.239396,0.46717 -5.713191,0.46717 -2.308694,0 -6.672396,-0.5013 -8.169734,-0.93854 -0.197977,-0.0578 -0.384123,-0.081 -0.413658,-0.0514 -0.110318,0.11031 1.756506,1.82547 2.560001,2.35201 2.69099,1.76344 6.836598,3.06658 11.002778,3.45865 0.634216,0.0597 1.318227,0.12759 1.520023,0.1509 0.651159,0.0752 5.370586,-0.0351 6.289756,-0.14701 z m 28.30388,-2.5159 c 3.51129,-0.42762 6.47221,-1.21726 8.85806,-2.36235 1.6577,-0.7956 2.6987,-1.51384 3.77505,-2.6046 1.52026,-1.54059 1.93814,-2.55605 1.93814,-4.70963 v -1.24479 l -0.65518,0.57271 c -3.5331,3.08837 -9.90747,4.89509 -17.27061,4.89509 -3.03505,0 -6.94763,-0.4309 -9.01531,-0.99288 -0.31711,-0.0862 -0.60542,-0.15726 -0.6407,-0.15795 -0.0353,-6.8e-4 -0.095,0.3003 -0.1328,0.66886 -0.13187,1.28705 -0.70568,2.49361 -1.73076,3.63922 l -0.52602,0.58788 1.17445,0.37783 c 2.11416,0.68015 4.25961,1.12379 6.4159,1.32672 0.63422,0.0597 1.31823,0.12759 1.52003,0.1509 0.65115,0.0752 5.37058,-0.0351 6.28975,-0.14701 z M 96.441433,159.7674 c 4.494847,-0.54741 8.185937,-1.72542 10.849817,-3.46272 1.24259,-0.81038 2.64929,-2.27367 3.12379,-3.24945 0.20982,-0.43149 0.41246,-0.91745 0.45031,-1.07992 l 0.0688,-0.29539 -0.61079,0.39072 c -1.4004,0.89582 -3.94694,1.90531 -6.28182,2.49019 -2.33729,0.58549 -5.888722,1.01094 -8.43875,1.01094 -4.329519,0 -9.248421,-0.92988 -12.498093,-2.36268 -0.477196,-0.2104 -1.292187,-0.53689 -1.811091,-0.72554 -3.179257,-1.15582 -6.018857,-3.10494 -7.030094,-4.82552 l -0.30795,-0.52396 -0.02856,2.04245 c -0.0326,2.33168 0.04132,2.82935 0.580442,3.90793 0.475753,0.95179 1.908668,2.4321 3.117136,3.22023 2.712784,1.7692 6.842512,3.06691 11.007065,3.45882 0.634216,0.0597 1.318227,0.12759 1.520023,0.15091 0.651159,0.0752 5.370589,-0.0351 6.289751,-0.14701 z m 8.753237,-0.63786 c 3.3031,-0.35034 6.49143,-1.19245 8.91048,-2.35347 1.65382,-0.79375 2.69601,-1.51191 3.78222,-2.60629 1.09535,-1.10361 1.65474,-2.08199 1.85337,-3.24161 0.31276,-1.82588 -0.65561,-3.79839 -2.66009,-5.41847 -0.63061,-0.50968 -2.04298,-1.44744 -2.20205,-1.46209 -0.0359,-0.003 -0.0894,0.64263 -0.11897,1.4354 -0.0823,2.20623 -0.55213,3.24797 -2.19642,4.87035 -0.81505,0.80418 -0.9369,0.9729 -1.02208,1.41519 -0.24919,1.29383 -0.85815,2.35933 -2.00653,3.5108 -1.41204,1.41585 -3.70647,2.73949 -6.24232,3.60114 -0.62571,0.21261 -1.16124,0.41039 -1.19007,0.43952 -0.0623,0.063 1.76237,-0.0494 3.09246,-0.19047 z m 29.61425,-2.50702 c 4.49485,-0.5474 8.18594,-1.72541 10.84982,-3.46272 1.20847,-0.78813 2.64138,-2.26843 3.11713,-3.22023 0.53913,-1.07858 0.61305,-1.57625 0.58045,-3.90793 l -0.0286,-2.04244 -0.30795,0.52396 c -0.77134,1.3124 -2.92097,3.00062 -5.1485,4.04341 -3.44278,1.6117 -8.44006,2.61237 -13.0459,2.61237 -1.48638,0 -4.28443,-0.23014 -5.76561,-0.47423 -0.54773,-0.0903 -1.67989,-0.23225 -2.5159,-0.31553 -0.83601,-0.0833 -1.65058,-0.17922 -1.81015,-0.21318 l -0.29013,-0.0618 0.0281,2.59492 0.0281,2.59492 1.04829,0.30054 c 1.89596,0.54355 4.11335,0.92186 6.86632,1.17145 0.81742,0.0741 5.46383,-0.0302 6.39458,-0.14354 z m -35.222611,-1.88693 c 4.494851,-0.5474 8.185941,-1.72541 10.849821,-3.46271 1.20847,-0.78813 2.64138,-2.26844 3.11714,-3.22023 0.53912,-1.07858 0.61304,-1.57625 0.58044,-3.90793 l -0.0286,-2.04245 -0.30795,0.52396 c -0.46452,0.79037 -1.79559,2.05547 -2.9773,2.82973 -3.03717,1.98998 -7.13078,3.22459 -12.177054,3.67252 -5.65195,0.5017 -11.754461,-0.4311 -16.085946,-2.45883 -2.227534,-1.04279 -4.377164,-2.73102 -5.148503,-4.04342 l -0.307949,-0.52396 -0.02856,2.04245 c -0.0326,2.33168 0.04132,2.82935 0.580443,3.90793 0.475752,0.95179 1.908668,2.4321 3.117136,3.22023 2.712784,1.76919 6.842512,3.06691 11.007064,3.45882 0.634217,0.0597 1.318228,0.12759 1.520024,0.15091 0.651158,0.0752 5.370589,-0.0351 6.289751,-0.14702 z m -26.068364,-2.3175 c -0.141027,-0.36636 -0.186462,-0.92135 -0.219712,-2.68374 l -0.04192,-2.22187 -0.719005,-0.27475 c -1.223217,-0.46742 -4.401847,-2.08735 -5.43472,-2.76971 -1.122197,-0.74137 -2.450552,-2.01599 -2.90267,-2.78525 l -0.307949,-0.52396 -0.02856,2.04245 c -0.0326,2.33168 0.04132,2.82935 0.580443,3.90792 0.475752,0.9518 1.908668,2.43211 3.117136,3.22023 1.454702,0.94872 4.033303,2.05625 5.975263,2.56644 0.16972,0.0446 0.168278,0.007 -0.01831,-0.47776 z m 4.953735,-2.21833 c -0.822537,-0.83599 -1.412591,-1.72819 -1.762615,-2.6652 -0.211787,-0.56695 -0.231978,-0.85443 -0.285173,-4.06053 l -0.05725,-3.45039 -0.758997,0.81298 c -2.228255,2.38675 -2.239688,5.05978 -0.03175,7.42401 0.861592,0.92259 1.541069,1.46213 2.738342,2.17438 0.485538,0.28885 0.88797,0.52521 0.894293,0.52525 0.0063,4e-5 -0.325259,-0.34218 -0.736848,-0.7605 z m 56.33724,0.13301 c 3.51129,-0.42762 6.47221,-1.21727 8.85806,-2.36235 1.65383,-0.79375 2.69601,-1.51191 3.78222,-2.6063 1.96726,-1.98207 2.41484,-3.97829 1.36463,-6.08627 -0.38199,-0.76674 -1.18182,-1.76277 -1.88148,-2.34303 l -0.40365,-0.33477 -0.33015,0.27066 c -0.18159,0.14886 -0.52582,0.4137 -0.76496,0.58853 l -0.4348,0.31787 -0.047,2.05775 c -0.0402,1.76037 -0.0792,2.14593 -0.26968,2.6679 -1.28759,3.52751 -6.16772,6.38893 -12.80843,7.5101 -0.7207,0.12168 -1.67757,0.25023 -2.12638,0.28568 -0.44881,0.0354 -0.8451,0.11151 -0.88065,0.16903 -0.0804,0.13009 4.64794,0.0228 5.94225,-0.1348 z m -5.0318,-0.62898 c 4.49484,-0.5474 8.18594,-1.72541 10.84982,-3.46271 1.08591,-0.7082 2.62328,-2.26307 3.06418,-3.09905 0.52516,-0.99575 0.65725,-1.67266 0.65725,-3.36802 0,-0.8239 -0.022,-1.498 -0.0488,-1.498 -0.16766,0 -1.55827,0.84248 -1.99537,1.20886 -2.95168,2.47415 -7.69916,4.09951 -13.47055,4.61181 -4.44606,0.39466 -9.18217,-0.089 -13.23468,-1.35162 l -0.81243,-0.25312 v 0.40351 c 0,0.37212 0.0387,0.42535 0.49794,0.68411 0.81687,0.4603 1.82676,1.13849 2.38073,1.59877 1.21009,1.00543 2.29266,2.57301 2.58136,3.73784 0.0714,0.28828 0.17542,0.55422 0.23105,0.59097 0.0556,0.0368 0.7202,0.12182 1.47682,0.18903 0.75663,0.0672 1.49361,0.13953 1.63775,0.1607 0.50077,0.0736 5.29916,-0.0452 6.18493,-0.15308 z m -30.190811,-1.25795 c 4.494851,-0.5474 8.185941,-1.72541 10.849821,-3.46271 1.08817,-0.70968 2.62322,-2.26295 3.06594,-3.10235 0.92795,-1.75938 0.83206,-3.47811 -0.28727,-5.14949 -2.07395,-3.0968 -7.11269,-5.33625 -13.785735,-6.12699 -1.709695,-0.2026 -6.459392,-0.16986 -8.176676,0.0564 -5.677946,0.74795 -9.998871,2.50591 -12.403641,5.04638 -1.864033,1.96923 -2.254976,3.91086 -1.212248,6.02068 0.48611,0.98357 1.896329,2.4489 3.13297,3.25541 2.712784,1.76919 6.842512,3.06691 11.007064,3.45882 0.634217,0.0597 1.318228,0.12759 1.520024,0.15091 0.651158,0.0752 5.370589,-0.0351 6.289751,-0.14702 z m -26.00981,-5.6027 c 0.12304,-0.34205 0.312512,-0.77242 0.421048,-0.95637 l 0.197339,-0.33447 -1.325192,-0.47402 c -0.728856,-0.26071 -2.0036,-0.69256 -2.832763,-0.95967 -0.829164,-0.2671 -2.102838,-0.77826 -2.830388,-1.13591 -0.72755,-0.35765 -1.358198,-0.6669 -1.40144,-0.68722 -0.143557,-0.0675 -0.08127,1.70841 0.08189,2.33483 0.08828,0.33894 0.311815,0.90313 0.496739,1.25377 0.441029,0.83623 1.978596,2.39114 3.064184,3.09875 0.842316,0.54905 2.640484,1.4652 3.378338,1.72124 l 0.395513,0.13725 0.06551,-1.68814 c 0.05203,-1.34064 0.111558,-1.81614 0.28922,-2.31004 z m 56.200621,0.5709 c 3.17443,-0.38659 6.01065,-1.09791 8.22909,-2.06384 0.92641,-0.40336 2.39338,-1.18748 2.33355,-1.24731 -0.021,-0.021 -0.34234,0.0554 -0.71412,0.1698 -2.9055,0.89384 -6.81273,1.46163 -10.05818,1.46163 -2.55003,0 -6.10147,-0.42545 -8.43875,-1.01094 -2.21961,-0.55601 -4.84584,-1.58021 -6.12136,-2.38725 l -0.46058,-0.29142 0.0779,0.24669 c 0.0428,0.13567 0.10237,0.98789 0.13231,1.89381 l 0.0544,1.64714 0.4331,0.15956 c 1.91156,0.70425 4.83033,1.26578 8.13805,1.56567 0.81742,0.0741 5.46383,-0.0302 6.39458,-0.14354 z m -63.738222,-0.87102 c -0.692763,-1.10489 -0.859044,-1.71133 -0.915185,-3.33773 l -0.04934,-1.42937 -0.471681,-0.33248 c -0.259424,-0.18285 -0.493567,-0.31058 -0.520317,-0.28383 -0.02675,0.0268 -0.101909,0.35964 -0.16702,0.73976 -0.255419,1.49112 0.318163,3.02482 1.667779,4.45947 0.436755,0.46428 0.811079,0.84414 0.83183,0.84414 0.02075,0 -0.14848,-0.29698 -0.376067,-0.65996 z m 67.512072,-1.64488 c 3.51129,-0.42762 6.47221,-1.21726 8.85806,-2.36235 1.6577,-0.7956 2.6987,-1.51384 3.77505,-2.6046 1.52026,-1.54059 1.93814,-2.55605 1.93814,-4.70963 v -1.24479 l -0.65518,0.57271 c -3.5331,3.08837 -9.90747,4.89509 -17.27061,4.89509 -6.45706,0 -12.078,-1.35719 -15.84608,-3.82606 -1.1817,-0.77427 -2.51277,-2.03936 -2.9773,-2.82973 l -0.30794,-0.52396 -0.0349,0.41932 c -0.0192,0.23062 -0.0156,1.29202 0.008,2.35865 0.0545,2.47364 0.0836,2.55473 1.37358,3.83432 0.53711,0.53276 1.15882,1.25014 1.38158,1.59419 0.47147,0.72815 1.14103,1.199 2.93259,2.06229 2.45033,1.18071 5.80148,2.05821 9.01531,2.36066 0.63422,0.0597 1.31823,0.12759 1.52003,0.15091 0.65115,0.0752 5.37058,-0.0351 6.28975,-0.14702 z m -57.963904,-0.96379 c 0.662002,-0.60067 0.842175,-0.82832 0.891875,-1.12692 0.177314,-1.06528 0.661885,-2.08164 1.515359,-3.17836 l 0.224341,-0.28828 -0.244609,-0.002 c -0.511337,-0.004 -2.287253,-0.21676 -3.546728,-0.42532 -4.704394,-0.779 -8.745722,-2.54027 -10.99894,-4.79349 -0.444081,-0.44408 -0.945998,-1.0432 -1.11537,-1.33138 l -0.307949,-0.52396 -0.02856,2.04245 c -0.0167,1.1946 0.01913,2.27216 0.08633,2.59584 0.213821,1.02997 0.789576,1.98633 1.822981,3.02808 2.200999,2.21877 5.356998,3.63561 10.331848,4.63835 0.259452,0.0523 0.487053,0.10014 0.50578,0.10631 0.01873,0.006 0.407365,-0.3275 0.863641,-0.7415 z m 3.678669,-5.50127 c 3.358337,-2.82832 9.797728,-4.64671 16.459716,-4.64798 l 1.328188,-2.6e-4 0.523943,-0.58785 c 0.631951,-0.70903 1.107411,-1.57233 1.324068,-2.40413 0.154491,-0.59314 0.218096,-1.6328 0.106707,-1.74419 -0.02959,-0.0296 -0.407406,0.2941 -0.839584,0.71933 -2.77761,2.73291 -7.799222,4.57047 -13.992355,5.1202 -5.651951,0.5017 -11.754461,-0.4311 -16.085947,-2.45883 -2.276413,-1.06567 -4.359731,-2.71768 -5.198004,-4.12185 -0.197915,-0.33152 -0.391562,-0.60277 -0.430328,-0.60277 -0.133292,0 -0.415917,0.99678 -0.475568,1.67727 -0.07302,0.83304 0.141316,1.75078 0.621554,2.66131 0.442723,0.83939 1.977774,2.39267 3.065941,3.10234 2.712784,1.7692 6.842513,3.06691 11.007065,3.45883 1.710988,0.16101 1.875714,0.17704 2.008044,0.19537 0.06661,0.009 0.326067,-0.15583 0.57656,-0.36679 z m 55.543185,0.17531 c 4.49485,-0.5474 8.18594,-1.72541 10.84982,-3.46272 1.20847,-0.78812 2.64138,-2.26843 3.11713,-3.22023 0.53913,-1.07858 0.61305,-1.57624 0.58045,-3.90793 l -0.0286,-2.04244 -0.30795,0.52396 c -0.77134,1.3124 -2.92097,3.00062 -5.1485,4.04341 -3.44278,1.6117 -8.44006,2.61238 -13.0459,2.61238 -1.48638,0 -4.28443,-0.23015 -5.76561,-0.47424 -0.54773,-0.0903 -1.67989,-0.23251 -2.5159,-0.3161 -3.71807,-0.37177 -7.0055,-1.16899 -9.47483,-2.29769 l -0.82643,-0.37775 0.0712,0.53674 c 0.29892,2.25332 2.34265,4.42331 5.66999,6.02026 2.46134,1.18131 5.80685,2.05652 9.01531,2.35846 0.63422,0.0597 1.31823,0.12759 1.52003,0.1509 0.65115,0.0752 5.37058,-0.0351 6.28975,-0.14701 z m -24.27449,-1.33798 c -0.0448,-0.10089 -0.10877,-1.00846 -0.14225,-2.01681 l -0.0609,-1.83337 -0.81525,0.77488 c -0.78302,0.74424 -1.61647,1.75302 -1.5244,1.84509 0.0242,0.0242 0.56059,0.30834 1.19187,0.63131 0.63128,0.32297 1.1926,0.63112 1.24737,0.68479 0.15302,0.14991 0.19331,0.11649 0.10354,-0.0859 z m 4.67628,-1.89242 c -2.12065,-1.46715 -3.56904,-3.71553 -3.56904,-5.54032 0,-0.33974 -0.0546,-0.48202 -0.23299,-0.60695 -0.35493,-0.24861 -0.39599,-0.20803 -0.39599,0.39135 0,1.41586 0.60488,2.66941 1.93814,4.0166 0.78348,0.79166 2.25957,1.94372 2.46357,1.92277 0.0294,-0.003 -0.0622,-0.0856 -0.20369,-0.18345 z m -30.090829,-1.17242 c 4.494848,-0.54741 8.18594,-1.72542 10.849821,-3.46272 1.208468,-0.78813 2.641383,-2.26844 3.117136,-3.22023 0.539124,-1.07858 0.613043,-1.57625 0.580442,-3.90793 l -0.02856,-2.04245 -0.30795,0.52396 c -0.464527,0.79037 -1.795596,2.05547 -2.977299,2.82973 -3.037171,1.98998 -7.130778,3.22459 -12.177057,3.67252 -6.691074,0.59394 -13.88549,-0.82566 -18.107981,-3.57307 -0.505184,-0.3287 -1.177969,-0.81952 -1.495077,-1.0907 -0.559702,-0.47863 -1.816057,-1.36656 -1.933588,-1.36656 -0.03199,0 -0.05817,0.72127 -0.05817,1.60283 0,1.8078 0.123631,2.46105 0.657253,3.47285 0.440897,0.83598 1.978272,2.39085 3.064183,3.09905 2.712785,1.7692 6.842513,3.06691 11.007065,3.45882 0.634217,0.0597 1.318227,0.12759 1.520024,0.15091 0.651158,0.0752 5.370589,-0.0351 6.289751,-0.14701 z m 16.521769,-0.1221 c -0.24656,-0.35202 -1.08367,-1.20213 -1.53834,-1.56224 l -0.412172,-0.32644 v 0.89985 c 0,0.49493 0.01179,0.90342 0.02621,0.90776 0.04679,0.0141 1.804132,0.27864 1.945282,0.29283 0.10506,0.0105 0.10017,-0.0388 -0.021,-0.21176 z m -2.585652,-0.95381 c -0.0051,-0.71163 -0.02829,-0.82975 -0.131036,-0.66674 -0.06868,0.10896 -0.321765,0.46276 -0.562412,0.78622 l -0.437541,0.58812 0.489955,0.0622 c 0.269476,0.0342 0.525335,0.0696 0.568577,0.0786 0.04324,0.009 0.07585,-0.37271 0.07246,-0.84837 z m 35.752922,-0.81102 c 4.49485,-0.5474 8.18594,-1.72541 10.84982,-3.46272 1.08817,-0.70967 2.62322,-2.26295 3.06594,-3.10235 0.92287,-1.74975 0.82127,-3.53649 -0.29404,-5.1709 l -0.33269,-0.48754 -0.85468,0.84339 c -0.47008,0.46386 -1.16631,1.04556 -1.54719,1.29267 l -0.6925,0.4493 -0.0705,0.62329 c -0.40081,3.54264 -4.44141,6.64317 -10.7007,8.21112 -1.28534,0.32197 -3.38941,0.68298 -4.48504,0.76951 -0.44881,0.0354 -0.8451,0.11152 -0.88065,0.16904 -0.0804,0.13008 4.64794,0.0228 5.94225,-0.13481 z m -5.0318,-0.62898 c 5.58728,-0.68044 9.87447,-2.3122 12.41474,-4.7252 1.18647,-1.12703 1.87599,-2.27107 2.09384,-3.47403 l 0.0703,-0.38805 -1.11517,0.52205 c -2.77375,1.2985 -6.10893,2.11681 -10.00433,2.45466 -2.29917,0.1994 -8.18376,0.1994 -10.48292,0 -5.01479,-0.43493 -9.13644,-1.67682 -12.17706,-3.66906 -1.1817,-0.77426 -2.51277,-2.03936 -2.9773,-2.82973 l -0.30795,-0.52396 -0.0286,2.04245 c -0.0326,2.33168 0.0413,2.82935 0.58044,3.90793 0.47575,0.95179 1.90867,2.4321 3.11714,3.22023 2.71278,1.76919 6.84251,3.06691 11.00706,3.45882 0.63422,0.0597 1.31823,0.12759 1.52002,0.15091 0.65116,0.0752 5.37059,-0.0351 6.28976,-0.14702 z m -44.657239,-3.77385 c 3.511296,-0.42762 6.472212,-1.21726 8.858066,-2.36234 1.653823,-0.79375 2.696008,-1.51191 3.782216,-2.6063 1.966808,-1.98162 2.414247,-3.97574 1.36564,-6.08628 -0.202153,-0.40687 -0.576046,-0.97529 -0.830874,-1.26316 l -0.463325,-0.52339 -0.05319,1.57168 c -0.04172,1.23281 -0.100513,1.70324 -0.272661,2.18184 -1.264392,3.51514 -6.17068,6.3924 -12.805187,7.5095 -0.720701,0.12135 -2.088721,0.28972 -3.040046,0.37417 -4.517787,0.40102 -9.238388,-0.0934 -13.391929,-1.40251 -0.533319,-0.16809 -0.96967,-0.28441 -0.96967,-0.25848 0,0.0259 0.483524,0.27331 1.074499,0.54972 2.472197,1.1563 5.796151,2.01611 8.936688,2.31166 0.634217,0.0597 1.318227,0.12759 1.520024,0.15091 0.651158,0.0752 5.370589,-0.0351 6.289751,-0.14702 z m -2.515901,-1.88692 c 4.494849,-0.5474 8.18594,-1.72541 10.849822,-3.46272 1.208467,-0.78813 2.641383,-2.26843 3.117135,-3.22023 0.539125,-1.07858 0.613043,-1.57625 0.580443,-3.90793 l -0.02856,-2.04244 -0.307949,0.52396 c -0.464527,0.79037 -1.795597,2.05546 -2.9773,2.82972 -3.03717,1.98998 -7.130778,3.22459 -12.177056,3.67253 -5.651951,0.5017 -11.754462,-0.43111 -16.085947,-2.45884 -2.227534,-1.04279 -4.377163,-2.73102 -5.148502,-4.04341 l -0.30795,-0.52396 -0.02856,2.04244 c -0.0326,2.33168 0.04132,2.82935 0.580442,3.90793 0.475753,0.9518 1.908668,2.4321 3.117136,3.22023 2.712784,1.7692 6.842512,3.06691 11.007065,3.45882 0.634216,0.0597 1.318227,0.1276 1.520023,0.15091 0.651159,0.0752 5.370589,-0.0351 6.289751,-0.14701 z m 51.57596,-0.62898 c 4.49485,-0.5474 8.18594,-1.72541 10.84982,-3.46271 1.20847,-0.78813 2.64139,-2.26844 3.11714,-3.22023 0.53912,-1.07858 0.61304,-1.57625 0.58044,-3.90793 l -0.0286,-2.04245 -0.30794,0.52396 c -1.07011,1.82073 -4.12646,3.85151 -7.48628,4.97422 -3.04551,1.01768 -7.11036,1.67623 -10.39364,1.68389 -0.65246,0.002 -1.267,0.074 -1.7821,0.21033 -2.13876,0.56583 -6.06091,1.04479 -8.56407,1.04582 -1.47792,6.1e-4 -3.47227,-0.14715 -5.09972,-0.37784 -0.62519,-0.0886 -1.15778,-0.14006 -1.18353,-0.11431 -0.0258,0.0258 0.17915,0.23539 0.45532,0.46588 2.54016,2.11992 7.23711,3.76612 12.03335,4.21748 0.63421,0.0597 1.31822,0.12759 1.52002,0.15091 0.65116,0.0752 5.37059,-0.0351 6.28975,-0.14702 z m -12.84157,-0.27488 c -3.47011,-0.94937 -6.22108,-2.32722 -8.07185,-4.04285 -0.69547,-0.64468 -0.7831,-0.69247 -1.67727,-0.9146 -0.5189,-0.1289 -1.54309,-0.43683 -2.27596,-0.68427 l -1.3325,-0.4499 0.33622,0.46817 c 0.50093,0.69754 1.76719,1.85871 2.67761,2.45541 2.15545,1.4127 5.20498,2.51547 8.61406,3.11502 1.47929,0.26017 1.72308,0.29295 2.25383,0.30311 0.3337,0.006 0.22667,-0.0447 -0.52414,-0.25009 z m 2.77797,-4.75692 c 4.49485,-0.5474 8.18594,-1.72541 10.84982,-3.46272 1.08591,-0.7082 2.62329,-2.26306 3.06418,-3.09905 0.41337,-0.78378 0.65726,-1.68761 0.65726,-2.43577 0,-0.49628 -0.0225,-0.55693 -0.18345,-0.49393 -0.79889,0.31277 -3.10173,1.0143 -3.95731,1.20554 -1.1518,0.25746 -1.61485,0.39814 -3.40694,1.03514 -2.43491,0.86548 -4.89003,1.37218 -7.96702,1.64427 -5.65749,0.50027 -11.75515,-0.43202 -16.08595,-2.45942 -2.22753,-1.04279 -4.37716,-2.73102 -5.1485,-4.04342 l -0.30795,-0.52396 -0.0286,2.04245 c -0.0326,2.33168 0.0413,2.82935 0.58044,3.90793 0.47576,0.95179 1.90867,2.4321 3.11714,3.22022 2.71278,1.7692 6.84251,3.06691 11.00706,3.45883 0.63422,0.0597 1.31823,0.12759 1.52003,0.15091 0.65116,0.0752 5.37059,-0.0351 6.28975,-0.14702 z m -41.51236,-0.62897 c 4.494849,-0.5474 8.18594,-1.72542 10.849822,-3.46272 1.088167,-0.70967 2.623217,-2.26295 3.06594,-3.10235 0.927946,-1.75937 0.832064,-3.4781 -0.287272,-5.14948 -2.073952,-3.09681 -7.112692,-5.336251 -13.785733,-6.127 -1.709695,-0.202598 -6.459393,-0.169859 -8.176677,0.05636 -5.677946,0.747958 -9.998871,2.50592 -12.40364,5.04639 -1.864033,1.96922 -2.254977,3.91085 -1.212249,6.02067 0.48611,0.98358 1.89633,2.44891 3.13297,3.25541 2.712784,1.7692 6.842512,3.06691 11.007065,3.45882 0.634216,0.0597 1.318227,0.12759 1.520023,0.15091 0.651159,0.0752 5.370589,-0.0351 6.289751,-0.14701 z m 51.41872,-0.6367 c 4.26359,-0.41658 8.28235,-1.67802 11.00706,-3.455 0.46125,-0.30081 1.26696,-0.97848 1.79046,-1.50592 1.09536,-1.1036 1.65474,-2.08198 1.85338,-3.24161 0.31103,-1.81577 -0.64342,-3.77267 -2.63448,-5.40145 l -0.6679,-0.54638 -0.34887,0.6934 c -0.86578,1.72079 -2.63162,3.31727 -4.98258,4.50469 l -0.69199,0.34951 -0.0605,1.02863 c -0.0691,1.17602 -0.30104,1.93883 -0.88072,2.89672 -0.88232,1.45795 -2.94901,3.10734 -5.19101,4.14286 -0.59391,0.27431 -1.19776,0.55417 -1.3419,0.62192 -0.29263,0.13754 -0.0533,0.12781 2.149,-0.0874 z m -9.90636,-5.02408 c 2.05283,-0.25 4.95053,-0.84 5.67367,-1.15522 0.23193,-0.1011 0.22741,-0.10499 -0.0653,-0.0562 -0.17297,0.0289 -1.23436,0.0823 -2.35866,0.11867 -2.26458,0.0734 -4.70962,-0.0957 -7.02355,-0.48558 -6.63617,-1.11819 -11.49226,-3.96433 -12.81302,-7.50966 -0.20825,-0.559 -0.23059,-0.84961 -0.26647,-3.466739 -0.0215,-1.571127 -0.0666,-2.856595 -0.10021,-2.856595 -0.0336,0 -0.3722,0.172328 -0.75251,0.382952 -2.69395,1.491982 -4.41923,3.456828 -4.75462,5.414822 -0.16102,0.94003 0.002,1.86678 0.51087,2.89539 0.48611,0.98358 1.89633,2.44891 3.13297,3.25541 2.71278,1.7692 6.84251,3.06691 11.00706,3.45883 0.63422,0.0597 1.31823,0.12759 1.52003,0.1509 0.65116,0.0752 5.37059,-0.0351 6.28975,-0.14701 z m 6.28975,-1.88692 c 4.49485,-0.54741 8.18594,-1.72542 10.84982,-3.46272 1.20847,-0.78813 2.64139,-2.26844 3.11714,-3.22023 0.53912,-1.07858 0.61304,-1.576249 0.58044,-3.90793 l -0.0286,-2.042446 -0.30795,0.523961 c -0.46452,0.790371 -1.79559,2.055464 -2.9773,2.829726 -3.03717,1.989979 -7.13077,3.224589 -12.17705,3.672519 -5.65195,0.5017 -11.75446,-0.4311 -16.08595,-2.45883 -2.22753,-1.042791 -4.37716,-2.731019 -5.1485,-4.043415 l -0.30795,-0.523961 -0.0286,2.042446 c -0.0326,2.331681 0.0413,2.82935 0.58045,3.90793 0.47575,0.95179 1.90866,2.4321 3.11713,3.22023 2.71279,1.7692 6.84251,3.06691 11.00707,3.45882 0.63421,0.0597 1.31822,0.12759 1.52002,0.15091 0.65116,0.0752 5.37059,-0.0351 6.28975,-0.14701 z m 0,-6.28975 c 4.49485,-0.54741 8.18594,-1.72542 10.84982,-3.462723 1.08817,-0.709671 2.62322,-2.262949 3.06594,-3.102347 0.92795,-1.759374 0.83207,-3.478104 -0.28727,-5.149486 -2.07395,-3.096806 -7.11269,-5.336248 -13.78573,-6.126997 -1.7097,-0.202597 -6.4594,-0.169858 -8.17668,0.05636 -5.67795,0.747959 -9.99887,2.505916 -12.40364,5.046388 -1.86403,1.969222 -2.25498,3.910856 -1.21225,6.020672 0.48611,0.983577 1.89633,2.448909 3.13297,3.25541 2.71279,1.769193 6.84251,3.066913 11.00707,3.458823 0.63421,0.0597 1.31822,0.12759 1.52002,0.15091 0.65116,0.0752 5.37059,-0.0351 6.28975,-0.14701 z"
         id="path118980"
         sodipodi:nodetypes="cssssscsssssccsssssssssssscssscsssscccsssscscsscssscssssssssccsssssssssssssssssscscsccssssscscsssscscsssccsssssccsssscssscssscsssssscssscsssscsscsssscsssscsscccsssscssscscssssscsscsscsssscssscsscsccsssscccssssscssscsscssscsssscccssssscssssssscccssccssccsscssscccssscsssscscssscsssscsssssscsssscssssssscssssssscssccsssssccccssccsssccssssscsssscsssscssscssssssssscssssssssssscsscscscssssssssssscsssccscscsssscsssscccsscssscsssscsssssscsssccccsssssscscssssscssscsssscscssssccccssccssscsssscccsscssscsssssssscssssccssscsscsssssssscsssssscscssscsssscsssssssssscsssscsscssssscsssssssscsscsscsssssscsssssccssscssssssscsssssssscsssssscssssscssssssssssccssccssscscsscssscsssccsssscsssssccssscsscsssssssssccssssscssccssssscscccscssscsssccsssccsssssccssscsscssssssssscc" /></g></g></svg>
